<?xml version="1.0" standalone="no"?><!DOCTYPE svg PUBLIC "-//W3C//DTD SVG 1.1//EN" "http://www.w3.org/Graphics/SVG/1.1/DTD/svg11.dtd"><svg t="1564630178766" class="icon" viewBox="0 0 1024 1024" version="1.1" xmlns="http://www.w3.org/2000/svg" p-id="8026" xmlns:xlink="http://www.w3.org/1999/xlink" width="128" height="128"><defs><style type="text/css"></style></defs><path d="M406.8 422.3h316.4v53.9H406.8v-53.9z m0-161.7h316.4v53.9H406.8v-53.9zM354.2 98.2h421.5v53.9H354.2V98.2zM565 693.1V584.8h52.6v162.3H406.8V584.6h52.6V693H565v0.1zM354.2 584.6h52.6v53.9H143.5v-53.9h52.6V206h52.6v378.6h52.6v-324h-52.1v-54.4h52.6V98.3h52.6v486.3z m421.5 0V98.2h52.6v487h52.6v54.1H617.6v-53.9h158.2v-0.8z m53.1 289.2V603.5h52.6v324.7H143.5V603.5h52.6v270.3h632.7z m0 0" p-id="8027" fill="#ffffff"></path></svg>