<?xml version="1.0" standalone="no"?><!DOCTYPE svg PUBLIC "-//W3C//DTD SVG 1.1//EN" "http://www.w3.org/Graphics/SVG/1.1/DTD/svg11.dtd"><svg t="1631609371779" class="icon" viewBox="0 0 1024 1024" version="1.1" xmlns="http://www.w3.org/2000/svg" p-id="6120" data-spm-anchor-id="a313x.7781069.0.i12" xmlns:xlink="http://www.w3.org/1999/xlink" width="16" height="16"><defs><style type="text/css"></style></defs><path d="M866.72 187.14c-9.15-4.29-21.15-4.45-30.31 0.17-60.47 29.66-125.32 29.91-188.47 2.18-33.16-19.04-72.15-43.77-110.4-82.11-5.76-5.83-14.51-9.48-25.21-9.08l-2.6-0.08c-9.24 0-17.91 3.57-23.99 9.81-38.34 41.5-79.03 65.49-105.71 79.67-66.14 29.83-130.99 29.83-192.43-0.32-9.16-4.54-21-4.46-30.48-0.08-9.32 4.46-15.16 13.05-15.16 22.21v374.87c0 50.58 16.45 99.29 48.63 144.36 42.15 68.97 130.76 159.51 312.9 198.34 1.38 0.49 2.51 0.57 4.46 0.81 1.38 0.17 2.68 0.33 4.06 0.33h0.08c1.38 0 2.75-0.16 3.08-0.24l4.29-0.57c183.28-39.15 271.88-129.69 313.71-198.26 32.43-45.47 48.88-94.18 48.88-144.76V209.52c-0.01-9.16-5.85-17.76-15.33-22.38zM818.97 575.9c0 0.56-0.8 58.2-38.97 123.57l-4.11 6.76c-8.06 10.73-17.29 21.29-27.66 31.65V561.5h-74.76v164.44h0.32c18.74 0 40 18.82 52.61 32.01-18.24 15.52-39.13 30.52-62.58 44.88-62.15 38.16-124.71 60.7-151.84 69.55-28.7-9.36-123.62-43.25-200.76-104.02 6.17-7.31 25.25-28.59 44.89-36.74V561.5h-74.65v181.07c-13.5-12.95-25.96-26.88-36.77-41.82-38.72-65.45-39.77-124.37-39.77-124.94V251.65h0.08c73.1 21.89 150.55 12.72 224.94-26.65 35.1-18.59 63.2-40.49 82.04-57.23 18.92 16.74 46.86 38.56 81.96 57.23 74.55 39.37 152.08 48.54 225.02 26.65V575.9z m-537.48-55.28h74.75V477.7h-74.75v42.92z m191.64 194.57s18.77-4.32 38.82-4.17c14.46 0.11 38.82 4.17 38.82 4.17V561.5h-77.65v153.69zM673.7 520.3h74.75v-42.92H673.7v42.92z m-200.57 0.21h77.65V477.6h-77.65v42.91zM594.37 295.1H433.19v67.91H275.46v53.65h469.63v-53.65H594.37V295.1z m-53.65 67.91h-53.98v-14.27h53.98v14.27z" p-id="6121" fill="#ffffff"></path></svg>