<?xml version="1.0" standalone="no"?><!DOCTYPE svg PUBLIC "-//W3C//DTD SVG 1.1//EN" "http://www.w3.org/Graphics/SVG/1.1/DTD/svg11.dtd"><svg t="1632988031346" class="icon" viewBox="0 0 1024 1024" version="1.1" xmlns="http://www.w3.org/2000/svg" p-id="6688" xmlns:xlink="http://www.w3.org/1999/xlink" width="200" height="200"><defs><style type="text/css"></style></defs><path d="M534.811881 0v372.594059c50.693069 7.60396 91.247525 43.089109 108.990099 91.247525h377.663367C996.118812 210.376238 790.811881 12.673267 534.811881 0z m70.970297 81.108911C765.465347 116.594059 894.732673 238.257426 937.821782 395.405941h-250.930693c-20.277228-30.415842-48.158416-55.762376-81.108911-70.970297V81.108911zM466.376238 2.534653C185.029703 27.881188-22.811881 276.277228 2.534653 557.623762S276.277228 1046.811881 557.623762 1021.465347c86.178218-7.60396 167.287129-35.485149 238.257426-83.643565l-248.396039-288.950495c-12.673267 2.534653-22.811881 5.069307-35.485149 5.069307-76.039604 0-139.405941-63.366337-139.405941-139.405941 0-60.831683 38.019802-111.524752 93.782179-131.80198V2.534653z m-70.970297 83.643565v253.465346c-96.316832 63.366337-121.663366 192.633663-58.29703 288.950495 38.019802 58.29703 103.920792 93.782178 172.356436 93.782179h7.60396l167.287129 195.168316c-55.762376 22.811881-116.594059 35.485149-177.425743 35.485149-243.326733 0-441.029703-197.70297-441.029703-441.029703 2.534653-200.237624 136.871287-372.594059 329.504951-425.821782z m628.594059 448.633663L651.405941 532.277228c-5.069307 27.881188-20.277228 55.762376-40.554456 76.039604l240.792079 283.881188c103.920792-91.247525 164.752475-220.514851 172.356436-357.386139z m-81.108911 70.970297c-15.207921 68.435644-45.623762 131.80198-88.712871 185.029703L697.029703 608.316832v-2.534654h245.861386z" p-id="6689" fill="#ffffff"></path></svg>