<?xml version="1.0" standalone="no"?><!DOCTYPE svg PUBLIC "-//W3C//DTD SVG 1.1//EN" "http://www.w3.org/Graphics/SVG/1.1/DTD/svg11.dtd"><svg t="1632988235872" class="icon" viewBox="0 0 1712 1024" version="1.1" xmlns="http://www.w3.org/2000/svg" p-id="4517" xmlns:xlink="http://www.w3.org/1999/xlink" width="334.375" height="200"><defs><style type="text/css"></style></defs><path d="M1631.161334 1023.99598H151.190299a97.57987 97.57987 0 0 1-96.978871-98.18287 93.363876 93.363876 0 0 1 14.456981-50.597932l513.201318-820.398911A115.048847 115.048847 0 0 1 680.052597 0.00234h388.514484a112.036851 112.036851 0 0 1 95.773873 53.00693l532.476292 850.51687a77.702897 77.702897 0 0 1-65.655912 120.46984zM180.70526 963.76006H1607.668365a30.11696 30.11696 0 0 0 30.719959-29.514961 32.526957 32.526957 0 0 0-4.817994-16.865977L1133.018995 116.858185a120.46984 120.46984 0 0 0-102.399864-56.619925h-307.799591a136.732818 136.732818 0 0 0-115.650846 63.847915L134.324322 884.251166a52.40393 52.40393 0 0 0 15.660979 71.679904 56.018926 56.018926 0 0 0 30.719959 7.82999z" p-id="4518" fill="#ffffff"></path><path d="M1023.99414 722.82038c-90.35288 0-195.161741-13.249982-248.16867-67.46191C673.426606 548.742611 471.037874 490.314689 440.919914 481.8807H31.925458a30.11696 30.11696 0 1 1 0-60.23492h421.64344c9.637987 0 246.360673 63.849915 369.239509 189.137749 39.152948 39.754947 146.973805 56.619925 287.923618 43.970941 168.055777-14.455981 304.788595-60.23492 321.051573-86.737884l9.637988-13.853982h240.93968a30.11696 30.11696 0 0 1 0 60.23492h-209.015723c-55.415926 49.994934-218.65171 88.544882-356.589526 100.591866a676.438102 676.438102 0 0 1-92.761877 7.82999z m-873.40684-60.23392H30.11746a30.11696 30.11696 0 0 1 0-60.23492h120.46984a30.11696 30.11696 0 0 1 0 60.23492z" p-id="4519" fill="#ffffff"></path></svg>