<?xml version="1.0" standalone="no"?><!DOCTYPE svg PUBLIC "-//W3C//DTD SVG 1.1//EN" "http://www.w3.org/Graphics/SVG/1.1/DTD/svg11.dtd"><svg t="1604990921480" class="icon" viewBox="0 0 1024 1024" version="1.1" xmlns="http://www.w3.org/2000/svg" p-id="4194" xmlns:xlink="http://www.w3.org/1999/xlink" width="200" height="200"><defs><style type="text/css"></style></defs><path d="M734.4 545.98c-105.25 0-190.63 85.38-190.63 190.61 0 105.23 85.39 190.61 190.63 190.61s190.63-85.38 190.63-190.61c0.01-105.23-85.38-190.61-190.63-190.61z m117.76 213.05c-5.76 5.76-13.7 9.33-22.44 9.33H734.4c-17.47 0-31.78-14.29-31.78-31.77V609.52c0-17.47 14.3-31.77 31.78-31.77 8.73 0 16.68 3.58 22.44 9.34 5.75 5.75 9.33 13.7 9.33 22.43v95.31h63.54c17.47 0 31.77 14.29 31.77 31.76 0.01 8.74-3.56 16.68-9.32 22.44z m-460.3-259.24c66.11 38.16 147.56 38.16 213.67 0S712.36 391.1 712.36 314.77c0-118-95.66-213.64-213.67-213.64s-213.67 95.65-213.67 213.64c0.01 76.33 40.73 146.86 106.84 185.02z m88.36 236.8c0-34.25 6.76-67.5 19.96-98.88a252.404 252.404 0 0 1 28-49.74c-9.73 1.09-19.56 1.6-29.49 1.6-37.04 0-72.97-7.25-106.92-21.65-16.99-7.15-33.07-15.98-48.16-26.31-20.85-14.2-48.16-14.49-69.01-0.4-103.85 70-172.95 187.64-175.64 321.37v3.57c0.6 16.29 14 29.28 30.48 29.28h406.48a251.42 251.42 0 0 1-35.74-59.86c-13.2-31.37-19.96-64.62-19.96-98.98z" p-id="4195" fill="#ffffff"></path></svg>