<?xml version="1.0" standalone="no"?><!DOCTYPE svg PUBLIC "-//W3C//DTD SVG 1.1//EN" "http://www.w3.org/Graphics/SVG/1.1/DTD/svg11.dtd"><svg t="1604988683088" class="icon" viewBox="0 0 1024 1024" version="1.1" xmlns="http://www.w3.org/2000/svg" p-id="13343" xmlns:xlink="http://www.w3.org/1999/xlink" width="16" height="16"><defs><style type="text/css"></style></defs><path d="M853.991993 0H170.000007C106.040008 0 54.000009 52.039999 54.000009 115.999998v739.991985c0 33.085999 26.913999 59.999999 59.999999 59.999999h262.663995c11.046 0 20-8.952 19.999999-19.999999 0-11.046-8.954-20-19.999999-20H114.000008c-11.032 0-20-8.968-20-20V115.999998c0-41.905999 34.093999-75.999999 75.999999-75.999999h596.467988c-17.71 20.376-28.475999 46.945999-28.475999 75.999999v644.531987c0 18.452-15.008 33.459999-33.46 33.459999a33.439999 33.439999 0 0 1-31.749999-22.873999l-30.14-90.439998A62.339999 62.339999 0 0 0 583.419999 637.999988c-34.421999 0-62.421999 27.999999-62.421999 62.413998v15.58h-103.663998c-11.046 0-20 8.96-20 20 0 11.046 8.954 20 20 19.999999H521v99.499998a221.299996 221.299996 0 0 0 17.117999 85.575999l29.42 70.617998a20.008 20.008 0 0 0 18.47 12.312 19.906 19.906 0 0 0 7.679999-1.54c10.202-4.25 15.022-15.96 10.772-26.155999l-29.419999-70.615999a181.589996 181.589996 0 0 1-14.04-70.187999v-155.079997c0-12.366 10.054-22.42 22.42-22.419999 9.666 0 18.22 6.156 21.275999 15.327999l30.14 90.437999a73.373999 73.373999 0 0 0 69.695998 50.225999c40.507999 0 73.459999-32.951999 73.459999-73.459999v-342.899993l26.725999 26.671999c47.687999 47.593999 73.945999 110.913998 73.945999 178.281997v212.599996c0 55.071999-12.476 110.477998-36.069999 160.235997-4.734 9.976-0.476 21.906 9.499999 26.639999s21.906 0.484 26.64-9.5c26.117999-55.077999 39.929999-116.413998 39.929999-177.373996V622.585988c0-78.069998-30.429999-151.437997-85.687998-206.593996l-54.983999-54.881999V341.999993h131.999997c33.085999 0 59.999999-26.913999 59.999999-59.999999V115.999998c0-63.959999-52.031999-115.999998-115.999998-115.999998z m75.999999 281.999994c0 11.024-8.968 20-20 20h-131.999997V115.999998c0-41.905999 34.093999-75.999999 75.999998-75.999999s75.999999 34.093999 75.999999 75.999999z m0 0" fill="#ffffff" p-id="13344"></path><path d="M464.000001 875.991983c-5.266 0-10.42 2.14-14.14 5.86a20.174 20.174 0 0 0-5.86 14.14c0 5.266 2.14 10.422 5.86 14.139999a20.146 20.146 0 0 0 14.14 5.86c5.258 0 10.414-2.14 14.14-5.86a20.146 20.146 0 0 0 5.86-14.139999c0-5.258-2.14-10.414-5.86-14.14a20.174 20.174 0 0 0-14.14-5.86z m0 0M329.336004 147.999997c0-22.054-17.946-39.999999-40-39.999999h-87.999998c-22.062 0-39.999999 17.946-39.999999 39.999999v87.999998c0 22.054 17.938 39.999999 39.999999 40h87.999998c22.054 0 39.999999-17.946 40-40z m-40 87.999998h-87.999998V147.999997h87.999998l0.024 87.999998h-0.024z m0 0M329.336004 387.999992c0-22.054-17.946-39.999999-40-39.999999h-87.999998c-22.062 0-39.999999 17.946-39.999999 39.999999v87.999999c0 22.054 17.938 39.999999 39.999999 39.999999h87.999998c22.054 0 39.999999-17.946 40-39.999999z m-40 87.999999h-87.999998v-87.999999h87.999998l0.024 87.999999h-0.024z m0 0M289.336004 587.999989h-87.999998c-22.062 0-39.999999 17.938-39.999999 39.999999v87.991998c0 22.062 17.938 39.999999 39.999999 39.999999h87.999998c22.054 0 39.999999-17.938 40-39.999999V627.999988c0-22.062-17.946-39.999999-40-39.999999z m0 127.991997h-87.999998V627.999988h87.999998l0.024 87.991998h-0.024z m0 0M646.663997 275.999995c11.046 0 20-8.954 20-20s-8.954-20-20-20h-137.873997c-11.048 0-20 8.954-20 20s8.952 20 20 20z m0 0M417.336002 275.999995c5.266 0 10.42-2.14 14.14-5.86 3.72-3.72 5.86-8.882 5.859999-14.14s-2.14-10.42-5.859999-14.14a20.146 20.146 0 0 0-14.14-5.86c-5.28 0-10.422 2.14-14.14 5.86-3.736 3.72-5.86 8.882-5.86 14.14s2.124 10.42 5.86 14.14c3.718 3.72 8.86 5.86 14.14 5.86z m0 0M417.328002 515.99999h229.335995c11.046 0 20-8.954 20-20s-8.954-20-20-19.999999H417.328002c-11.04 0-20 8.954-20 19.999999s8.96 20 20 20z m0 0" fill="#ffffff" p-id="13345"></path></svg>