<?xml version="1.0" standalone="no"?><!DOCTYPE svg PUBLIC "-//W3C//DTD SVG 1.1//EN" "http://www.w3.org/Graphics/SVG/1.1/DTD/svg11.dtd"><svg t="1604988506099" class="icon" viewBox="0 0 1024 1024" version="1.1" xmlns="http://www.w3.org/2000/svg" p-id="12784" xmlns:xlink="http://www.w3.org/1999/xlink" width="16" height="16"><defs><style type="text/css"></style></defs><path d="M441.3 64H111.2C85.2 64 64 85.2 64 111.2v330.1c0 25.9 21.2 47.2 47.2 47.2h330.1c25.9 0 47.2-21.2 47.2-47.2V111.2c-0.1-26-21.3-47.2-47.2-47.2z m0 353.7c0 13-10.6 23.6-23.6 23.6h-283c-13 0-23.6-10.6-23.6-23.6v-283c0-13 10.6-23.6 23.6-23.6h282.9c13 0 23.6 10.6 23.6 23.6v283z m0 117.9H111.2c-25.9 0-47.2 21.2-47.2 47.2v330.1c0 25.9 21.2 47.2 47.2 47.2h330.1c25.9 0 47.2-21.2 47.2-47.2V582.7c-0.1-25.9-21.3-47.1-47.2-47.1z m0 353.7c0 13-10.6 23.6-23.6 23.6h-283c-13 0-23.6-10.6-23.6-23.6v-283c0-13 10.6-23.6 23.6-23.6h282.9c13 0 23.6 10.6 23.6 23.6v283z m471.5-353.7H582.7c-25.9 0-47.2 21.2-47.2 47.2v330.1c0 25.9 21.2 47.2 47.2 47.2h330.1c25.9 0 47.2-21.2 47.2-47.2V582.7c0-25.9-21.2-47.1-47.2-47.1z m0 353.7c0 13-10.6 23.6-23.6 23.6H606.3c-13 0-23.6-10.6-23.6-23.6v-283c0-13 10.6-23.6 23.6-23.6h282.9c13 0 23.6 10.6 23.6 23.6v283z m-330.1-731h353.7c13 0 23.6-10.6 23.6-23.6 0-13-10.6-23.6-23.6-23.6H582.7c-13 0-23.6 10.6-23.6 23.6 0.1 13 10.7 23.6 23.6 23.6z m353.7 94.3H582.7c-13 0-23.6 10.6-23.6 23.6 0 13 10.6 23.6 23.6 23.6h353.7c13 0 23.6-10.6 23.6-23.6 0-13-10.6-23.6-23.6-23.6z m0 141.5H582.7c-13 0-23.6 10.6-23.6 23.6s10.6 23.6 23.6 23.6h353.7c13 0 23.6-10.6 23.6-23.6s-10.6-23.6-23.6-23.6z" p-id="12785" fill="#ffffff"></path></svg>