<?xml version="1.0" standalone="no"?><!DOCTYPE svg PUBLIC "-//W3C//DTD SVG 1.1//EN" "http://www.w3.org/Graphics/SVG/1.1/DTD/svg11.dtd"><svg t="1604991091710" class="icon" viewBox="0 0 1024 1024" version="1.1" xmlns="http://www.w3.org/2000/svg" p-id="4971" xmlns:xlink="http://www.w3.org/1999/xlink" width="200" height="200"><defs><style type="text/css"></style></defs><path d="M624.31 666.94h-0.01c-11.29-10.56-28.95-10.56-40.24 0l-43.5 41.46V418.52c0-14.72-12.68-26.69-28.28-26.69-15.59 0-28.27 11.96-28.27 26.66v289.87l-43.55-41.48c-11.24-10.52-28.92-10.52-40.19 0.04-5.17 4.83-8.14 11.67-8.15 18.75 0 7.07 2.89 13.72 8.18 18.71l91.85 87.55c2.64 2.51 5.77 4.48 9.29 5.85 0.18 0.06 0.36 0.13 0.54 0.19 6.71 2.49 13.87 2.52 20.69-0.06l0.56-0.17c0.01-0.01 0.03-0.01 0.06-0.02 3.47-1.37 6.54-3.32 9.15-5.8l91.84-87.54c5.22-4.87 8.18-11.68 8.18-18.75a25.685 25.685 0 0 0-8.15-18.69z m244.41-442.82H155.84c-31.58 0-57.26 25.69-57.26 57.26v461.23c0 31.58 25.69 57.27 57.26 57.27h284.33l-47.63-45.39c-1.97-1.9-3.69-4-5.18-6.25H187.03l205.02-256.22 20.67 15.82c7.98 6.11 18.14 7.09 27.15 2.65 9-4.45 14.37-13.09 14.37-23.14 0-7.98-3.79-15.66-10.14-20.52L194.21 275.75H828.4L581.04 454.39c-6.71 4.84-10.72 12.66-10.71 20.92 0 9.9 5.26 18.49 14.05 22.98 8.81 4.51 18.85 3.74 26.88-2.05l7.97-5.75 206.23 257.75H637.21a37.396 37.396 0 0 1-5.16 6.22l-47.65 45.42h284.31c31.58 0 57.28-25.68 57.28-57.27V281.38c0-31.57-25.69-57.26-57.27-57.26zM348.63 458.81v4.76l-1.24 1.57L150.21 711.6V307.1l198.42 151.71z m525.72 267.86L661.17 460.21l213.18-153.99v420.45z" p-id="4972" fill="#ffffff"></path></svg>