<?xml version="1.0" standalone="no"?><!DOCTYPE svg PUBLIC "-//W3C//DTD SVG 1.1//EN" "http://www.w3.org/Graphics/SVG/1.1/DTD/svg11.dtd"><svg t="1604554074426" class="icon" viewBox="0 0 1024 1024" version="1.1" xmlns="http://www.w3.org/2000/svg" p-id="14114" xmlns:xlink="http://www.w3.org/1999/xlink" width="16" height="16"><defs><style type="text/css"></style></defs><path d="M525.92 810.78c-5.28 0-10.99-2.2-14.95-5.72l-83.12-77.87H119.99c-12.32 0-21.99-9.68-21.99-22V414.82c0-12.32 9.67-22 21.99-22h785.04c12.32 0 21.99 9.68 21.99 22v290.37c0 12.32-9.67 22-21.99 22H629.72l-89.28 78.31c-4.4 3.52-9.24 5.28-14.52 5.28zM141.99 683.19h294.66c5.72 0 11 2.2 14.96 5.72l74.76 69.96 80.49-70.39c3.96-3.52 9.23-5.28 14.52-5.28h261.68V436.82H141.99v246.37z m672.89-336.57H210.15c-12.32 0-21.99-9.68-21.99-22s9.68-22 21.99-22h604.72c12.32 0 21.99 9.68 21.99 22 0 12.33-9.67 22-21.98 22z m-116.55-91.06H326.7c-12.32 0-21.99-9.68-21.99-22s9.68-22 21.99-22h371.63c12.31 0 21.99 9.68 21.99 22s-9.68 22-21.99 22z m0 0" p-id="14115" fill="#ffffff"></path></svg>