<?xml version="1.0" standalone="no"?><!DOCTYPE svg PUBLIC "-//W3C//DTD SVG 1.1//EN" "http://www.w3.org/Graphics/SVG/1.1/DTD/svg11.dtd"><svg t="1604991062727" class="icon" viewBox="0 0 1024 1024" version="1.1" xmlns="http://www.w3.org/2000/svg" p-id="4804" xmlns:xlink="http://www.w3.org/1999/xlink" width="200" height="200"><defs><style type="text/css"></style></defs><path d="M991 526.626H835c-17.6 0-32 14.4-32 32s14.4 32 32 32h156c17.6 0 32-14.4 32-32s-14.4-32-32-32zM890.994 639.518h-156c-17.6 0-32 14.4-32 32s14.4 32 32 32h156c17.6 0 32-14.4 32-32s-14.4-32-32-32zM790.987 752.41h-156c-17.6 0-32 14.4-32 32s14.4 32 32 32h156c17.6 0 32-14.4 32-32s-14.399-32-32-32z" fill="#ffffff" p-id="4805"></path><path d="M535.84 865c-0.073 0-0.144 0.005-0.217 0.005V865H101c-19.8 0-36-16.2-36-36V195c0-2.191 0.209-4.335 0.589-6.421l352.42 352.42c28.001 28.001 73.822 28.001 101.823 0l354.207-354.207c0.622 2.64 0.961 5.385 0.961 8.208v151.728c0 17.673 14.327 32 32 32 17.673 0 32-14.327 32-32V167c0-39.6-32.4-72-72-72H73c-39.6 0-72 32.4-72 72v690c0 39.6 32.4 72 72 72h462.624v-0.005c0.073 0 0.144 0.005 0.217 0.005 17.673 0 32-14.327 32-32s-14.328-32-32.001-32z m275.481-706L494.376 475.945c-14.001 14.001-36.911 14.001-50.912 0L126.519 159h684.802z" fill="#ffffff" p-id="4806"></path></svg>