<?xml version="1.0" standalone="no"?><!DOCTYPE svg PUBLIC "-//W3C//DTD SVG 1.1//EN" "http://www.w3.org/Graphics/SVG/1.1/DTD/svg11.dtd"><svg t="1604988735675" class="icon" viewBox="0 0 1024 1024" version="1.1" xmlns="http://www.w3.org/2000/svg" p-id="13716" xmlns:xlink="http://www.w3.org/1999/xlink" width="16" height="16"><defs><style type="text/css"></style></defs><path d="M401.685333 570.304H630.826667l-87.530667-144.192-6.442667-10.410667v-146.56h-41.216v146.56l-6.421333 10.410667-87.552 144.213333zM701.653333 742.4H330.88c-45.397333 0-62.464-32.597333-38.336-72.597333l161.92-266.538667v-134.101333h-20.586667c-11.264 0-20.608-9.770667-20.608-21.525334 0-11.776 9.344-21.504 20.608-21.504h164.778667c11.285333 0 20.629333 9.728 20.629333 21.504 0 11.754667-9.344 21.525333-20.629333 21.525334h-20.586667v134.101333l161.92 266.538667c24.106667 40 7.082667 72.597333-38.336 72.597333z" p-id="13717" fill="#ffffff"></path></svg>