<?xml version="1.0" standalone="no"?><!DOCTYPE svg PUBLIC "-//W3C//DTD SVG 1.1//EN" "http://www.w3.org/Graphics/SVG/1.1/DTD/svg11.dtd"><svg t="1604988477195" class="icon" viewBox="0 0 1024 1024" version="1.1" xmlns="http://www.w3.org/2000/svg" p-id="12597" xmlns:xlink="http://www.w3.org/1999/xlink" width="16" height="16"><defs><style type="text/css"></style></defs><path d="M947.6096 918.3232a272.9984 272.9984 0 0 0-122.88-191.488c-16.7936-11.4688-22.3232-15.7696-4.9152-33.792a155.2384 155.2384 0 0 0 33.9968-176.3328 156.4672 156.4672 0 0 0-142.1312-104.0384 163.84 163.84 0 0 0-161.792 102.4 158.5152 158.5152 0 0 0 35.0208 178.3808c14.5408 15.5648 11.8784 20.48-3.8912 31.5392a271.1552 271.1552 0 0 0-124.7232 196.608c-3.072 23.3472 7.168 40.96 25.1904 43.008s31.3344-11.8784 33.3824-36.2496A176.3328 176.3328 0 0 1 548.2496 839.68c35.6352-50.5856 80.0768-89.4976 144.5888-92.5696 92.9792-4.5056 184.32 80.2816 195.584 178.5856 3.072 26.2144 16.1792 40.96 34.2016 38.0928s28.4672-21.7088 24.9856-45.4656z m-243.712-233.472a105.472 105.472 0 0 1-108.544-105.6768 106.7008 106.7008 0 1 1 213.4016-1.024 105.2672 105.2672 0 0 1-105.0624 106.7008zM267.6736 630.1696a28.0576 28.0576 0 0 0 26.8288 28.672h153.3952a374.9888 374.9888 0 0 1 5.5296-57.1392h-158.9248a28.0576 28.0576 0 0 0-26.8288 28.672z m259.4816-198.4512a176.5376 176.5376 0 0 0-38.912 58.1632h-193.7408a29.2864 29.2864 0 0 1 0-58.1632h232.6528z m225.28-142.1312a26.4192 26.4192 0 0 1-26.8288 26.8288h-430.08a26.8288 26.8288 0 1 1 0-53.6576h430.08a26.4192 26.4192 0 0 1 26.8288 26.8288z m0 22.3232" p-id="12598" fill="#ffffff"></path><path d="M832.7168 57.7536H186.7776A116.9408 116.9408 0 0 0 75.776 174.2848v674.2016a117.5552 117.5552 0 0 0 110.3872 117.76h291.84c45.8752 0 45.8752-58.1632 0-58.1632H186.1632a59.392 59.392 0 0 1-55.0912-59.5968V174.2848a64.1024 64.1024 0 0 1 55.7056-63.8976h645.9392a58.368 58.368 0 0 1 52.6336 61.44v220.16a27.648 27.648 0 1 0 55.296 0V169.7792a110.1824 110.1824 0 0 0-108.1344-111.8208z m0 0" p-id="12599" fill="#ffffff"></path></svg>