<?xml version="1.0" standalone="no"?><!DOCTYPE svg PUBLIC "-//W3C//DTD SVG 1.1//EN" "http://www.w3.org/Graphics/SVG/1.1/DTD/svg11.dtd"><svg t="1604988762659" class="icon" viewBox="0 0 1024 1024" version="1.1" xmlns="http://www.w3.org/2000/svg" p-id="13902" xmlns:xlink="http://www.w3.org/1999/xlink" width="16" height="16"><defs><style type="text/css"></style></defs><path d="M696.03037138 416.61192325c-144.26321748 0-265.74803174 120.75365567-265.74803086 272.72215985 0 151.85601826 117.71653536 272.6659169 265.74803086 272.6659169 148.08773935 0 265.74803174-120.75365567 265.74803175-272.6659169a265.29808799 265.29808799 0 0 0-265.74803175-272.72215985z m0 498.65016884c-121.48481426 0-220.19122617-101.29358848-220.19122617-225.92800899 0-124.69066347 98.70641191-225.98425195 220.19122617-225.98425195s220.19122617 101.29358848 220.19122618 225.98425195c0 124.63442051-98.70641191 225.92800898-220.19122618 225.92800899zM206.26659248 253.00112451h379.64004434v62.31721114h-379.64004434V253.00112451z m0 159.73003389h303.71203565v62.31721025h-303.71203565V412.7311584z m0 183.07086592h151.85601739v62.31721113h-151.85601739V595.85826729z m186.05174326 288.30146308H126.57030401V124.42969619h611.24859404v218.1664793c15.18560156 0 49.32508447 3.93700781 64.51068603 3.93700781V93.21484854c0-15.57930234-15.18560156-31.15860557-30.37120312-31.15860557H92.37457901C77.18897656 62.11248594 62.003375 77.69178828 62.003375 93.27109151v825.87176542c0 15.57930234 15.18560156 31.15860557 30.37120401 31.15860557h337.90776152c-15.18560156-19.46006719-26.60292422-50.61867276-37.96400479-66.1979751z m455.5680539-245.44432002c-3.76827891-11.6985375-11.36107969-15.57930234-22.77840234-19.46006719l-72.10348769-11.6985375-34.195725-66.19797509c-7.59280078-19.51631016-37.96400479-19.51631016-49.32508448 0l-34.19572588 66.19797509-72.10348681 11.6985375c-11.41732266 0-19.01012344 7.76152969-22.83464531 19.46006719-3.76827891 11.6985375 0 19.46006719 7.64904375 27.27784072l53.14960634 50.61867276-7.59280165 77.95275557c0 11.64229453 3.76827891 19.46006719 11.36108056 27.27784071 7.59280078 7.76152969 19.01012344 7.76152969 30.37120312 3.88076485l64.56692901-35.09561337 64.51068604 35.09561337c3.82452187 3.88076484 7.59280078 3.88076484 11.41732353 3.88076484 7.59280078 0 11.36107969-3.93700781 15.18560157-3.93700781a35.77052901 35.77052901 0 0 0 11.36107968-27.22159775l-11.36107968-74.01574775 53.14960634-50.61867276c3.76827891-11.6985375 3.76827891-23.397075 3.7682789-35.09561338z m-110.06749159 54.55568057c-7.59280078 7.76152969-7.59280078 15.57930234-7.59280078 23.34083291l3.7682789 35.0956125-26.54668213-19.51631016c-3.82452187-3.88076484-7.59280078-3.88076484-11.41732266-3.88076484-3.76827891 0-7.59280078 0-11.36107968 3.93700781l-30.37120313 15.52305938 3.76827891-31.15860469c0-7.76152969 0-19.46006719-7.59280166-23.34083291l-22.77840235-23.397075 34.19572588-3.93700782c7.59280078 0 15.18560156-7.76152969 18.95388047-15.52306025l15.18560156-31.15860469 15.18560245 31.15860469c3.82452187 7.76152969 11.41732266 11.6985375 19.01012344 15.57930322l34.13948203 3.93700782-26.54668125 23.34083203z" p-id="13903" fill="#ffffff"></path></svg>