<?xml version="1.0" standalone="no"?><!DOCTYPE svg PUBLIC "-//W3C//DTD SVG 1.1//EN" "http://www.w3.org/Graphics/SVG/1.1/DTD/svg11.dtd"><svg t="1604988711233" class="icon" viewBox="0 0 1024 1024" version="1.1" xmlns="http://www.w3.org/2000/svg" p-id="13530" xmlns:xlink="http://www.w3.org/1999/xlink" width="16" height="16"><defs><style type="text/css"></style></defs><path d="M909 497.9L756.9 345.3c-4.7-4.7-30.5-30.4-35.5-35.5l-162.5-163c-19.2-18.9-48.1-24.1-72.7-13-7 3.2-13.4 7.7-18.8 13.1L117 497.9c-25.3 25.3-25.3 66.4 0 91.7l350.3 351.1c19.1 19.2 49.2 24.3 73.6 12.7 6.6-3.2 12.7-7.5 17.9-12.7L909 589.6c25.3-25.3 25.3-66.4 0-91.7zM513 910.2L147.3 543.7 513 177.3l365.7 366.4L513 910.2zM391.2 543.8c0 43.6 23.2 83.9 60.9 105.7 37.7 21.8 84.1 21.8 121.8 0s60.9-62.1 60.9-105.7c0-67.4-54.5-122.1-121.8-122.1s-121.8 54.6-121.8 122.1z" p-id="13531" fill="#ffffff"></path></svg>