<?xml version="1.0" standalone="no"?><!DOCTYPE svg PUBLIC "-//W3C//DTD SVG 1.1//EN" "http://www.w3.org/Graphics/SVG/1.1/DTD/svg11.dtd"><svg t="1604991119647" class="icon" viewBox="0 0 1024 1024" version="1.1" xmlns="http://www.w3.org/2000/svg" p-id="5137" xmlns:xlink="http://www.w3.org/1999/xlink" width="200" height="200"><defs><style type="text/css"></style></defs><path d="M661.1 895.3H360c-17.8 0-32.2 14.4-32.2 32.2 0 17.8 14.4 32.2 32.2 32.2h301.1c17.8 0 32.2-14.4 32.2-32.2s-14.4-32.2-32.2-32.2z" p-id="5138" fill="#ffffff"></path><path d="M875.7 735.3l-59.2-104c-2.1-5-4.7-9.3-7.7-12.9v-179c0-54.4-19.7-111.7-55.4-161.3-30.1-41.7-70.5-75.1-116.1-97.9-1.4-68.8-57.6-124.5-126.7-124.5-68.9 0-124.8 55.2-126.7 123.6-45.2 22.3-86 55.6-116.4 97.3-36.4 49.9-56.5 107.7-56.5 162.7v178.2l-72.2 127c-10.4 18.2-10.3 40.8 0.2 58.9s30 29.4 51.1 29.4H831c32.6 0 59.1-26.5 59.1-59 0-14.2-5.1-27.8-14.4-38.5zM510.5 113c30.2 0 55.7 19.4 65.4 46.2-41.2-8.1-88.7-8.4-130.6-0.5 9.8-26.6 35.2-45.7 65.2-45.7zM193.3 772l74.6-131.2c2.6-4.6 4-9.8 4-15.1V439.4c0-89.5 69.6-182.4 162.5-216.2 23-7.4 40.1-10.7 50.5-12.2 11.8-1.6 34.1-2.1 49.8 0 15.2 2.1 33.1 6.4 54.3 13.4 90.7 34.4 159 126.8 159 214.9v190.3c0.2 4.5 1.8 8.3 4.3 11.5l72.4 127.4c0.7 1.3 1.5 2.5 2.3 3.4H193.3z" p-id="5139" fill="#ffffff"></path></svg>