<?xml version="1.0" standalone="no"?><!DOCTYPE svg PUBLIC "-//W3C//DTD SVG 1.1//EN" "http://www.w3.org/Graphics/SVG/1.1/DTD/svg11.dtd"><svg t="1604991166533" class="icon" viewBox="0 0 1024 1024" version="1.1" xmlns="http://www.w3.org/2000/svg" p-id="5308" xmlns:xlink="http://www.w3.org/1999/xlink" width="200" height="200"><defs><style type="text/css"></style></defs><path d="M858.09 757.17L698.5 597.53v-11.4c12.44-36.28 13.47-75.68 5.19-105.74-10.36-40.43-31.09-76.71-61.14-106.77-42.49-42.51-98.45-66.35-157.51-66.35-15.55 0-30.05 0-44.56 5.19-21.76 5.18-33.16 15.55-37.31 31.1-4.14 16.58-1.03 35.25 9.33 50.8l56.99 51.83c9.33 9.34 14.51 21.77 14.51 35.25s-5.18 24.88-14.51 34.21c-6.21 6.22-18.65 12.44-32.12 12.44-13.47 0-25.9-7.26-33.16-18.66L352.4 457.6c-9.33-9.33-18.65-13.48-31.09-13.48H306.8c-12.43 4.15-25.91 17.62-30.05 36.28-14.51 73.6 8.29 150.31 61.14 203.18 30.06 30.06 66.32 50.8 106.74 61.16 15.55 5.18 30.05 5.18 45.6 5.18 19.69 0 40.41-5.18 61.14-10.37h11.4l160.62 160.68c14.51 19.7 44.56 27.99 67.36 27.99 25.91 0 49.74-11.4 67.36-34.21l1.03-1.03c19.69-14.51 27.98-44.57 27.98-67.38-0.02-24.89-10.38-48.73-29.03-68.43z m-41.46 105.74c-6.21 6.22-18.65 12.44-32.12 12.44-13.47 0-25.9-6.22-32.12-12.44L588.66 698.08c-3.11-6.22-15.55-11.4-30.05-11.4-7.26 0-9.33 1.04-14.51 3.11-1.03 0-2.07 1.03-4.14 1.03-44.56 17.63-72.54 12.44-94.3 5.19-36.27-14.51-64.25-31.1-81.86-49.76-32.12-32.13-49.74-71.53-49.74-110.92V494.9l55.96 55.98c14.5 19.7 44.56 27.99 67.35 27.99 26.95 0 55.96-11.4 73.57-29.03l1.04-1.04c19.69-14.51 27.98-44.57 27.98-67.38 0-24.88-10.36-48.72-29.02-68.42l-55.95-55.98h40.41c40.41 0 77.72 17.62 110.88 49.76 23.84 23.84 39.38 51.83 44.56 82.93 6.22 37.32 4.14 68.42-5.18 93.3-4.14 18.66 0 36.28 13.47 49.76l157.51 162.76c6.22 6.22 12.43 18.66 12.43 32.14 1.04 16.58-6.22 29.02-12.44 35.24z m-380.31 15.55H212.49c-15.55 0-27.98-12.43-27.98-27.99V176.65c0-15.55 12.43-27.99 26.95-27.99h561.66c15.55 0 27.98 12.44 27.98 27.99v246.72c0 13.48 11.4 24.88 24.87 24.88s24.87-11.4 24.87-24.88V176.65c0-42.5-35.23-77.75-77.72-77.75H211.45c-42.49 0-76.69 35.25-77.72 77.75v673.82c0 42.5 35.24 77.75 77.72 77.75h223.84c14.5 0 25.9-11.4 25.9-24.88 0-13.48-11.4-24.88-24.87-24.88z" p-id="5309" fill="#ffffff"></path></svg>