<?xml version="1.0" standalone="no"?><!DOCTYPE svg PUBLIC "-//W3C//DTD SVG 1.1//EN" "http://www.w3.org/Graphics/SVG/1.1/DTD/svg11.dtd"><svg t="1604552811011" class="icon" viewBox="0 0 1024 1024" version="1.1" xmlns="http://www.w3.org/2000/svg" p-id="12854" xmlns:xlink="http://www.w3.org/1999/xlink" width="16" height="16"><defs><style type="text/css"></style></defs><path d="M903.18 429.03l-64.84-14.83c-6.49-21.33-14.84-41.54-24.77-60.36l35.25-56.28c7.42-11.87 5.56-28.19-4.36-38.11l-77.37-77.42c-9.93-9.93-25.98-11.78-38.13-4.36l-56.32 35.23c-18.92-10.01-39.14-18.36-60.48-24.85l-14.85-64.72c-2.69-11.96-13.82-24.11-29.96-24.11H457.79c-14 0-26.9 10.39-29.96 24.11l-14.84 64.81c-21.34 6.49-41.56 14.83-60.39 24.76l-56.4-35.23c-11.88-7.41-28.2-5.57-38.13 4.36l-77.36 77.32c-9.93 9.92-11.78 26.24-4.37 38.1l35.34 56.28c-10.02 18.82-18.36 39.12-24.76 60.45l-64.85 14.83c-12.34 2.78-22.17 13.53-23.75 26.33l-0.08 0.74v115.34l0.08 0.73c1.58 12.8 11.41 23.55 23.67 26.34l64.84 14.83c6.5 21.32 14.84 41.54 24.78 60.36l-35.26 56.28c-7.41 11.87-5.56 28.19 4.37 38.11l77.36 77.33c9.93 9.92 26.25 11.77 38.13 4.36l56.32-35.23c18.92 10.01 39.14 18.36 60.48 24.85l14.84 64.71c2.97 13.54 15.78 23.93 29.78 24.11h109.84c14.1 0 26.9-10.39 29.96-24.11l14.85-64.71a333.233 333.233 0 0 0 46.29-17.9l61.04 61.01c15.12 15.11 32.47 18.26 44.34 18.26 17.44 0 32.47-6.12 44.62-18.26l73.1-73.06 0.84-0.93c11.87-12.79 17.44-28.56 17.25-48.21 0-9.73-1.85-33.93-18.83-49.88l-58.44-55.16c6.22-13.54 11.5-27.63 15.86-41.91l64.75-14.83c13.55-2.97 23.85-15.76 24.13-29.77V458.97c-0.02-13.99-10.23-26.88-24.05-29.94zM784.62 580.06c-2.6 10.57-5.76 20.78-9.37 30.51l-45.74-43.3c4.09-17.99 6.03-36.07 5.85-53.96-0.75-60.82-24.03-118.59-63.92-158.55-20.78-20.77-44.45-36.81-70.33-47.66-25.23-10.57-51.95-15.94-79.4-15.94-20.69 0-51.77 1.02-82.11 10.29-9.82 2.97-17.53 11.59-20.22 22.44-2.69 10.94 0.19 21.79 7.61 29.02l107.25 107.18-11.51 63.7-63.45 11.59-107.7-107.65c-7.23-7.23-17.9-10.02-28.66-7.42-10.77 2.5-19.11 9.83-22.36 19.47-7.15 21.42-10.66 45.52-10.66 73.9 0 61.19 22.72 117.56 63.91 158.73 20.97 20.96 46.11 37.18 74.49 48.21 26.72 10.39 55.11 15.58 84.33 15.58 17.44 0 35.62-2.13 54.09-6.4l45.37 45.06c-11.22 4.45-22.09 7.88-32.94 10.48h-0.09c-10.95 2.78-20.04 11.96-22.55 22.99l-13.44 57.95H482.3l-13.45-57.85c-2.5-11.22-11.41-20.31-22.64-23.09-29.22-7.14-56.49-20.68-79.31-33.1-7.7-4.17-18.27-7.88-32 0.65l-50.65 31.52-42.77-42.74L273 691.05c6.77-10.76 6.87-21.42 0.47-32.45-15.49-26.42-26.54-53.04-32.94-78.9-2.69-10.94-11.97-20.03-23.01-22.53l-57.98-13.44v-60.55l57.89-13.44c11.22-2.5 20.32-11.41 23.09-22.62 6.03-24.94 16.7-50.35 32.38-77.88l0.09-0.1c2.42-4.35 9.83-17.61 0.1-33.1l-31.54-50.62 42.76-42.74 50.66 31.52c10.76 6.77 21.43 6.86 32.46 0.46 26.44-15.48 52.98-26.52 78.94-32.91 10.95-2.78 20.04-11.96 22.55-22.99l13.45-57.95h60.58l13.45 57.85c2.5 11.22 11.41 20.21 22.64 23.09 29.22 7.14 56.49 20.77 79.31 33.1 7.7 4.17 18.28 7.88 32.1-0.65l50.65-31.52 42.77 42.74-31.64 50.62c-6.58 10.38-6.77 21.5-0.55 32.35l0.1 0.1c15.49 26.42 26.53 53.03 32.93 78.9 2.78 10.95 11.97 20.03 23.01 22.54l57.98 13.44v60.54l-57.98 13.54c-11.22 2.59-20.32 11.4-23.1 22.61z m0 0" p-id="12855"></path></svg>