<?xml version="1.0" standalone="no"?><!DOCTYPE svg PUBLIC "-//W3C//DTD SVG 1.1//EN" "http://www.w3.org/Graphics/SVG/1.1/DTD/svg11.dtd"><svg t="1604990998889" class="icon" viewBox="0 0 1024 1024" version="1.1" xmlns="http://www.w3.org/2000/svg" p-id="4421" width="200" height="200" xmlns:xlink="http://www.w3.org/1999/xlink"><defs><style type="text/css"></style></defs><path d="M527.38 928.2H201.97c-42.54 0-77.81-35.27-77.81-77.81V176.04c1.04-42.54 35.27-77.81 77.81-77.81h623.09c42.54 0 77.81 35.27 77.81 77.81v297.57c0 13.49-11.41 24.9-24.9 24.9-13.49 0-24.9-11.41-24.9-24.9V176.04c0-15.56-12.45-28.01-28.01-28.01H201.97c-14.52 0-26.98 12.45-26.98 28.01v674.35c0 15.57 12.45 28.01 28.01 28.01h325.41c13.49 0 24.9 11.41 24.9 24.9 0 13.49-11.41 24.9-25.93 24.9z m0 0" p-id="4422" fill="#ffffff"></path><path d="M457.53 569.44l-0.84-0.83c-10.27-10.08-26.85-9.63-36.56 0.98l-104.3 113.92-34.52-34.45c-10.03-10.01-26.32-9.89-36.2 0.28-9.3 9.57-9.61 24.7-0.73 34.65l58.73 65.79c3.38 3.67 7.83 5.77 12.26 5.77 4.59 0 8.92-2.03 12.2-5.71L458.6 604.62c9.12-10.11 8.65-25.63-1.07-35.18zM457.53 273.55l-0.84-0.83c-10.27-10.08-26.85-9.63-36.56 0.98l-104.3 113.92-34.52-34.45c-10.03-10.01-26.32-9.89-36.2 0.28-9.3 9.57-9.61 24.7-0.73 34.65l58.73 65.79c3.38 3.67 7.83 5.77 12.26 5.77 4.59 0 8.92-2.03 12.2-5.71L458.6 308.73c9.12-10.12 8.65-25.64-1.07-35.18zM745.38 363.01H583.39c-16.41 0-29.84 13.48-29.94 30.05 0 16.41 13.43 29.84 29.94 29.84h161.99c16.5 0 29.94-13.43 29.94-29.95 0-16.5-13.43-29.94-29.94-29.94zM774.74 545.07c-5.71-5.75-13.99-9.05-22.7-9.05-16.6 0-30.1 11.73-30.1 26.17v366.03h60.04V562.08c0.04-6.23-2.53-12.27-7.24-17.01zM872.94 663.37c-16.6 0-30.1 11.74-30.1 26.17v238.52h60.04V689.53c-0.01-14.42-13.44-26.16-29.94-26.16zM634.44 748.38c-16.59 0-30.1 11.73-30.1 26.17v153.51h60.05V774.55c0-14.43-13.44-26.17-29.95-26.17z" p-id="4423" fill="#ffffff"></path></svg>