<?xml version="1.0" standalone="no"?><!DOCTYPE svg PUBLIC "-//W3C//DTD SVG 1.1//EN" "http://www.w3.org/Graphics/SVG/1.1/DTD/svg11.dtd"><svg t="1604553402814" class="icon" viewBox="0 0 1024 1024" version="1.1" xmlns="http://www.w3.org/2000/svg" p-id="13366" xmlns:xlink="http://www.w3.org/1999/xlink" width="16" height="16"><defs><style type="text/css"></style></defs><path d="M453.9 482.59H247.04v59.08H453.9v-59.08z m384.15 50.49V216.71c-0.09-32.59-26.5-58.98-59.1-59.08h-118.2V98.54h-59.1v59.08h-236.4V98.54h-59.1v59.08H187.94c-32.6 0.1-59.01 26.49-59.1 59.08v590.83c0.09 32.59 26.5 58.99 59.1 59.09H504.4l-0.63-0.57c41.75 37.1 96.73 59.65 156.98 59.65 130.56 0 236.41-105.81 236.41-236.33 0-59.92-22.33-114.63-59.11-156.29zM698.74 697.63V841.3c-0.04 13.97-11.35 25.29-25.32 25.33h-25.33c-13.97-0.04-25.29-11.36-25.34-25.33V697.63c-30.95-14.67-50.69-45.84-50.69-80.1 0-34.24 19.74-65.42 50.69-80.09v63.3c0.05 13.97 11.36 25.29 25.34 25.32h25.33c13.97-0.05 25.28-11.36 25.32-25.32v-63.3c30.96 14.66 50.69 45.84 50.69 80.09 0 34.26-19.73 65.44-50.69 80.1z m80.21-212.96c-34.77-20.11-75.14-31.63-118.2-31.63-130.56 0-236.41 105.81-236.41 236.33 0 43.05 11.52 83.4 31.64 118.17H188.04l-0.1-0.1V275.79h591.02v208.88z m-118.2 331.31c-6.99 0-12.66 5.67-12.66 12.66s5.67 12.66 12.66 12.66 12.67-5.67 12.67-12.66a12.664 12.664 0 0 0-12.67-12.66z m59.1-451.56H247.04v59.09h472.82v-59.09z" p-id="13367" fill="#ffffff"></path></svg>