<?xml version="1.0" standalone="no"?><!DOCTYPE svg PUBLIC "-//W3C//DTD SVG 1.1//EN" "http://www.w3.org/Graphics/SVG/1.1/DTD/svg11.dtd"><svg t="1604553446920" class="icon" viewBox="0 0 1024 1024" version="1.1" xmlns="http://www.w3.org/2000/svg" p-id="13552" xmlns:xlink="http://www.w3.org/1999/xlink" width="16" height="16"><defs><style type="text/css"></style></defs><path d="M925.8 827.02v34.4c0 19.93-15.33 36.07-34.23 36.07H138.51c-18.89 0-34.23-16.14-34.23-36.07v-34.41l821.52 0.01zM585.45 320.3c17.81 0 32.28 14.07 32.28 31.42v425.53H412.34V351.71c0-17.33 14.44-31.4 32.28-31.4h140.83zM330.52 127.91v634.97H104.28V127.91h226.24z m559.73 408.83c19.63 0 35.54 14.36 35.54 32.08V762.7H699.57V568.82c0-17.7 15.91-32.08 35.53-32.08h155.15z m0 0" p-id="13553" fill="#ffffff"></path></svg>