<?xml version="1.0" standalone="no"?><!DOCTYPE svg PUBLIC "-//W3C//DTD SVG 1.1//EN" "http://www.w3.org/Graphics/SVG/1.1/DTD/svg11.dtd"><svg t="1604553307349" class="icon" viewBox="0 0 1024 1024" version="1.1" xmlns="http://www.w3.org/2000/svg" p-id="13180" xmlns:xlink="http://www.w3.org/1999/xlink" width="16" height="16"><defs><style type="text/css"></style></defs><path d="M514.94 211.66c13.79 0 23.02-11.49 23.02-25.24v-48.2c0-16.04-9.23-25.24-23.05-25.24-13.78 0-22.97 11.49-22.97 25.24v48.2c-0.01 13.78 11.51 22.95 23 25.24zM275.66 762.65h483.13V519.43c0-135.39-108.14-243.21-241.55-243.21-133.45 0-241.58 110.14-241.58 243.21v243.22z m177.01-233l46.09-87.1c6.09-10.89 19.64-15.16 30.89-9.74A21.201 21.201 0 0 1 539.93 462l-29.36 55.62h54.86c7.86-0.06 15.23 3.82 19.6 10.34 4.19 6.34 4.58 14.46 0.99 21.17l-46.06 87.1a23.216 23.216 0 0 1-20.62 12.07c-3.45 0-6.95-0.73-10.27-2.33a21.263 21.263 0 0 1-11.47-12.38 21.184 21.184 0 0 1 1.19-16.81l29.36-55.62h-54.87c-8.01 0-15.44-3.94-19.59-10.34a20.66 20.66 0 0 1-1.02-21.17z m257.82-253.78c13.79 6.87 27.61 4.58 34.51-4.59l29.91-38.99c6.89-11.49 4.62-27.55-4.63-34.45-13.78-6.88-27.57-4.58-34.46 4.59v0.03l-27.61 39c-9.2 9.16-6.94 27.54 2.28 34.41zM227.36 859.04c0 25.25 22.98 48.2 48.3 48.2h480.83c27.61 0 48.32-20.66 48.32-48.2v-48.2H227.36v48.2z m57.52-590.01c6.89 9.17 23.02 11.46 34.51 4.58 9.19-6.88 11.49-25.25 6.89-34.41l-29.91-39.03c-6.89-11.46-23.02-13.75-34.51-6.84-9.22 9.17-11.52 25.22-4.59 34.39l27.61 41.31z m641.89 146.85c-4.63-11.46-20.75-18.37-32.24-13.75l-46 13.75c-11.52 4.59-18.41 20.66-13.82 32.12 4.6 11.49 20.72 18.37 32.21 13.78l46.03-13.75c11.49-2.32 18.38-16.07 13.82-32.15z m-747.73-4.62h-0.03l-45.96-13.78c-16.12-4.59-27.64 2.29-32.24 13.75-4.59 16.08 2.33 27.56 13.82 32.15l46 13.78c16.12 2.29 27.61-4.62 32.2-13.75 4.63-16.11-2.29-27.56-13.79-32.15z" p-id="13181" fill="#ffffff"></path></svg>