<?xml version="1.0" standalone="no"?><!DOCTYPE svg PUBLIC "-//W3C//DTD SVG 1.1//EN" "http://www.w3.org/Graphics/SVG/1.1/DTD/svg11.dtd"><svg t="1604988792580" class="icon" viewBox="0 0 1024 1024" version="1.1" xmlns="http://www.w3.org/2000/svg" p-id="14088" xmlns:xlink="http://www.w3.org/1999/xlink" width="16" height="16"><defs><style type="text/css"></style></defs><path d="M503.466667 955.733333H197.973333L68.266667 459.093333h887.466666l-15.36 52.906667c20.48 15.36 39.253333 32.426667 56.32 52.906667l23.893334-88.746667c11.946667-42.666667-20.48-87.04-64.853334-87.04h-66.56V177.493333c0-18.773333-15.36-34.133333-34.133333-34.133333h-477.866667V34.133333c0-18.773333-15.36-34.133333-34.133333-34.133333H122.88c-18.773333 0-34.133333 15.36-34.133333 34.133333v175.786667c0 18.773333 15.36 34.133333 34.133333 34.133333s34.133333-15.36 34.133333-34.133333V68.266667h151.893334v109.226666c0 18.773333 15.36 34.133333 34.133333 34.133334h479.573333v177.493333H68.266667c-46.08 0-78.506667 44.373333-64.853334 87.04l129.706667 498.346667c8.533333 29.013333 35.84 47.786667 64.853333 47.786666h390.826667c-32.426667-15.36-61.44-37.546667-85.333333-66.56z" fill="#ffffff" p-id="14089"></path><path d="M464.213333 354.986667c18.773333 0 34.133333-15.36 34.133334-34.133334s-15.36-34.133333-34.133334-34.133333h-341.333333c-18.773333 0-34.133333 15.36-34.133333 34.133333s15.36 34.133333 34.133333 34.133334h341.333333zM976.213333 965.973333L938.666667 928.426667c22.186667-30.72 35.84-68.266667 35.84-109.226667 0-100.693333-81.92-182.613333-182.613334-182.613333S609.28 718.506667 609.28 819.2s81.92 182.613333 182.613333 182.613333c35.84 0 68.266667-10.24 95.573334-27.306666l39.253333 39.253333c11.946667 11.946667 32.426667 11.946667 46.08-1.706667 15.36-11.946667 15.36-32.426667 3.413333-46.08z m-300.373333-145.066666a114.346667 114.346667 0 1 1 228.693333 0 114.346667 114.346667 0 0 1-228.693333 0zM315.733333 539.306667c-29.013333-25.6-69.973333-32.426667-105.813333-18.773334l51.2 46.08c11.946667 10.24 13.653333 29.013333 3.413333 42.666667l-3.413333 3.413333c-13.653333 11.946667-34.133333 11.946667-49.493333 0l-49.493334-46.08c-15.36 32.426667-6.826667 73.386667 20.48 97.28 23.893333 22.186667 58.026667 30.72 88.746667 22.186667l30.72 29.013333 5.12-5.12c1.706667-1.706667 3.413333-3.413333 6.826667-5.12l-3.413334-1.706666c-1.706667-1.706667-3.413333-5.12-5.12-6.826667-3.413333-5.12-5.12-10.24-5.12-15.36-1.706667-10.24 3.413333-22.186667 11.946667-29.013333l8.533333-6.826667 18.773334-17.066667 3.413333-3.413333c6.826667-32.426667-3.413333-64.853333-27.306667-85.333333z m42.666667 167.253333l8.533333 8.533333h5.12c10.24 0 18.773333 3.413333 25.6 10.24 6.826667 5.12 10.24 13.653333 10.24 20.48 5.12 1.706667 10.24 3.413333 13.653334 8.533334 6.826667 6.826667 11.946667 17.066667 10.24 25.6 1.706667 1.706667 3.413333 1.706667 5.12 3.413333 13.653333 10.24 17.066667 30.72 6.826666 44.373333 0 1.706667-1.706667 1.706667-1.706666 3.413334l-5.12 5.12 25.6 23.893333c20.48 17.066667 49.493333 17.066667 69.973333 0 17.066667-15.36 20.48-40.96 5.12-59.733333l-5.12-5.12-121.173333-110.933334h-29.013334l-17.066666 13.653334m61.44 98.986666c-3.413333-3.413333-8.533333-5.12-13.653334-3.413333h-5.12l3.413334-3.413333c6.826667-6.826667 5.12-17.066667 0-22.186667-5.12-5.12-13.653333-6.826667-18.773334-3.413333l-6.826666 1.706666 3.413333-5.12c5.12-6.826667 3.413333-17.066667-1.706667-22.186666-3.413333-3.413333-8.533333-5.12-13.653333-5.12-5.12 0-10.24 1.706667-13.653333 5.12l-8.533334 8.533333 3.413334-8.533333c1.706667-6.826667 0-13.653333-5.12-17.066667-3.413333-3.413333-8.533333-5.12-11.946667-5.12h-3.413333c-3.413333 0-6.826667 1.706667-8.533334 5.12l-22.186666 20.48-1.706667 1.706667c-5.12 6.826667-5.12 17.066667 1.706667 22.186666 5.12 5.12 13.653333 6.826667 22.186666 3.413334l6.826667-3.413334-8.533333 5.12c-3.413333 6.826667-1.706667 15.36 3.413333 20.48 5.12 5.12 13.653333 6.826667 22.186667 3.413334l6.826666-3.413334-3.413333 5.12c-1.706667 1.706667-1.706667 5.12-1.706667 6.826667 0 5.12 1.706667 8.533333 5.12 11.946667 5.12 5.12 13.653333 6.826667 22.186667 3.413333l5.12-3.413333-3.413333 5.12c-3.413333 6.826667-1.706667 15.36 5.12 20.48 3.413333 3.413333 6.826667 3.413333 11.946666 3.413333 5.12 0 10.24-1.706667 13.653334-5.12l18.773333-20.48c3.413333-3.413333 5.12-8.533333 3.413333-11.946667 0-3.413333-3.413333-6.826667-6.826666-10.24z m146.773333-158.72l-66.56-59.733333-56.32 51.2h-85.333333c-5.12 0-11.946667 1.706667-15.36 5.12l-18.773334 17.066667-10.24 6.826666c-6.826667 6.826667-8.533333 17.066667-3.413333 25.6 1.706667 1.706667 1.706667 3.413333 3.413333 3.413334 5.12 3.413333 10.24 5.12 15.36 5.12h1.706667c5.12 0 10.24-1.706667 13.653333-5.12l22.186667-18.773334h47.786667l17.066666 15.36 59.733334 54.613334 75.093333-68.266667c8.533333-8.533333 10.24-22.186667 3.413333-30.72-1.706667 0-1.706667 0-3.413333-1.706667z" fill="#ffffff" p-id="14090"></path></svg>