<?xml version="1.0" standalone="no"?><!DOCTYPE svg PUBLIC "-//W3C//DTD SVG 1.1//EN" "http://www.w3.org/Graphics/SVG/1.1/DTD/svg11.dtd"><svg t="1604554219968" class="icon" viewBox="0 0 1024 1024" version="1.1" xmlns="http://www.w3.org/2000/svg" p-id="14486" xmlns:xlink="http://www.w3.org/1999/xlink" width="16" height="16"><defs><style type="text/css"></style></defs><path d="M896 128H128a21.333333 21.333333 0 0 0-21.333333 21.333333v704a21.333333 21.333333 0 0 0 21.333333 21.333334h768a21.333333 21.333333 0 0 0 21.333333-21.333334V149.333333a21.333333 21.333333 0 0 0-21.333333-21.333333z m-42.666667 64v259.626667h-60.373333a53.333333 53.333333 0 0 0-50.56 36.053333l-21.333333 64-38.4-108.16a53.12 53.12 0 0 0-48-35.84 52.266667 52.266667 0 0 0-50.986667 31.36l-87.04 192-77.44-283.946667a53.333333 53.333333 0 0 0-99.2-10.88l-77.653333 145.706667H170.666667V192zM170.666667 810.666667V545.706667h78.72a53.333333 53.333333 0 0 0 47.146666-28.16l68.053334-128 78.72 286.933333A52.693333 52.693333 0 0 0 490.666667 715.946667h4.48a52.693333 52.693333 0 0 0 48.426666-31.36L631.68 490.666667l38.826667 111.786666a52.693333 52.693333 0 0 0 50.346666 35.84 52.693333 52.693333 0 0 0 50.346667-36.053333l29.44-85.333333H853.333333V810.666667z" fill="#ffffff" p-id="14487"></path></svg>