<?xml version="1.0" standalone="no"?><!DOCTYPE svg PUBLIC "-//W3C//DTD SVG 1.1//EN" "http://www.w3.org/Graphics/SVG/1.1/DTD/svg11.dtd"><svg t="1604554165616" class="icon" viewBox="0 0 1024 1024" version="1.1" xmlns="http://www.w3.org/2000/svg" p-id="14300" xmlns:xlink="http://www.w3.org/1999/xlink" width="16" height="16"><defs><style type="text/css"></style></defs><path d="M526.07 304.98c5.08 0 9.19-4.12 9.19-9.19v-50.56c0-5.08-4.11-9.19-9.19-9.19h-27.58c-5.08 0-9.19 4.11-9.19 9.19v50.56c0 5.07 4.11 9.19 9.19 9.19h27.58z m261.98 481.64c0-5.07-4.11-9.19-9.19-9.19H245.71c-5.08 0-9.19 4.12-9.19 9.19v37.71c0 5.08 4.11 9.19 9.19 9.19h533.15c5.08 0 9.19-4.11 9.19-9.19v-37.71zM328.44 530.18v202.23c0 5.08 4.11 9.19 9.19 9.19h349.31c5.08 0 9.19-4.11 9.19-9.19V539.37c0-104.07-84.37-188.44-188.44-188.44-98.82 0-179.25 80.44-179.25 179.25z m179.25-133.29c78.69 0 142.48 63.79 142.48 142.48v147.08c0 5.08-4.11 9.19-9.19 9.19H475.52c-5.08 0-9.19-4.11-9.19-9.19v-96.52c0-5.08-4.11-9.19-9.19-9.19h-27.58c-5.08 0-9.19 4.11-9.19 9.19v96.52c0 5.08-4.12 9.19-9.19 9.19H383.6c-5.08 0-9.19-4.11-9.19-9.19V530.18c-0.01-73.53 59.74-133.29 133.28-133.29z m164.43-46.54l35.77-35.73c3.59-3.58 3.6-9.41 0.01-13l-19.52-19.52a9.192 9.192 0 0 0-13 0l-35.75 35.77c-3.59 3.59-3.58 9.41 0 13l19.5 19.48c3.59 3.59 9.41 3.59 12.99 0zM350.4 282.08c-3.59-3.58-9.41-3.58-13 0l-19.5 19.5a9.192 9.192 0 0 0 0 13l35.74 35.76a9.192 9.192 0 0 0 13 0l19.5-19.52c3.58-3.59 3.58-9.41 0-12.99l-35.74-35.75zM897.88 98.15h-771.2c-15.48 0-28.04 12.56-28.04 28.04v771.2c0 15.49 12.56 28.04 28.04 28.04h79.5c15.49 0 28.04-12.56 28.04-28.04s-12.55-28.04-28.04-28.04h-51.45V154.24h715.12v715.12H816.1c-15.49 0-28.04 12.56-28.04 28.04s12.56 28.04 28.04 28.04h81.79c15.49 0 28.04-12.56 28.04-28.04V126.2c0-15.49-12.56-28.05-28.05-28.05z" p-id="14301" fill="#ffffff"></path></svg>