<?xml version="1.0" standalone="no"?><!DOCTYPE svg PUBLIC "-//W3C//DTD SVG 1.1//EN" "http://www.w3.org/Graphics/SVG/1.1/DTD/svg11.dtd"><svg t="1604553224669" class="icon" viewBox="0 0 1024 1024" version="1.1" xmlns="http://www.w3.org/2000/svg" p-id="12994" xmlns:xlink="http://www.w3.org/1999/xlink" width="16" height="16"><defs><style type="text/css"></style></defs><path d="M926.01 517.95c-3.86 0-131.24 360.32-413.03 372.47-135.11 4.05-235.46-97.16-304.95-194.33C161.71 627.26 103.81 522 99.95 517.95c0 0 11.58-24.29 11.58-32.39 38.6-93.12 173.71-352.22 397.59-352.22 227.75 0 358.99 259.1 397.59 352.22l19.3 32.39zM512.98 283.13c-123.52 0-223.89 101.21-223.89 226.71 0 125.52 100.37 226.73 223.89 226.73s223.88-101.21 223.88-226.73c0-125.49-100.36-226.71-223.88-226.71z m0 376.52c-81.07 0-150.55-68.83-150.55-149.8h150.55V360.06c81.05 0 150.54 68.82 150.54 149.79 0.01 85.02-69.48 149.8-150.54 149.8z m0 0" p-id="12995" fill="#ffffff"></path></svg>