<?xml version="1.0" standalone="no"?><!DOCTYPE svg PUBLIC "-//W3C//DTD SVG 1.1//EN" "http://www.w3.org/Graphics/SVG/1.1/DTD/svg11.dtd"><svg t="1604554387884" class="icon" viewBox="0 0 1024 1024" version="1.1" xmlns="http://www.w3.org/2000/svg" p-id="14867" xmlns:xlink="http://www.w3.org/1999/xlink" width="16" height="16"><defs><style type="text/css"></style></defs><path d="M186.69 867.53h649.79V404.4H186.69v463.13zM150.5 353.39h722.17c5.61 0 11.03 2.55 14.97 7.02a25.451 25.451 0 0 1 6.24 16.89v525.99c0.05 6.21-2.17 12.21-6.24 16.89a20.079 20.079 0 0 1-14.97 7.01H150.5a20.13 20.13 0 0 1-14.97-7.01 25.563 25.563 0 0 1-6.25-16.89V377.3c0-13.2 9.56-23.91 21.22-23.91zM193 225.88h637.18c11.71 0.03 21.18 9.52 21.21 21.23v21.3a21.222 21.222 0 0 1-21.21 21.23H193c-11.72 0-21.22-9.5-21.22-21.23v-21.3c0-11.73 9.5-21.23 21.22-21.23zM299.21 98.37h424.75a21.24 21.24 0 0 1 15.04 6.2c4 3.98 6.24 9.39 6.24 15.03v21.03c0 2.44-0.33 4.9-1.15 7.2-3.18 8.95-11.39 14.32-20.13 14.3H299.21c-8.35 0.02-16.21-4.88-19.68-13.12-1.12-2.64-1.59-5.5-1.59-8.37v-20.78c0-2.86 0.48-5.73 1.59-8.37 3.48-8.24 11.33-13.15 19.68-13.12z m51.27 653.78l-10.58-10.97c-4.23-4.97-6.85-7.76-6.95-14.29-0.24-6.56 1.78-13 5.74-18.24L456.01 570.1c3.64-4.94 9.36-7.91 15.48-8.04 6.13 0.13 11.85 3.1 15.48 8.04l51.48 57.25 106.34-132.81c8.03-10.33 9.93-13.14 26.14-3.44l15.75 11.66c15.04 10.07 7.59 18.74 4.23 24.91L557.02 702.46a19.749 19.749 0 0 1-15.42 8.03 19.76 19.76 0 0 1-15.48-8.03l-54.8-63.75-90.83 112.3c-8.03 10.26-21.47 10.77-30.01 1.14z m0 0" p-id="14868" fill="#ffffff"></path></svg>