<?xml version="1.0" standalone="no"?><!DOCTYPE svg PUBLIC "-//W3C//DTD SVG 1.1//EN" "http://www.w3.org/Graphics/SVG/1.1/DTD/svg11.dtd"><svg t="1604988657779" class="icon" viewBox="0 0 1024 1024" version="1.1" xmlns="http://www.w3.org/2000/svg" p-id="13157" xmlns:xlink="http://www.w3.org/1999/xlink" width="16" height="16"><defs><style type="text/css"></style></defs><path d="M512 512a192 192 0 1 0 0-384 192 192 0 0 0 0 384z m0 64a256 256 0 1 1 0-512 256 256 0 0 1 0 512z m-128 0l128 96 128-96a256 256 0 0 1 256 256v128H128V832a256 256 0 0 1 256-256z m-19.968 65.024A192 192 0 0 0 192 832v64h640v-64a192 192 0 0 0-172.032-190.976L512 752 364.032 641.024z" p-id="13158" fill="#ffffff"></path></svg>