<?xml version="1.0" standalone="no"?><!DOCTYPE svg PUBLIC "-//W3C//DTD SVG 1.1//EN" "http://www.w3.org/Graphics/SVG/1.1/DTD/svg11.dtd"><svg t="1564035285013" class="icon" viewBox="0 0 1024 1024" version="1.1" xmlns="http://www.w3.org/2000/svg" p-id="2509" xmlns:xlink="http://www.w3.org/1999/xlink" width="128" height="128"><defs><style type="text/css"></style></defs><path d="M719 362.3H590.2l0.3 233.2c0 4-1.4 7.9-4.1 10.8-2.7 3-6.2 4.6-9.8 4.6h-126c-3.6 0-7.1-1.6-9.8-4.6-2.8-2.9-4.1-6.8-4.1-10.8l0.3-233.2H308.5c-1.8 0-3.5-1.2-4.3-3.2-0.7-2-0.1-4.2 1.2-5.6l198.9-201.3c2.5-2.5 5.8-4.1 9.4-4.1 3.7 0 7 1.6 9.5 4.1l199 201.3c1.4 1.4 1.9 3.5 1.1 5.6-0.7 2-2.5 3.2-4.3 3.2z m159.2 495.4c-2.8 9.5-12.3 17.2-21.3 17.2H169.5c-9 0-18.6-7.7-21.4-17.1l-49.7-168c-2.8-9.4 0.8-22 7.8-28.1l124.7-106.3c7.1-6 20.2-9.4 29.2-9.4h73.5L214.1 675.9H334l58.4 95.6h240.1l61-95.6h119.8l-120.2-130h72.2c8.9 0 22.1 3.4 29.1 9.4l124.7 106.3c7 6.1 10.6 18.9 7.9 28.2l-48.8 167.9z m0 0" p-id="2510" fill="#ffffff"></path></svg>