<?xml version="1.0" standalone="no"?><!DOCTYPE svg PUBLIC "-//W3C//DTD SVG 1.1//EN" "http://www.w3.org/Graphics/SVG/1.1/DTD/svg11.dtd"><svg t="1564371696677" class="icon" viewBox="0 0 1024 1024" version="1.1" xmlns="http://www.w3.org/2000/svg" p-id="4597" xmlns:xlink="http://www.w3.org/1999/xlink" width="128" height="128"><defs><style type="text/css"></style></defs><path d="M341.46816 569.14944h-167.9872c-61.76256 0-111.99488 50.2272-111.99488 111.98976v167.9872c0 61.76256 50.2272 111.99488 111.99488 111.99488h167.99232c61.73696 0 111.99488-50.23232 111.99488-111.99488v-167.9872c-0.01024-61.76256-50.26304-111.98976-112-111.98976z m55.99232 279.97696c0 30.8736-25.12384 55.99744-55.99744 55.99744h-167.9872c-30.89408 0-55.99744-25.11872-55.99744-55.99744v-167.9872c0-30.86848 25.09824-56.00256 55.99744-56.00256h167.99232c30.86848 0 55.99744 25.12896 55.99744 56.00256l-0.00512 167.9872z m372.18304-635.7504l-232.192 232.18688V261.1712a28.00128 28.00128 0 0 0-55.99744 0v251.9808a28.00128 28.00128 0 0 0 27.99616 27.99616h251.98592a27.9808 27.9808 0 0 0 27.99616-27.99616 27.9808 27.9808 0 0 0-27.99616-27.99616h-184.3968l232.192-232.18688a27.98592 27.98592 0 0 0 0-39.58784 27.92448 27.92448 0 0 0-19.79904-8.20736 27.90912 27.90912 0 0 0-19.7888 8.20224z m75.78624-148.19328H173.48096c-61.76256 0-111.99488 50.2272-111.99488 111.99488v307.97824a28.00128 28.00128 0 0 0 55.99744 0V177.17248c0-30.86848 25.09824-55.99744 55.99744-55.99744h671.9488c30.86848 0 56.00256 25.12896 56.00256 55.99744v671.95392c0 30.86848-25.12896 55.99744-56.00256 55.99744h-307.97312a27.9808 27.9808 0 0 0-27.99616 27.99616 27.98592 27.98592 0 0 0 27.99616 28.00128h307.97312c61.74208 0 111.99488-50.2272 111.99488-111.98976V177.17248c0-61.76256-50.2528-111.98976-111.99488-111.98976z" p-id="4598" fill="#ffffff"></path></svg>