<?xml version="1.0" standalone="no"?><!DOCTYPE svg PUBLIC "-//W3C//DTD SVG 1.1//EN" "http://www.w3.org/Graphics/SVG/1.1/DTD/svg11.dtd"><svg t="1581563933342" class="icon" viewBox="0 0 1024 1024" version="1.1" xmlns="http://www.w3.org/2000/svg" p-id="2123" width="64" height="64" xmlns:xlink="http://www.w3.org/1999/xlink"><defs><style type="text/css"></style></defs><path d="M882.20558222 118.63836445L143.25077333 118.63836445c-47.04028445 0-85.34243555 37.86524445-85.34243555 84.46862222l0 619.24238222c0 46.60337778 38.15651555 84.46862222 85.34243555 84.46862222l738.80917334 0c47.04028445 0 85.34243555-37.86524445 85.34243555-84.46862222L967.40238222 203.10698667C967.40238222 156.50360889 929.24586667 118.63836445 882.20558222 118.63836445L882.20558222 118.63836445M143.25077333 174.99932445l738.95480889 0c15.72864 0 28.39893333 12.67029333 28.39893333 28.10766222l0 331.61216c-45.72956445-37.28270222-125.24657778-87.38133333-220.4922311-87.38133334-87.81824 0-174.47139555 67.42926222-258.21184 132.52835556-64.22528 49.95299555-130.48945778 101.65361778-177.09283556 101.65361778-65.24472889 0-121.16878222-47.47719111-140.10140444-65.68163556L114.70620445 203.10698667C114.85184 187.52398222 127.52213333 174.99932445 143.25077333 174.99932445L143.25077333 174.99932445M882.20558222 850.60266667L143.25077333 850.60266667c-15.72864 0-28.39893333-12.67029333-28.39893333-28.10766222l0-133.69344c34.07872 23.88423111 83.30353778 49.07918222 140.10140445 49.07918222 66.26417778 0 137.18869333-55.19587555 212.19100444-113.59573334 76.16739555-59.27367111 154.81059555-120.58624 222.96803556-120.58624 122.18823111 0 219.03587555 106.45959111 220.05532444 107.62467556l0.43690666-0.43690667 0 211.60846223C910.60451555 837.93237333 897.93422222 850.60266667 882.20558222 850.60266667L882.20558222 850.60266667M341.89767111 513.01944889c62.91456 0 113.88700445-50.53553778 113.88700444-112.72192 0-62.33201778-50.97244445-112.72192-113.88700444-112.72192-62.91456 0-113.88700445 50.53553778-113.88700444 112.72192C228.01066667 462.48391111 278.98311111 513.01944889 341.89767111 513.01944889L341.89767111 513.01944889M342.33457778 343.79093333c31.31164445 0 56.65223111 25.19495111 56.65223111 56.06968889 0 31.02037333-25.34058667 56.06968889-56.65223111 56.06968889-31.31164445 0-56.65223111-25.19495111-56.65223111-56.06968889C285.68234667 368.98588445 311.02293333 343.79093333 342.33457778 343.79093333L342.33457778 343.79093333M342.33457778 343.79093333" fill="#ffffff" p-id="2124"></path></svg>