<?xml version="1.0" standalone="no"?><!DOCTYPE svg PUBLIC "-//W3C//DTD SVG 1.1//EN" "http://www.w3.org/Graphics/SVG/1.1/DTD/svg11.dtd"><svg t="1575193923265" class="icon" viewBox="0 0 1024 1024" version="1.1" xmlns="http://www.w3.org/2000/svg" p-id="8304" xmlns:xlink="http://www.w3.org/1999/xlink" width="128" height="128"><defs><style type="text/css"></style></defs><path d="M846.4 435.1h-237c-21 0-38.2-17-38.2-38V136.3c0-15.8 9.6-29.8 24.4-35.5 14.9-5.7 31.4-1.8 42 10l237.1 260.8c10.1 11.1 12.7 27.2 6.6 40.9s-19.8 22.6-34.9 22.6z m-202.7-72.2H769L643.7 225v137.9z" p-id="8305" fill="#ffffff"></path><path d="M821.4 928.3H146.6v-830h465.2l-4 46h-415v738h599.6l29 46z" p-id="8306" fill="#ffffff"></path><path d="M423.4 374.9h-92.2v-46.1h92.2v46.1zM561.7 559.4H285v-46.1h276.7v46.1zM469.5 743.8H285v-46.1h184.5v46.1zM642.1 741.8l-72.5 18 17.4-64.3 239.4-238.4 45.2-4.1 6 6 6 6-6 43.1-235.5 233.7z" p-id="8307" fill="#ffffff"></path></svg>