<?xml version="1.0" standalone="no"?><!DOCTYPE svg PUBLIC "-//W3C//DTD SVG 1.1//EN" "http://www.w3.org/Graphics/SVG/1.1/DTD/svg11.dtd"><svg t="1575193715297" class="icon" viewBox="0 0 1024 1024" version="1.1" xmlns="http://www.w3.org/2000/svg" p-id="6309" xmlns:xlink="http://www.w3.org/1999/xlink" width="128" height="128"><defs><style type="text/css"></style></defs><path d="M815.4 247.4H484.5c0-58.7-49.4-106.3-110.3-106.3H208.9C148 141 98.6 188.6 98.6 247.4V779c0 28.2 11.6 55.3 32.3 75.2 20.7 19.9 48.7 31.2 78 31.1h606.5c29.2 0 57.3-11.2 78-31.1 20.7-19.9 32.3-47 32.3-75.2V353.7c0-28.2-11.6-55.2-32.3-75.2-20.7-19.9-48.8-31.1-78-31.1z m-606.5-53.2h165.4c30.5 0 55.1 23.8 55.1 53.2H153.7c0-29.4 24.7-53.2 55.2-53.2zM870.5 779c0 29.3-24.7 53.1-55.2 53.1H208.9c-14.6 0-28.6-5.6-39-15.6-10.3-10-16.1-23.5-16.1-37.6V300.6h661.6c30.5 0 55.1 23.8 55.2 53.2l-0.1 425.2z m0 0" p-id="6310" fill="#ffffff"></path><path d="M684.3 509.6h-1.6c-27.7 0-50.2-23-50.2-51.3 0-9.3 4.4-19.5 4.4-19.6 4.3-9.9 1.1-21.4-7.7-28l-0.5-0.3-48.3-27.4-0.5-0.2c-9.4-3.8-20.4-1.6-27.4 5.6-5.9 6.2-24.5 22.3-39.5 22.3s-33.8-16.4-39.7-22.7c-4.7-4.9-11.2-7.7-18.1-7.7-3.2 0-6.3 0.6-9.2 1.9l-0.5 0.2-50 28-0.5 0.3c-8.8 6.6-11.9 18.1-7.7 28.1 0 0.1 4.4 10.3 4.4 19.6 0 28.3-22.5 51.3-50.2 51.3h-1.6c-8.1-0.2-14.7 7-16.8 18.3-0.2 0.9-4 22-4 38.7 0 16.6 3.9 37.8 4 38.7 2.1 11.1 8.5 18.3 16.4 18.3h1.9c27.7 0 50.2 22.9 50.2 51.3 0 9.3-4.4 19.5-4.4 19.6-4.2 9.9-1.1 21.4 7.7 28l0.4 0.4 47.4 27 0.5 0.2c2.9 1.3 6.1 1.9 9.3 1.9 6.9 0 13.5-2.8 18.1-7.8 5.6-6.1 24.9-23.7 40.3-23.7 15.5 0 34.6 17.5 40.6 24.2 6.8 7.5 17.9 9.9 27.4 6l0.5-0.2 49.1-27.7 0.5-0.4c8.8-6.6 11.9-18 7.7-28 0 0-4.4-10.3-4.4-19.6 0-28.3 22.5-51.3 50.2-51.3h1.6c8.1 0.1 14.7-7.1 16.8-18.3 0.3-0.9 4.1-22.1 4.1-38.7s-3.9-37.7-4.1-38.7c-1.9-11.3-8.5-18.5-16.6-18.3z m-36.9 84.5c-31.2 1.6-56.1 28.2-56.1 60.6 0 10.8 4 21.2 4.9 23.3L559 699.1h-0.1c-0.6 0-1.1-0.2-1.2-0.4-4.2-4.6-8.9-8.7-13.8-12.5-11.6-8.9-22.5-13.3-32.7-13.3-10.1 0-21 4.4-32.5 13-7.7 5.8-13.1 11.7-13.7 12.3-0.4 0.2-0.8 0.3-1.2 0.4h-0.1L427.9 678c3.1-7.5 4.8-15.3 5-23.4 0-32.4-24.9-59-56.1-60.6-1.7-9.1-2.7-18.3-2.9-27.5 0-10.7 2.4-25.1 2.9-27.6 31.2-1.7 56.1-28.2 56.1-60.7 0-10.8-4.1-21.1-5-23.3l37.9-21.3h0.1c0.7 0 1.2 0.2 1.4 0.4 0.7 0.7 6 6.3 13.7 11.9 11.3 8.3 22 12.5 31.9 12.5 9.8 0 20.4-4.1 31.7-12.3 7.7-5.5 13-11 13.6-11.6 0.4-0.2 0.9-0.4 1.4-0.4h0.2l36.6 20.9c-3 7.4-4.7 15.3-4.9 23.3 0 32.4 24.9 59 56.1 60.7 0.5 2.6 2.9 16.8 2.9 27.5-0.4 9.3-1.4 18.5-3.1 27.6z m0 0" p-id="6311" fill="#ffffff"></path><path d="M457.6 566.4c0 29.5 24.4 53.5 54.5 53.5s54.5-23.9 54.5-53.5c0-29.5-24.3-53.5-54.4-53.5-30.2 0-54.6 24-54.6 53.5z m0 0" p-id="6312" fill="#ffffff"></path></svg>