<?xml version="1.0" standalone="no"?><!DOCTYPE svg PUBLIC "-//W3C//DTD SVG 1.1//EN" "http://www.w3.org/Graphics/SVG/1.1/DTD/svg11.dtd"><svg t="1575193755416" class="icon" viewBox="0 0 1024 1024" version="1.1" xmlns="http://www.w3.org/2000/svg" p-id="6829" xmlns:xlink="http://www.w3.org/1999/xlink" width="128" height="128"><defs><style type="text/css"></style></defs><path d="M897.3 866.2h-768c-16.5 0-29.9 13.4-30 29.9 0 16.5 13.4 29.9 30 29.9h767.9c16.5 0 29.9-13.4 30-29.9 0-16.5-13.4-29.9-29.9-29.9z m-748.2-58.4h94c19.4-0.1 35.2-15.8 35.2-35.2v-220c-0.1-19.4-15.8-35.1-35.2-35.2h-94c-19.4 0.1-35.2 15.8-35.2 35.2v220c0 19.4 15.7 35.1 35.2 35.2z m18.7-236.5h56.4v182.5h-56.4V571.3z m403.5 236.5h94c19.4-0.1 35.2-15.8 35.2-35.2V417c-0.1-19.4-15.8-35.1-35.2-35.2h-94c-19.4 0.1-35.2 15.8-35.2 35.2v355.6c0 19.4 15.7 35.1 35.2 35.2z m18.8-372h56.4v318h-56.4v-318z m-229.9 372h94c19.4-0.1 35.2-15.8 35.2-35.2V276.7c-0.1-19.4-15.8-35.1-35.2-35.2h-94c-19.4 0.1-35.2 15.8-35.2 35.2v495.8c0 19.5 15.7 35.2 35.2 35.3z m18.7-512.3h56.4v458.3h-56.4V295.5z m403.5 512.3h94c19.4-0.1 35.2-15.8 35.2-35.2V133.4c-0.1-19.4-15.8-35.1-35.2-35.2h-94c-19.4 0.1-35.2 15.8-35.2 35.2v639.2c0 19.4 15.7 35.1 35.2 35.2z m18.8-655.7h56.4v601.7h-56.4V152.1z m0 0" p-id="6830" fill="#ffffff"></path></svg>