<?xml version="1.0" standalone="no"?><!DOCTYPE svg PUBLIC "-//W3C//DTD SVG 1.1//EN" "http://www.w3.org/Graphics/SVG/1.1/DTD/svg11.dtd"><svg t="1575193767216" class="icon" viewBox="0 0 1024 1024" version="1.1" xmlns="http://www.w3.org/2000/svg" p-id="7001" xmlns:xlink="http://www.w3.org/1999/xlink" width="128" height="128"><defs><style type="text/css"></style></defs><path d="M186.6 925.6c-49.2 0-88-38.7-88-87.7v-650c0-49 38.8-87.7 88-87.7h654.7c46.6 0 85.4 38.7 85.4 87.7v652.7c0 49-38.8 87.7-88 87.7l-652.1-2.7z m0-771.3c-18.1 0-31.1 15.5-31.1 31V838c0 18.1 15.5 31 31.1 31h654.7c18.1 0 31.1-15.5 31.1-31V187.9c0-18.1-15.5-31-31.1-31l-654.7-2.6z m57 562.4c-15.5 0-28.5-12.9-28.5-28.4 0-15.5 12.9-28.4 28.5-28.4h535.7c15.5 0 28.5 12.9 28.5 28.4 0 15.5-12.9 28.4-28.5 28.4H243.6z m137.1-224.4l-116.4 129c-5.2 5.2-12.9 10.3-20.7 10.3-7.8 0-12.9-2.6-18.1-7.7-5.2-5.2-7.8-10.3-10.4-18.1 0-7.7 2.6-12.9 7.8-20.6l152.7-167.7 160.4 147 181.1-201.2H616.2c-15.5 0-28.5-12.9-28.5-28.4 0-15.5 12.9-28.4 28.5-28.4H787c2.6 0 2.6 2.6 5.2 2.6 0 0 2.6 0 2.6 2.6l2.6 2.6s2.6 2.6 2.6 5.2V513c0 15.5-12.9 28.4-28.5 28.4-15.5 0-28.5-12.9-28.5-28.4V404.6L530.8 639.3l-150.1-147z m0 0" p-id="7002" fill="#ffffff"></path></svg>