<?xml version="1.0" standalone="no"?><!DOCTYPE svg PUBLIC "-//W3C//DTD SVG 1.1//EN" "http://www.w3.org/Graphics/SVG/1.1/DTD/svg11.dtd"><svg t="1575193862255" class="icon" viewBox="0 0 1024 1024" version="1.1" xmlns="http://www.w3.org/2000/svg" p-id="7393" xmlns:xlink="http://www.w3.org/1999/xlink" width="128" height="128"><defs><style type="text/css"></style></defs><path d="M562.3 874.7H98.6V153.3h669.8V514h-51.5V204.8H150.1v618.3h360.7l51.5 51.6z m0 0" p-id="7394" fill="#ffffff"></path><path d="M691.1 514c97.9 0 180.3 82.4 180.3 180.3S789 874.6 691.1 874.6s-180.3-82.4-180.3-180.3S593.2 514 691.1 514m0-51.5c-128.8 0-231.9 103.1-231.9 231.9s103.1 231.9 231.9 231.9S923 823.2 923 694.4c0-128.9-103.1-231.9-231.9-231.9zM253.2 101.8h51.5v154.6h-51.5V101.8z m309.1 0h51.5v154.6h-51.5V101.8zM201.6 359.4h463.7v51.5H201.6v-51.5z m0 154.6h257.6v51.5H201.6V514z m0 154.6h206.1v51.5H201.6v-51.5z m0 0" p-id="7395" fill="#ffffff"></path><path d="M819.9 771.6H665.4V565.5h51.5v154.6H820v51.5z m0 0" p-id="7396" fill="#ffffff"></path></svg>