<?xml version="1.0" standalone="no"?><!DOCTYPE svg PUBLIC "-//W3C//DTD SVG 1.1//EN" "http://www.w3.org/Graphics/SVG/1.1/DTD/svg11.dtd"><svg t="1575193843703" class="icon" viewBox="0 0 1024 1024" version="1.1" xmlns="http://www.w3.org/2000/svg" p-id="7173" xmlns:xlink="http://www.w3.org/1999/xlink" width="128" height="128"><defs><style type="text/css"></style></defs><path d="M671.8 376.8c12.4-12.4 12.4-32.5 0-44.9-12.4-12.4-32.5-12.4-44.9 0L470 488.8l-67.2-67.2c-8-8-19.7-11.2-30.7-8.2-11 2.9-19.5 11.5-22.4 22.4-2.9 11 0.2 22.6 8.2 30.7l89.7 89.7c10.8 10.8 27.8 12.4 40.5 3.7l4.4-3.7 179.3-179.4z m0 0" p-id="7174" fill="#ffffff"></path><path d="M863.6 764V237.2c0-41.6-34.9-75.6-78.2-75.6H244.3c-43.3 0-78.2 34-78.2 75.6v546.3c0 41.6 34.9 75.6 78.2 75.6h524.2c25.2 0 49.4-10 67.3-27.9 17.8-17.7 27.8-41.9 27.8-67.2z m-95.1 158.6H244.3c-78 0-141.6-62.1-141.6-139.1V237.2c0-76.9 63.6-139 141.6-139h541.2c78 0 141.6 62.1 141.6 139V764c-0.1 87.6-71.1 158.6-158.6 158.6z m0 0" p-id="7175" fill="#ffffff"></path><path d="M292.9 649.8h443.9c21.1 0 31.7 10.6 31.7 31.7s-10.6 31.7-31.7 31.7H292.9c-21.1 0-31.7-10.6-31.7-31.7s10.6-31.7 31.7-31.7z m0 0" p-id="7176" fill="#ffffff"></path></svg>