<?xml version="1.0" standalone="no"?><!DOCTYPE svg PUBLIC "-//W3C//DTD SVG 1.1//EN" "http://www.w3.org/Graphics/SVG/1.1/DTD/svg11.dtd"><svg t="1575193729101" class="icon" viewBox="0 0 1024 1024" version="1.1" xmlns="http://www.w3.org/2000/svg" p-id="6483" xmlns:xlink="http://www.w3.org/1999/xlink" width="128" height="128"><defs><style type="text/css"></style></defs><path d="M924.4 209.5c-3.9-9.5-12.5-16.4-22.8-18.6l-443-92.1c-12.6-2.5-25.6 2.3-32.9 12.5-7.3 10.2-7.5 23.6-0.6 34l182.4 272.9-41.6 58.7c-22.7-15.7-63.7-22.3-128.4-31.2-39.3-5.4-83.6-11.6-101.2-20l-72.8-34.6c-8-3.8-17.3-4.2-25.6-1.1s-14.9 9.4-18.1 17.4l-119 291.1c-6 14.8 0.7 31.6 15.5 38.7l380.6 181c0.3 0.1 0.9 0.4 1 0.4 11.1 5.3 22.9 7.9 34.6 7.9 26.1 0 51.7-12.8 67.9-35.7l0.5-0.7c19.5-24.6 86.7-109.8 130.2-172.9 19-23.5 27.2-55.4 22-85.6-0.2-1.2-0.5-2.4-0.8-3.6-7.8-25.8-25.7-47.3-49.6-59.1l-11.9-5.6 230.5-324.9c5.9-8.7 7-19.4 3.1-28.9zM266.3 460.8l36.2 17.2-95.6 233.9-36.2-17.3 95.6-233.8zM680.2 680c-0.5 0.6-1.1 1.3-1.5 1.9l-0.6 0.9c-2.2 3.2-4.5 6.4-6.8 9.8l-44.2-22.2c-10.1-5-22.2-4.5-31.8 1.4-9.6 5.9-15.2 16.3-14.7 27.2 0.5 10.9 7 20.8 17.1 25.8l36.9 18.5c-8.4 11.3-16.9 22.5-25 33.2l-35.3-21.1c-14.9-8.9-34.5-4.6-43.8 9.8-9.3 14.4-4.7 33.2 10.2 42.2l30.8 18.5c-9.1 11.6-16.4 20.9-21.1 26.8l-1.2 1.5c-0.4 0.5-1.2 1.6-1.6 2.1-4.5 6.3-12.4 11.5-21.3 7.4l-15.1 26.9 14.4-27.3c-0.1 0-0.2-0.1-0.3-0.1L264.3 739l99.3-242.7c19.9 3.8 42.1 6.8 64.9 10 31.9 4.4 84.5 11.7 98.7 19.3 19.5 32.8 42.6 47.6 45.2 49.2 1 0.6 2 1.1 3 1.6l98.7 46.9c7.4 3.7 13.4 10.8 16.6 19.8 1.4 12.9-2.2 26.7-10.5 36.9z m-47.1-144.4l-23.8-11.3 62.6-88.3c7.2-10.2 7.4-23.5 0.4-33.8L520.1 174.3l321.8 67-208.8 294.3z m0 0" p-id="6484" fill="#ffffff"></path></svg>