<?xml version="1.0" standalone="no"?><!DOCTYPE svg PUBLIC "-//W3C//DTD SVG 1.1//EN" "http://www.w3.org/Graphics/SVG/1.1/DTD/svg11.dtd"><svg t="1575194080317" class="icon" viewBox="0 0 1024 1024" version="1.1" xmlns="http://www.w3.org/2000/svg" p-id="8996" xmlns:xlink="http://www.w3.org/1999/xlink" width="128" height="128"><defs><style type="text/css"></style></defs><path d="M858.9 163h-69.1V99.2h-69.1V163H306V99.2h-69.1V163h-69.1c-38.1 0.1-69 28.6-69.1 63.8v638c0.1 35.2 31 63.7 69.1 63.8h691.1c38.1-0.1 69-28.6 69.1-63.8v-638c-0.1-35.2-31-63.7-69.1-63.8z m23 719.5H144.7v-645h737.2v645z m0 0" p-id="8997" fill="#ffffff"></path><path d="M467.3 375.7c-117.2 15.5-195.8 89.5-195.8 202s78.6 197.2 195.8 212.7V375.7zM743.7 560c-15.4-98-78.2-170.1-184.3-184.3V560h184.3z m-184.3 46v184.3C665.5 776.2 728.3 704 743.7 606H559.4z m0 0" p-id="8998" fill="#ffffff"></path></svg>