<?xml version="1.0" standalone="no"?><!DOCTYPE svg PUBLIC "-//W3C//DTD SVG 1.1//EN" "http://www.w3.org/Graphics/SVG/1.1/DTD/svg11.dtd"><svg t="1575194068979" class="icon" viewBox="0 0 1024 1024" version="1.1" xmlns="http://www.w3.org/2000/svg" p-id="8823" xmlns:xlink="http://www.w3.org/1999/xlink" width="128" height="128"><defs><style type="text/css"></style></defs><path d="M702.3 459.9H478.5v79.2h223.9v-79.2z m-340.6-26.5c-35.8 0-64.9 29.6-64.9 66s29.1 66 64.9 66c35.8 0 64.9-29.6 64.9-66s-29-66-64.9-66z m159 211.2H297v79.2h223.8v-79.2z m116.8-26.3c-35.8 0-64.9 29.6-64.9 66.1 0 36.5 29.1 66 64.9 66 35.8 0 64.9-29.6 64.9-66-0.1-36.5-29.1-66.1-64.9-66.1z m0 0M97.3 337.8h787v43.7H141l-43.7-43.7z" p-id="8824" fill="#ffffff"></path><path d="M884.3 206.6v612.1H141V206.6h743.3m-53.1-87.4H194c-53.5 0-96.7 44.1-96.7 98.4v590.2c0 54.3 43.2 98.4 96.7 98.4h637.4c53.4 0 96.7-44 96.7-98.4V217.6c-0.2-54.3-43.4-98.4-96.9-98.4z m0 0" p-id="8825" fill="#ffffff"></path></svg>