<?xml version="1.0" standalone="no"?><!DOCTYPE svg PUBLIC "-//W3C//DTD SVG 1.1//EN" "http://www.w3.org/Graphics/SVG/1.1/DTD/svg11.dtd"><svg t="1575193674320" class="icon" viewBox="0 0 1024 1024" version="1.1" xmlns="http://www.w3.org/2000/svg" p-id="5963" xmlns:xlink="http://www.w3.org/1999/xlink" width="128" height="128"><defs><style type="text/css"></style></defs><path d="M138.6 926c-6.9 0-13.8-1.8-20-5.3-12.7-7.3-20.6-21.1-20.6-35.9v-644c0-14.4 7.6-28 19.7-35.4l159.5-97.2c12.5-7.6 28.2-7.8 40.9-0.5s20.6 21.1 20.6 35.9v643.9c0 14.4-7.6 28-19.7 35.4l-159.5 97.2c-6.4 3.9-13.6 5.9-20.9 5.9z m16-676v606l127.5-77.7v-606L154.6 250z m438.2 663.1c-5.4 0-10.9-1.1-16-3.4l-0.2-0.1L385 824.3c-14.9-6.5-24.5-21.4-24.5-37.9V140.5c0-13.9 6.8-26.8 18.3-34.5 11.4-7.7 25.8-9 38.4-3.5l0.2 0.1L645.8 204c14.9 6.5 24.5 21.4 24.5 37.9V445c0 15.8-9 30.4-23 37.3-61.1 30-100.5 93.8-100.5 162.8 0 36.3 28.7 93.9 80.7 162.2l5.9 7.8v56.7c0 13.9-6.8 26.8-18.3 34.5-6.7 4.5-14.5 6.8-22.3 6.8zM417.2 775.8L576.8 847v-12.3c-23.9-32.1-43.2-62.1-57.2-89.4-19.8-38.5-29.5-71.3-29.5-100.2 0-44.9 12.4-88.7 35.9-126.8 21.7-35 51.8-63.6 87.5-83.1V252.6l-196.4-87.2v610.4z m470-237.6c-11.3 0-22.2-4.8-30.1-13.7-34-38.5-77.6-59.3-126-60-22.1-0.3-40.1-18.8-40.1-41.3V240.8c0-14.3 7.5-27.8 19.6-35.3l155.9-97.3c12.5-7.6 28.2-7.8 40.9-0.5s20.6 21.1 20.6 35.9v353.2c0 17.3-10.3 32.4-26.1 38.6-4.8 1.9-9.8 2.8-14.7 2.8z m12.1-52.2z m-151.7-78.3c26.8 2.2 52.5 9.2 76.7 20.9 16.7 8 32.4 18.2 47 30.3V172.7l-123.7 77.2v157.8z" p-id="5964" fill="#ffffff"></path><path d="M739.1 881.5c0 0.7-143.1-137.8-143.1-218.1 0-51.9 27.3-99.9 71.6-125.9s98.8-26 143.1 0 71.6 73.9 71.6 125.9c-0.1 80.3-143.2 217.4-143.2 218.1z m2.1-178.8c17.4 0 33.5-9.4 42.2-24.8 8.7-15.3 8.7-34.2 0-49.5-8.7-15.3-24.8-24.8-42.2-24.8-26.9 0-48.8 22.2-48.8 49.5 0 27.4 21.8 49.6 48.8 49.6z m0 0" p-id="5965" fill="#ffffff"></path></svg>