<?xml version="1.0" standalone="no"?><!DOCTYPE svg PUBLIC "-//W3C//DTD SVG 1.1//EN" "http://www.w3.org/Graphics/SVG/1.1/DTD/svg11.dtd"><svg t="1575193886666" class="icon" viewBox="0 0 1024 1024" version="1.1" xmlns="http://www.w3.org/2000/svg" p-id="7739" xmlns:xlink="http://www.w3.org/1999/xlink" width="128" height="128"><defs><style type="text/css"></style></defs><path d="M398.6 723.1c0 59.6 50.5 108 112.8 108s112.8-48.4 112.8-108c0-39.8-37.6-111.7-112.8-215.9-75.3 104.2-112.8 176.1-112.8 215.9z m0 0" p-id="7740" fill="#ffffff"></path><path d="M821.4 100.2H201.2c-31.1 0-56.4 26.4-56.4 58.9v706.8c0 32.5 25.3 58.9 56.4 58.9h620.2c31.1 0 56.4-26.4 56.4-58.9V159c0-32.4-25.3-58.8-56.4-58.8zM201.2 865.8V159h620.2l0.1 706.8H201.2z m0 0" p-id="7741" fill="#ffffff"></path><path d="M289.4 416.4v-62h457.9v62H289.4z m156.1-121.7v-62h301.8v62H445.5z m-156.1-33.2" p-id="7742" fill="#ffffff"></path></svg>