<?xml version="1.0" standalone="no"?><!DOCTYPE svg PUBLIC "-//W3C//DTD SVG 1.1//EN" "http://www.w3.org/Graphics/SVG/1.1/DTD/svg11.dtd"><svg t="1575193899896" class="icon" viewBox="0 0 1024 1024" version="1.1" xmlns="http://www.w3.org/2000/svg" p-id="7913" xmlns:xlink="http://www.w3.org/1999/xlink" width="128" height="128"><defs><style type="text/css"></style></defs><path d="M902.7 426.3l-64.5-14.8c-6.5-21.2-14.8-41.3-24.6-60.1l35.1-56c7.4-11.8 5.5-28-4.3-37.9l-77-77c-9.9-9.9-25.9-11.7-37.9-4.3l-56 35.1c-18.8-10-39-18.3-60.2-24.7l-14.8-64.4c-2.7-11.9-13.8-24-29.8-24h-109c-13.9 0-26.8 10.3-29.8 24l-14.8 64.5c-21.2 6.5-41.4 14.8-60.1 24.6l-56.1-35.1c-11.8-7.4-28.1-5.5-37.9 4.3l-77 76.9c-9.9 9.9-11.7 26.1-4.3 37.9l35.2 56c-10 18.7-18.3 38.9-24.6 60.2l-64.5 14.8c-12.3 2.8-22.1 13.5-23.6 26.2l-0.1 0.7V568l0.1 0.7c1.6 12.7 11.4 23.4 23.5 26.2l64.5 14.8c6.5 21.2 14.8 41.3 24.7 60.1l-35.1 56c-7.4 11.8-5.5 28.1 4.3 37.9l77 76.9c9.9 9.9 26.1 11.7 37.9 4.3l56-35.1c18.8 10 39 18.3 60.2 24.7l14.8 64.4c3 13.5 15.7 23.8 29.6 24h109.3c14 0 26.8-10.3 29.8-24l14.8-64.4c15.9-4.8 31.3-10.8 46.1-17.8l60.7 60.7c15 15 32.3 18.2 44.1 18.2 17.4 0 32.3-6.1 44.4-18.2l72.7-72.7 0.8-0.9c11.8-12.7 17.4-28.4 17.2-48 0-9.7-1.8-33.8-18.7-49.6l-58.2-54.9c6.2-13.5 11.4-27.5 15.8-41.7l64.4-14.8c13.5-3 23.7-15.7 24-29.6V456.1c-0.2-13.9-10.4-26.7-24.1-29.8zM599.2 670.5c-7.9-7.9-20.1-10.9-31-7.4l-0.2 0.1c-15.5 5.2-32.7 7.6-54.1 7.6-43.8 0-85.6-16.7-114.8-45.8-29.1-29.1-45.2-69.4-45.5-113.5l75 75c6.8 7 17.1 10.2 26.8 8.7L555.7 577c12.4-2.3 22.5-12.5 24.8-24.8l18.2-99.9c1.8-9.9-1.5-20.3-8.6-27.3l-74.7-74.6c2.6-0.1 5.1-0.1 7.7-0.1 39.9 0 75.5 15.3 105.8 45.5 28.3 28.3 45 70.2 45.5 114.9 0.3 20.3-2.1 37.3-7.6 53.5v0.1c-3.7 11.2-0.4 24 8.2 31.9l161.4 152.6c0.7 1.8 1.7 5.1 1.7 7.2-0.1 1.5-1.2 5.4-2 7.5l-69.7 69.7c-0.7 0.4-1.8 0.7-2.6 1-0.4-0.1-0.7-0.3-0.9-0.4L599.2 670.5z m185.5-93.9c-2.6 10.5-5.7 20.7-9.3 30.4l-45.5-43.1c4.1-17.9 6-35.9 5.8-53.7-0.7-60.5-23.9-118-63.6-157.8-20.7-20.7-44.2-36.6-70-47.4-25.1-10.5-51.7-15.9-79-15.9-20.6 0-51.5 1-81.7 10.2-9.8 3-17.4 11.5-20.1 22.3-2.7 10.9 0.2 21.7 7.6 28.9l106.7 106.7-11.4 63.4-63.1 11.5L353.8 425c-7.2-7.2-17.8-10-28.5-7.4-10.7 2.5-19 9.8-22.3 19.4-7.1 21.3-10.6 45.3-10.6 73.5 0 60.9 22.6 117 63.6 157.9 20.9 20.9 45.9 37 74.1 48 26.6 10.3 54.8 15.5 83.9 15.5 17.4 0 35.4-2.1 53.8-6.4l45.1 44.8c-11.2 4.4-22 7.8-32.8 10.4h-0.1c-10.9 2.8-19.9 11.9-22.4 22.9l-13.4 57.7h-60.5l-13.4-57.6c-2.5-11.2-11.4-20.2-22.5-23-29.1-7.1-56.2-20.6-78.9-32.9-7.7-4.2-18.2-7.8-31.9 0.6L286.7 780l-42.6-42.5 31.4-50.4c6.7-10.7 6.8-21.3 0.5-32.3-15.4-26.3-26.4-52.8-32.8-78.5-2.7-10.9-11.9-19.9-22.9-22.4l-57.7-13.4v-60.2l57.6-13.4c11.2-2.5 20.2-11.3 23-22.5 6-24.8 16.6-50.1 32.2-77.5l0.1-0.1c2.4-4.3 9.8-17.5 0.1-32.9l-31.4-50.4 42.6-42.5 50.4 31.4c10.7 6.7 21.3 6.8 32.3 0.5 26.3-15.4 52.7-26.4 78.6-32.7 10.9-2.8 19.9-11.9 22.4-22.9l13.4-57.7h60.3l13.4 57.6c2.5 11.2 11.4 20.1 22.5 23 29.1 7.1 56.2 20.7 78.9 32.9 7.7 4.2 18.2 7.8 31.9-0.6l50.4-31.4 42.6 42.5-31.5 50.4c-6.6 10.3-6.7 21.4-0.6 32.2l0.1 0.1c15.4 26.3 26.4 52.8 32.8 78.5 2.8 10.9 11.9 19.9 22.9 22.4l57.7 13.4v60.2l-57.7 13.5c-11.1 2.4-20.1 11.2-22.9 22.3z m0 0" p-id="7914" fill="#ffffff"></path></svg>