<?xml version="1.0" standalone="no"?><!DOCTYPE svg PUBLIC "-//W3C//DTD SVG 1.1//EN" "http://www.w3.org/Graphics/SVG/1.1/DTD/svg11.dtd"><svg t="1575193909980" class="icon" viewBox="0 0 1024 1024" version="1.1" xmlns="http://www.w3.org/2000/svg" p-id="8085" xmlns:xlink="http://www.w3.org/1999/xlink" width="128" height="128"><defs><style type="text/css"></style></defs><path d="M834.7 722.3c0-82.3-69.7-149.1-155.1-148.5-83.7 0.6-152.1 66.5-152.7 147.3-0.6 82.4 68.6 149.6 153.9 149.6 28.5 0 55.1-7.5 78-20.5l36.1 36.4c10.2 10.4 27.3 10.7 37.9 0.8 10.7-9.8 11.1-26.3 0.9-36.6l-34-34.3c21.8-25.6 35-58.4 35-94.2z m-153.9 96.6c-55.2 0-100.2-43.3-100.2-96.7s44.9-96.7 100.2-96.7c55.2 0 100.2 43.3 100.2 96.7s-45 96.7-100.2 96.7z m46.8-377.6c0-17.7-14.1-32.1-31.4-32.1H306.9c-17.3 0-31.4 14.4-31.4 32.1s14.1 32.1 31.4 32.1h389.4c17 0 31.1-14.4 31.3-32.1z m-421.2 90c-17.3 0-31.4 14.4-31.4 32.1 0 17.7 14.1 32.1 31.4 32.1h153.7c17.2 0 31.2-14.4 31.4-32.1 0-17.7-14.1-32.1-31.4-32.1H306.4z m389.9-254.2H306.9c-17.3 0-31.4 14.4-31.4 32.1 0 17.7 14.1 32.1 31.4 32.1h389.4c17.2 0 31.2-14.4 31.4-32.1-0.1-17.7-14.2-32.1-31.4-32.1z m0 0" p-id="8086" fill="#ffffff"></path><path d="M521.5 864.6H207s-0.1-0.1-0.1 0V159s0.1-0.1 0-0.1h608.8s0.1 0.1 0.1 0v369.4c0 17.2 14.4 31.1 32.2 31.1 17.8 0 32.2-13.9 32.2-31.1V158.9c0-34.3-28.9-62.2-64.4-62.2H206.9c-35.5 0-64.4 27.9-64.4 62.2v705.6c0 34.3 28.9 62.2 64.4 62.2h314.6c17.8 0 32.2-13.9 32.2-31.1 0-17.1-14.3-31-32.2-31z m0 0" p-id="8087" fill="#ffffff"></path></svg>