<?xml version="1.0" standalone="no"?><!DOCTYPE svg PUBLIC "-//W3C//DTD SVG 1.1//EN" "http://www.w3.org/Graphics/SVG/1.1/DTD/svg11.dtd"><svg t="1575193874768" class="icon" viewBox="0 0 1024 1024" version="1.1" xmlns="http://www.w3.org/2000/svg" p-id="7567" xmlns:xlink="http://www.w3.org/1999/xlink" width="128" height="128"><defs><style type="text/css"></style></defs><path d="M877.8 587.4c-55.3-41.3-96.8-148-96.8-268.5 0-92.9-72.6-179-179.8-210-86.5-24.1-172.9 0-176.4 0-107.2 34.4-179.8 117-179.8 210 0 120.5-38 227.2-96.8 268.5-27.7 24.1-48.4 62-48.4 96.4 0 37.9 34.6 72.3 72.6 72.3H857c38 0 72.6-34.4 72.6-72.3 0-34.4-20.7-72.3-51.8-96.4z m-27.7 93H175.7c0-10.3 6.9-20.7 17.3-27.5 79.5-51.6 138.3-192.8 138.3-344.2 0-72.3 79.5-130.8 183.3-130.8S697.9 236.3 697.9 312c0 148 55.3 289.2 138.3 344.2 3.5 3.5 10.4 10.4 13.9 24.2zM580.4 821.5c-6.9 20.7-38 31-65.7 31s-58.8-10.3-65.7-31v-3.4h-76.1v3.4c13.8 68.9 83 106.7 141.8 106.7s124.5-37.9 141.8-106.7v-3.4l-76.1 3.4z m0 0" p-id="7568" fill="#ffffff"></path></svg>