<?xml version="1.0" standalone="no"?><!DOCTYPE svg PUBLIC "-//W3C//DTD SVG 1.1//EN" "http://www.w3.org/Graphics/SVG/1.1/DTD/svg11.dtd"><svg t="1575193742383" class="icon" viewBox="0 0 1024 1024" version="1.1" xmlns="http://www.w3.org/2000/svg" p-id="6655" xmlns:xlink="http://www.w3.org/1999/xlink" width="128" height="128"><defs><style type="text/css"></style></defs><path d="M694.6 496.3c0-98.4-82.6-175.4-182.6-175.4s-182.6 81.3-182.6 175.4C329.4 594.7 412 676 512 676s182.6-81.3 182.6-179.7z m-308.7 0c0-68.5 56.5-124.1 126.1-124.1s126.1 55.6 126.1 124.1S581.6 620.4 512 620.4s-126.1-55.7-126.1-124.1z m0 0" p-id="6656" fill="#ffffff"></path><path d="M746.8 881.4h-65.2l-47.8-119.8c134.8-47.1 226.1-175.4 226.1-320.9 0-188.3-156.5-342.3-347.9-342.3s-347.9 154-347.9 342.3c0 145.5 91.3 269.6 221.8 316.6l-47.8 119.8h-47.8c-13 0-26.1 12.8-26.1 25.7 0 12.8 13 25.7 26.1 25.7h456.6c13 0 26.1-12.8 26.1-25.7-0.1-8.6-13.1-21.4-26.2-21.4zM216.3 440.7c0-158.3 130.5-291 295.7-291s295.7 128.4 295.7 291S677.2 731.6 512 731.6 216.3 603.2 216.3 440.7z m178.3 440.7l39.1-102.7v-4.3c26.1 4.3 47.8 8.6 73.9 8.6 21.7 0 47.8-4.3 69.6-8.6v4.3l39.1 102.7H394.6z m0 0" p-id="6657" fill="#ffffff"></path><path d="M468.5 252.4c0 23.6 19.5 42.8 43.5 42.8s43.5-19.2 43.5-42.8c0-15.3-8.3-29.4-21.7-37.1-13.5-7.6-30-7.6-43.5 0-13.5 7.7-21.8 21.8-21.8 37.1z m0 0" p-id="6658" fill="#ffffff"></path></svg>