<?xml version="1.0" standalone="no"?><!DOCTYPE svg PUBLIC "-//W3C//DTD SVG 1.1//EN" "http://www.w3.org/Graphics/SVG/1.1/DTD/svg11.dtd"><svg t="1575193963923" class="icon" viewBox="0 0 1024 1024" version="1.1" xmlns="http://www.w3.org/2000/svg" p-id="8478" xmlns:xlink="http://www.w3.org/1999/xlink" width="128" height="128"><defs><style type="text/css"></style></defs><path d="M127.7 298.8H286c16.6 0 30-13.6 30-30.3 0-16.7-13.5-30.3-30-30.3H127.7c-16.6 0-30 13.6-30 30.3 0 16.7 13.5 30.3 30 30.3zM922.2 804.3L785.4 614.1c41.5-38.5 68.9-89.5 77.9-146.5 10.7-67.1-5.2-134.3-44.8-189.4-23.9-33.1-55.6-60.2-91.7-78.4-34.9-17.6-74-26.8-113.1-26.8-53.5 0-104.6 16.7-147.7 48.4-54.6 39.8-90.5 98.6-101.2 165.7-10.7 67.1 5.2 134.3 44.8 189.4 23.8 33.2 55.5 60.3 91.5 78.4 34.9 17.6 74.1 26.8 113.2 26.8 43.3 0 85.1-11 122.3-32l136.7 190.1c6 8.2 15.1 12.5 24.4 12.5 6.1 0 12.2-1.8 17.6-5.7 6.6-4.8 10.9-11.9 12.2-19.9 1.4-7.9-0.6-15.9-5.3-22.4zM458.2 541c-30.1-41.7-42.2-92.9-34.1-144.1 8.1-51.1 35.5-95.9 77.2-126.2 32.7-24.2 71.6-37.1 112.5-37.1 29.9 0 59.7 7.1 86.3 20.4 27.7 13.8 51.1 33.9 69.7 59.8 30.1 41.8 42.2 93 34 144.2-8.2 51.2-35.5 96.1-77 126.4-33 24.1-71.9 36.9-112.5 36.9-29.9 0-59.7-7.1-86.3-20.4-27.8-14-51.2-34.1-69.8-59.9zM127.7 499.1h106.9c16.6 0 30-13.6 30-30.3 0-16.7-13.5-30.3-30-30.3H127.7c-16.6 0-30 13.6-30 30.3 0 16.7 13.5 30.3 30 30.3zM465.6 778.8H127.7c-16.6 0-30 13.6-30 30.3 0 16.7 13.5 30.3 30 30.3h337.8c16.6 0 30-13.6 30-30.3 0.1-16.7-13.4-30.3-29.9-30.3zM127.7 671.4H286c16.6 0 30-13.6 30-30.3 0-16.7-13.5-30.3-30-30.3H127.7c-16.6 0-30 13.6-30 30.3 0 16.7 13.5 30.3 30 30.3z" p-id="8479" fill="#ffffff"></path></svg>