<?xml version="1.0" standalone="no"?><!DOCTYPE svg PUBLIC "-//W3C//DTD SVG 1.1//EN" "http://www.w3.org/Graphics/SVG/1.1/DTD/svg11.dtd"><svg t="1575193974823" class="icon" viewBox="0 0 1024 1024" version="1.1" xmlns="http://www.w3.org/2000/svg" p-id="8650" xmlns:xlink="http://www.w3.org/1999/xlink" width="128" height="128"><defs><style type="text/css"></style></defs><path d="M441.6 822.3l-22.6 9.6v-557l188.5-80.4V603l34.3 17.1 12.8-12.8c8.7-8.7 18.1-16.5 28.3-23.5v-399l169.7 39.1v335.3c10 3 19.7 6.8 29 11.3l46.4 23.3V163.9L641.7 98.2l-264 112.7-279.1-64.2V862l286.2 65.7 64.8-27.4c-11.9-24.2-14.8-51.9-8-78z m-98 18.8L174 802.2V241.1l169.7 39v561z m0 0" p-id="8651" fill="#ffffff"></path><path d="M647.7 776.7c-18.9 0-37.4-4.4-54.3-12.8l-59.2-29.5c-18.6-9.3-26.2-31.8-16.9-50.4 9.3-18.6 32-26.1 50.6-16.8l58.4 29.5c17.7 8.8 39 5.3 53-8.6l27.9-27.8c36.9-36.8 93.3-46 140.1-22.7l59.2 29.5c18.6 9.3 26.2 31.8 16.9 50.4-9.3 18.6-32 26.1-50.6 16.8L814.9 705c-17.7-8.7-39-5.3-53 8.6L734 741.4c-22.9 22.8-54 35.5-86.3 35.3z m0 150.2c-18.9 0-37.4-4.4-54.3-12.8l-59.2-29.5c-18.6-9.3-26.2-31.8-16.9-50.4 9.3-18.6 32-26.1 50.6-16.8l58.4 29.5c17.7 8.8 39 5.3 53-8.6l27.9-27.8c36.9-36.8 93.3-46 140.1-22.7l59.2 29.5c18.6 9.3 26.2 31.8 16.9 50.4-9.3 18.6-32 26.1-50.6 16.8l-57.9-29.3c-17.7-8.7-39-5.3-53 8.6L734 891.6c-22.9 22.8-54 35.5-86.3 35.3z m0 0" p-id="8652" fill="#ffffff"></path></svg>