<?xml version="1.0" standalone="no"?><!DOCTYPE svg PUBLIC "-//W3C//DTD SVG 1.1//EN" "http://www.w3.org/Graphics/SVG/1.1/DTD/svg11.dtd"><svg t="1564630136959" class="icon" viewBox="0 0 1024 1024" version="1.1" xmlns="http://www.w3.org/2000/svg" p-id="7338" xmlns:xlink="http://www.w3.org/1999/xlink" width="128" height="128"><defs><style type="text/css"></style></defs><path d="M659.7 331.2c-80.9-80.9-211.9-80.9-292.8 0s-80.9 211.9 0 292.8l146.4 146.4L659.6 624c80.9-80.9 80.9-211.9 0.1-292.8z m-41.9 250.9L513.2 686.7 408.6 582.1c-57.8-57.8-57.8-151.3 0-209.1 57.8-57.8 151.3-57.8 209.1 0 57.9 57.8 57.9 151.4 0.1 209.1zM471.5 435.8c-23.1 23.1-23.1 60.6 0 83.6 23.1 23.1 60.6 23.1 83.6 0 23.1-23.1 23.1-60.6 0-83.6-23.1-23.1-60.6-23.1-83.6 0zM513.2 98c-228.7 0-414 185.4-414 414 0 228.7 185.4 414 414 414 16.4 0 29.5-13.3 29.5-29.5 0-16.4-13.3-29.5-29.5-29.5-196 0-354.8-158.9-354.8-354.8s158.9-354.8 354.8-354.8c196 0 354.8 158.9 354.8 354.8 0 83.9-29.3 160.8-77.9 221.5l-23.8-41.3c-8.2-14.1-26.3-19-40.4-10.8-14.1 8.2-19 26.3-10.8 40.4l44.4 76.9c0.7 1.2 1.8 1.9 2.5 2.8 0.8 1.1 1.2 2.3 2.1 3.2 0.5 0.5 1.2 0.7 1.8 1.2 1.5 1.3 3.1 2.3 4.9 3.2 1.7 0.9 3.3 1.9 5.2 2.5 1.7 0.6 3.3 0.7 5.1 0.9 2 0.2 3.9 0.6 5.9 0.5 1.8-0.1 3.4-0.6 5.2-0.9 2-0.5 3.9-1.1 5.8-1.9 0.6-0.4 1.3-0.2 1.9-0.6 1.2-0.7 1.9-1.8 2.8-2.6 1.1-0.8 2.3-1.2 3.2-2.1 75-75 121.2-178.4 121.2-292.7 0.2-229-185.2-414.4-413.9-414.4z m0 0" p-id="7339" fill="#ffffff"></path></svg>