<?xml version="1.0" encoding="utf-8"?>
<!-- Generator: Adobe Illustrator 23.0.3, SVG Export Plug-In . SVG Version: 6.00 Build 0)  -->
<svg version="1.1" id="图层_1" xmlns="http://www.w3.org/2000/svg" xmlns:xlink="http://www.w3.org/1999/xlink" x="0px" y="0px"
	 viewBox="0 0 1024 1024" style="enable-background:new 0 0 1024 1024;" xml:space="preserve">
<style type="text/css">
	.st0{fill-rule:evenodd;clip-rule:evenodd;fill:#F5A623;}
	.st1{fill-rule:evenodd;clip-rule:evenodd;fill:#FFFFFF;}
	.st2{fill-rule:evenodd;clip-rule:evenodd;fill:#23C6F5;}
	.st3{fill-rule:evenodd;clip-rule:evenodd;fill:#95F523;}
	.st4{fill-rule:evenodd;clip-rule:evenodd;fill:#B723F5;}
	.st5{fill-rule:evenodd;clip-rule:evenodd;fill:#2381F5;}
	.st6{fill-rule:evenodd;clip-rule:evenodd;fill:#F57C23;}
</style>
<g>
	<circle class="st5" cx="511.92" cy="512.28" r="447.44"/>
	<g>
		<g>
			<path class="st1" d="M635.7,244.39l39.7,33.71l-107.13,91.6l-175-40.52L219.14,491.98l176.19-115.47l179.42,48.68l138.42-110.86
				l41.11,34.76l0.86-114.95L635.7,244.39z M445.49,696.64c-9.71-22.3-14.67-45.96-14.67-70.24c0-24.29,4.96-47.95,14.67-70.25
				c9.39-21.46,22.77-40.83,39.81-57.37c8.63-8.38,17.91-15.81,27.94-22.3l-99.48-25.65v319.3h90.52
				c-6.69-4.92-13.06-10.26-18.99-16.12C468.26,737.47,454.77,718.21,445.49,696.64z M236.83,770.13h147.49V456.07l-147.49,97.36
				V770.13z M738.31,371.69l-95.59,76c15.97,2.2,31.61,6.28,46.5,12.46c18.02,7.33,34.42,17.27,49.09,29.63V371.69z M716.08,694.38
				c14-19.21,22.23-42.66,22.23-67.99c0-65.12-54.38-117.88-121.48-117.88S495.34,561.28,495.34,626.4
				c0,65.12,54.38,117.88,121.48,117.88c21.91,0,42.46-5.63,60.2-15.47l37.27,36.16c2.93,2.85,7.7,2.85,10.63,0l26.64-25.84
				c2.94-2.85,2.94-7.47,0-10.32L716.08,694.38z M616.82,701.27c-42.63,0-77.17-33.52-77.17-74.88c0-41.36,34.54-74.88,77.17-74.88
				c42.63,0,77.17,33.52,77.17,74.88C693.99,667.76,659.45,701.27,616.82,701.27z"/>
		</g>
	</g>
</g>
</svg>
