<?xml version="1.0" standalone="no"?><!DOCTYPE svg PUBLIC "-//W3C//DTD SVG 1.1//EN" "http://www.w3.org/Graphics/SVG/1.1/DTD/svg11.dtd"><svg t="1631609552255" class="icon" viewBox="0 0 1024 1024" version="1.1" xmlns="http://www.w3.org/2000/svg" p-id="7255" xmlns:xlink="http://www.w3.org/1999/xlink" width="16" height="16"><defs><style type="text/css"></style></defs><path d="M748.94 615.16c8.88 0 14.8-2.96 20.73-8.88 11.84-11.85 11.84-29.61 0-41.45l-59.21-59.21c-11.84-11.84-29.6-11.84-41.44 0l-38.49 38.48-38.49-38.48c-11.84-11.84-29.6-11.84-41.44 0l-38.49 38.48-38.49-38.48c-11.84-11.84-29.6-11.84-41.44 0l-38.49 38.48-38.49-38.48c-11.84-11.84-29.6-11.84-41.44 0l-59.21 59.21c-11.85 11.84-11.85 29.6 0 41.45 11.84 11.84 29.6 11.84 41.44 0l38.49-38.49 38.49 38.49c11.84 11.84 29.6 11.84 41.44 0l38.49-38.49 38.49 38.49c11.84 11.84 29.6 11.84 41.44 0l38.49-38.49 38.49 38.49c11.84 11.84 29.6 11.84 41.44 0l38.49-38.49 38.49 38.49c5.91 5.92 11.83 8.88 20.71 8.88zM663.74 195.78L856.3 398.75c11.04 11.64 29.4 12.2 41.13 1.25l1.6-1.49c11.9-11.11 12.43-29.79 1.18-41.55L673.18 119.6c-7.2-7.52-19.14-7.77-26.64-0.55l-124.82 120.2c-11.78 11.34-11.96 30.14-0.39 41.71 11.31 11.3 29.6 11.42 41.05 0.27l87.97-85.71c3.75-3.67 9.78-3.55 13.39 0.26zM669.01 653.65l-38.49 38.49-38.49-38.49c-11.84-11.84-29.6-11.84-41.44 0l-38.49 38.49-38.49-38.49c-11.84-11.84-29.6-11.84-41.44 0l-38.49 38.49-38.49-38.49c-11.84-11.84-29.6-11.84-41.44 0-11.85 11.84-11.85 29.61 0 41.45l59.21 59.21c11.84 11.84 29.6 11.84 41.44 0l38.49-38.49 38.49 38.49c11.84 11.84 29.6 11.84 41.44 0l38.49-38.49 38.49 38.49c5.92 5.92 14.8 8.88 20.72 8.88 5.92 0 14.8-2.96 20.72-8.88l59.21-59.21c11.85-11.84 11.85-29.6 0-41.45-11.83-11.85-29.6-11.85-41.44 0z" p-id="7256" fill="#ffffff"></path><path d="M895.75 496.74c-15.56 0-28.25 12.09-29.46 27.6C852.09 706.97 698.21 852 512.11 852S172.13 706.97 157.93 524.35c-1.21-15.52-13.89-27.6-29.46-27.6-17.14 0-30.92 14.55-29.62 31.63 16.3 213.33 195.94 382.83 413.26 382.83s396.96-169.5 413.26-382.83c1.3-17.09-12.48-31.64-29.62-31.64zM364.68 243.17l151.18 161.26c11.02 11.75 29.47 12.37 41.25 1.38l1.56-1.46c11.87-11.07 12.43-29.69 1.26-41.47l-185.9-195.95c-7.13-7.52-19-7.85-26.54-0.75L127.7 373.19c-11.71 11.03-12.3 29.45-1.33 41.2l1.41 1.51c11.11 11.9 29.81 12.43 41.57 1.16L351.29 242.8c3.78-3.62 9.8-3.46 13.39 0.37z" p-id="7257" fill="#ffffff"></path></svg>