<?xml version="1.0" standalone="no"?><!DOCTYPE svg PUBLIC "-//W3C//DTD SVG 1.1//EN" "http://www.w3.org/Graphics/SVG/1.1/DTD/svg11.dtd"><svg t="1632981528882" class="icon" viewBox="0 0 1024 1024" version="1.1" xmlns="http://www.w3.org/2000/svg" p-id="3465" xmlns:xlink="http://www.w3.org/1999/xlink" width="200" height="200"><defs><style type="text/css"></style></defs><path d="M894.1 256.53H609.02c-17.52 0-31.68-14.19-31.68-31.68 0-17.48 14.16-31.67 31.68-31.67H894.1c17.52 0 31.68 14.19 31.68 31.67 0 17.49-14.16 31.68-31.68 31.68z m0 158.38H609.02c-17.52 0-31.68-14.19-31.68-31.68 0-17.48 14.16-31.67 31.68-31.67H894.1c17.52 0 31.68 14.19 31.68 31.67 0 17.49-14.16 31.68-31.68 31.68z m0 253.41H609.02c-17.52 0-31.68-14.16-31.68-31.68s14.16-31.67 31.68-31.67H894.1c17.52 0 31.68 14.16 31.68 31.67s-14.16 31.68-31.68 31.68z m0 158.38H609.02c-17.52 0-31.68-14.16-31.68-31.68s14.16-31.67 31.68-31.67H894.1c17.52 0 31.68 14.16 31.68 31.67s-14.16 31.68-31.68 31.68zM387.28 478.26H197.23c-52.39 0-95.03-42.64-95.03-95.03V193.18c0-52.39 42.64-95.03 95.03-95.03h190.05c52.39 0 95.03 42.64 95.03 95.03v190.05c0 52.4-42.63 95.03-95.03 95.03zM197.23 161.5c-17.45 0-31.68 14.22-31.68 31.68v190.05c0 17.45 14.22 31.68 31.68 31.68h190.05c17.45 0 31.68-14.22 31.68-31.68V193.18c0-17.45-14.22-31.68-31.68-31.68H197.23z m190.05 760.23H197.23c-52.39 0-95.03-42.64-95.03-95.03V636.65c0-52.39 42.64-95.03 95.03-95.03h190.05c52.39 0 95.03 42.64 95.03 95.03V826.7c0 52.39-42.63 95.03-95.03 95.03zM197.23 604.97c-17.45 0-31.68 14.19-31.68 31.67V826.7c0 17.48 14.22 31.67 31.68 31.67h190.05c17.45 0 31.68-14.19 31.68-31.67V636.65c0-17.48-14.22-31.67-31.68-31.67H197.23z m0 0" p-id="3466" fill="#ffffff"></path></svg>