<?xml version="1.0" standalone="no"?><!DOCTYPE svg PUBLIC "-//W3C//DTD SVG 1.1//EN" "http://www.w3.org/Graphics/SVG/1.1/DTD/svg11.dtd"><svg t="1632981475455" class="icon" viewBox="0 0 1024 1024" version="1.1" xmlns="http://www.w3.org/2000/svg" p-id="2917" xmlns:xlink="http://www.w3.org/1999/xlink" width="200" height="200"><defs><style type="text/css"></style></defs><path d="M879.01 483.03h-39.65c-14.13-167.98-147.4-301.26-315.39-315.39v-38.3c0.02-15.66-12.29-28.56-27.94-29.29-16.17 0-29.29 13.11-29.29 29.29V169c-167.98 14.13-301.26 147.4-315.39 315.39h-38.3a29.283 29.283 0 0 0-25.36 43.93 29.283 29.283 0 0 0 25.36 14.64h39.65c14.13 167.98 147.41 301.25 315.39 315.39V898c0 16.17 13.11 29.29 29.29 29.29 16.17 0 29.29-13.11 29.29-29.29v-39.65c167.98-14.13 301.25-147.4 315.39-315.39h39.65A29.293 29.293 0 0 0 911 513.67c0.43-8.49-2.85-16.75-8.99-22.63a29.322 29.322 0 0 0-23-8.01z m-98.22 0H657.34c-12.22-67.2-64.82-119.79-132.01-132.01V227.57c134.71 14.32 241.14 120.75 255.46 255.46z m-315.39 0h-70.74a107.223 107.223 0 0 1 72.09-72.09l-1.35 72.09z m0 58.58v72.09a107.242 107.242 0 0 1-72.09-72.09h72.09z m58.57 0h72.09a107.223 107.223 0 0 1-72.09 72.09v-72.09z m0-58.58v-72.09a107.242 107.242 0 0 1 72.09 72.09h-72.09z m-57.22-255.46v123.45c-67.2 12.22-119.79 64.81-132.01 132.01H211.29c14.31-134.71 120.75-241.14 255.46-255.46zM211.29 542.96h123.45c12.22 67.2 64.82 119.79 132.01 132.01v123.45C331.58 783.99 225.01 676.84 211.29 541.6v1.36z m315.39 255.46v-124.8c67.2-12.22 119.79-64.82 132.01-132.01h123.45c-14.43 135.17-121.58 241.74-256.82 255.47l1.36 1.34z m0 0" p-id="2918" fill="#ffffff"></path></svg>