<?xml version="1.0" standalone="no"?><!DOCTYPE svg PUBLIC "-//W3C//DTD SVG 1.1//EN" "http://www.w3.org/Graphics/SVG/1.1/DTD/svg11.dtd"><svg t="1632981916176" class="icon" viewBox="0 0 1024 1024" version="1.1" xmlns="http://www.w3.org/2000/svg" p-id="8590" xmlns:xlink="http://www.w3.org/1999/xlink" width="200" height="200"><defs><style type="text/css"></style></defs><path d="M300.07 411.1H339c19.47 0 35.26 15.79 35.26 35.26v0.01c0 19.47-15.79 35.26-35.26 35.26h-38.92c-19.47 0-35.26-15.79-35.26-35.26v-0.01c-0.01-19.47 15.78-35.26 35.25-35.26zM300.07 567.56H339c19.47 0 35.26 15.79 35.26 35.26s-15.79 35.26-35.26 35.26h-38.92c-19.47 0-35.26-15.79-35.26-35.26-0.01-19.47 15.78-35.26 35.25-35.26z" p-id="8591" fill="#ffffff"></path><path d="M806.25 250.6V125.49c0-15.08-12.22-27.3-27.3-27.3H135.66c-15.08 0-27.3 12.22-27.3 27.3v719.98c0 15.08 12.22 27.3 27.3 27.3H378.3c19.47 0 35.26-15.79 35.26-35.26v-0.01c0-19.47-15.79-35.26-35.26-35.26H178.88V168.71h556.85v81.89c0 19.47 15.79 35.26 35.26 35.26h0.01c19.46 0 35.25-15.79 35.25-35.26z" p-id="8592" fill="#ffffff"></path><path d="M300.07 254.65h314.45c19.47 0 35.26 15.79 35.26 35.26s-15.79 35.26-35.26 35.26H300.07c-19.47 0-35.26-15.79-35.26-35.26 0-19.48 15.79-35.26 35.26-35.26zM686.4 383.36c-98.57-0.09-186.14 62.95-217.34 156.45-33.11 87.82-7.51 186.97 63.97 247.79 48.94 46.25 100.19 93.64 154.14 140.66 51.26-47.78 101.74-94.8 149.52-140.66 71.89-60.53 97.96-159.73 65.13-247.79-30.88-92.91-117.51-155.83-215.42-156.45z m102.12 349.9l-99.81 94.03-2.32 2.31-3.85-2.31c-34.3-31.99-67.05-63.59-99.03-94.03-50.94-42.83-69.67-112.94-46.88-175.47s82.25-104.14 148.8-104.14c66.56 0 126.01 41.61 148.81 104.14 22.79 62.53 4.06 132.64-46.88 175.47h1.16z m0 0" p-id="8593" fill="#ffffff"></path><path d="M686.4 557.93c-22.15-0.15-42.17 13.16-50.6 33.64-8.44 20.48-3.59 44.03 12.24 59.52 15.83 15.49 39.48 19.82 59.78 10.95 20.29-8.87 33.17-29.18 32.54-51.32-0.84-29.25-24.69-52.6-53.96-52.79z m0 0" p-id="8594" fill="#ffffff"></path></svg>