<?xml version="1.0" standalone="no"?><!DOCTYPE svg PUBLIC "-//W3C//DTD SVG 1.1//EN" "http://www.w3.org/Graphics/SVG/1.1/DTD/svg11.dtd"><svg t="1632981896898" class="icon" viewBox="0 0 1024 1024" version="1.1" xmlns="http://www.w3.org/2000/svg" p-id="8425" xmlns:xlink="http://www.w3.org/1999/xlink" width="200" height="200"><defs><style type="text/css"></style></defs><path d="M829.77 928.22H196.23c-54.03 0-98.23-44.2-98.23-98.23V196.45c0-54.03 44.2-98.23 98.23-98.23h633.54c54.03 0 98.22 44.2 98.22 98.23v633.54c0 54.03-44.19 98.23-98.22 98.23zM196.23 163.71c-18.01 0-32.74 14.73-32.74 32.74v633.54c0 18.01 14.73 32.74 32.74 32.74h633.54c18.01 0 32.74-14.73 32.74-32.74V196.45c0-18.01-14.73-32.74-32.74-32.74H196.23z m0 0" p-id="8426" fill="#ffffff"></path><path d="M402.79 811.99h-90.87c-36.01 0-65.48-29.47-65.48-65.49V279.95c0-36.02 29.47-65.49 65.48-65.49h90.87c36.01 0 65.48 29.47 65.48 65.49V746.5c0 36.01-29.47 65.49-65.48 65.49z m-90.87-532.04V746.5h90.87V279.95h-90.87z m400.53 532.04h-90.87c-36.01 0-65.48-29.47-65.48-65.49V279.95c0-36.02 29.47-65.49 65.48-65.49h90.87c36.01 0 65.48 29.47 65.48 65.49V746.5c0 36.01-29.47 65.49-65.48 65.49z m-90.88-532.04V746.5h90.87V279.95h-90.87z m0 0" p-id="8427" fill="#ffffff"></path></svg>