<?xml version="1.0" standalone="no"?><!DOCTYPE svg PUBLIC "-//W3C//DTD SVG 1.1//EN" "http://www.w3.org/Graphics/SVG/1.1/DTD/svg11.dtd"><svg t="1632981540937" class="icon" viewBox="0 0 1024 1024" version="1.1" xmlns="http://www.w3.org/2000/svg" p-id="3629" xmlns:xlink="http://www.w3.org/1999/xlink" width="200" height="200"><defs><style type="text/css"></style></defs><path d="M503.39 504.99c41.05-32.67 67.45-82.9 67.45-139.32 0-98.21-79.89-178.11-178.11-178.11s-178.11 79.89-178.11 178.11c0 57.02 27.05 107.73 68.85 140.36C174.85 550.19 98 656.73 98 781v30.87c0 16.4 13.28 29.69 29.69 29.69h534.33c16.4 0 29.69-13.28 29.69-29.69V781c0-125.34-78.22-232.54-188.32-276.01zM274 365.68c0-65.48 53.25-118.74 118.74-118.74s118.74 53.26 118.74 118.74c0 64.64-51.98 117.17-116.3 118.51-0.11 0-0.21-0.03-0.33-0.03-1.04 0-2.08 0.15-3.13 0.15C326.73 483.75 274 430.82 274 365.68zM157.38 782.2v-1.19c0-129.73 104.59-235.3 233.85-237.28 0.49 0 0.99 0.06 1.51 0.06 1.22 0 2.4-0.17 3.62-0.17 130.25 0.81 235.97 106.97 235.97 237.39l-474.95 1.19z m533.14-474.96h207.8c16.39 0 29.68 13.29 29.68 29.68v0.01c0 16.39-13.29 29.68-29.68 29.68h-207.8c-16.39 0-29.68-13.29-29.68-29.68v-0.01c0-16.39 13.28-29.68 29.68-29.68z m0 148.42h207.8c16.39 0 29.68 13.29 29.68 29.68s-13.29 29.68-29.68 29.68h-207.8c-16.39 0-29.68-13.29-29.68-29.68s13.28-29.68 29.68-29.68z m90.24 148.44h117.56c16.39 0 29.68 13.29 29.68 29.68s-13.29 29.68-29.68 29.68H780.76c-16.39 0-29.68-13.29-29.68-29.68-0.01-16.4 13.28-29.68 29.68-29.68z" p-id="3630" fill="#ffffff"></path></svg>