<?xml version="1.0" standalone="no"?><!DOCTYPE svg PUBLIC "-//W3C//DTD SVG 1.1//EN" "http://www.w3.org/Graphics/SVG/1.1/DTD/svg11.dtd"><svg t="1632981499095" class="icon" viewBox="0 0 1024 1024" version="1.1" xmlns="http://www.w3.org/2000/svg" p-id="3081" xmlns:xlink="http://www.w3.org/1999/xlink" width="200" height="200"><defs><style type="text/css"></style></defs><path d="M774.29 571.67c57.21 0 103.74 46.17 103.85 103.22-0.07 34.04-16.97 65.84-45.13 84.97-17.27 11.88-37.76 18.15-58.72 18.15H305.42c-26.23-0.06-47.56 21.13-47.67 47.36 0 26.09 21.42 47.31 47.72 47.31h267.29c15.39 0 27.9 12.41 28.01 27.8a27.656 27.656 0 0 1-28.01 27.81H305.42c-57.11 0.11-103.54-46.01-103.79-103.12 0-56.85 46.58-103.07 103.79-103.07h468.87c9.57-0.03 18.92-2.94 26.82-8.35 13-8.76 20.82-23.38 20.9-39.06-0.14-26.21-21.46-47.37-47.67-47.31H593.31c-15.39 0-27.9-12.41-28.01-27.8-0.04-7.43 2.9-14.57 8.16-19.82a27.758 27.758 0 0 1 19.85-8.09h180.98z m-367.04-1.14c15.7 0 28.45 12.68 28.53 28.37-0.08 15.7-12.83 28.38-28.53 28.38H180.47c-15.7 0-28.44-12.68-28.53-28.38 0.09-15.7 12.83-28.38 28.53-28.37h226.78z m89.84-472.19c54.47 0 106.86 20.54 146.59 57.58 89.63 83.36 84.24 227.2-2.59 313.46l-14.52 14.42-106.6 105.77c-12.66 12.51-33.03 12.51-45.7 0L353.2 469.33c-86.94-86.16-92.23-229.95-2.6-313.46a214.522 214.522 0 0 1 146.49-57.53z m-0.05 60.54a158.464 158.464 0 0 0-108.26 42.48 150.796 150.796 0 0 0-47.41 109.08c-0.72 45.91 17.64 90.93 50.42 123.51l40.46 40.31 64.32 63.8 93.22-91.66 12.55-12.45a171.064 171.064 0 0 0 50.47-123.56 150.387 150.387 0 0 0-47.62-109.09 158.252 158.252 0 0 0-108.2-42.48l0.05 0.06z m0.15 80.4c42.01-0.05 76.15 33.88 76.36 75.89-0.23 42.01-34.39 75.92-76.41 75.84-42 0.08-76.15-33.84-76.36-75.84 0.01-41.81 34.24-75.89 76.41-75.89z m0 47.2a28.796 28.796 0 0 0-20.39 8.36 28.747 28.747 0 0 0-8.5 20.33c0 15.96 12.93 28.89 28.89 28.89s28.89-12.94 28.89-28.89c-0.08-15.89-13-28.72-28.89-28.69z" p-id="3082" fill="#ffffff"></path></svg>