<?xml version="1.0" standalone="no"?><!DOCTYPE svg PUBLIC "-//W3C//DTD SVG 1.1//EN" "http://www.w3.org/Graphics/SVG/1.1/DTD/svg11.dtd"><svg t="1632981456701" class="icon" viewBox="0 0 1024 1024" version="1.1" xmlns="http://www.w3.org/2000/svg" p-id="2752" xmlns:xlink="http://www.w3.org/1999/xlink" width="200" height="200"><defs><style type="text/css"></style></defs><path d="M800.67 192.53h-99.41V131.6c0-18.47-14.97-33.44-33.45-33.44s-33.44 14.97-33.44 33.44v60.94H400.26V131.6c0-18.47-14.97-33.44-33.44-33.44s-33.45 14.97-33.45 33.44v60.94H222c-41.07 0-74.37 29.28-74.37 65.4v604.95c0 36.12 33.3 65.41 74.37 65.41h578.67c41.07 0 74.37-29.28 74.37-65.41V257.94c-0.01-36.12-33.31-65.41-74.37-65.41z m7.5 668.88l-593.64-0.61V258.48h118.85v34.07c0 18.47 14.97 33.44 33.45 33.44 18.47 0 33.44-14.97 33.44-33.44v-34.07h234.11v34.07c0 18.47 14.97 33.44 33.44 33.44s33.45-14.97 33.45-33.44v-34.07h106.89l0.01 602.93z" p-id="2753" fill="#ffffff"></path><path d="M323.21 468.12h309.06c18.47 0 33.44-14.97 33.44-33.45 0-18.47-14.97-33.44-33.44-33.44H323.21c-18.47 0-33.44 14.97-33.44 33.44 0 18.48 14.97 33.45 33.44 33.45z m0 139h227.55c18.47 0 33.45-14.97 33.45-33.44s-14.97-33.44-33.45-33.44H323.21c-18.47 0-33.44 14.97-33.44 33.44 0 18.46 14.97 33.44 33.44 33.44z m380.5-42.44l-160.89 160.9c-13.06 13.06-13.06 34.23 0 47.3s34.23 13.06 47.3 0l160.9-160.89c13.06-13.06 13.06-34.24 0-47.3-13.07-13.07-34.25-13.07-47.31-0.01zM477.75 679.23H323.21c-18.47 0-33.44 14.97-33.44 33.45 0 18.47 14.97 33.44 33.44 33.44h154.53c18.47 0 33.45-14.97 33.45-33.44s-14.97-33.45-33.44-33.45z m0 0" p-id="2754" fill="#ffffff"></path></svg>