<?xml version="1.0" standalone="no"?><!DOCTYPE svg PUBLIC "-//W3C//DTD SVG 1.1//EN" "http://www.w3.org/Graphics/SVG/1.1/DTD/svg11.dtd"><svg t="1632981316444" class="icon" viewBox="0 0 1024 1024" version="1.1" xmlns="http://www.w3.org/2000/svg" p-id="11670" xmlns:xlink="http://www.w3.org/1999/xlink" width="200" height="200"><defs><style type="text/css"></style></defs><path d="M733.1 98.2H292.8c-90.3 0.1-163.5 73.5-163.6 164.1v500.1c0.1 90.5 73.3 163.9 163.6 164h440.3c90.3-0.1 163.4-73.5 163.6-164V262.3c0-90.6-73.3-164-163.6-164.1zM850 762.4c-0.1 64.6-52.4 117-116.9 117.1H292.8c-64.4-0.1-116.7-52.5-116.8-117.1V262.3c0.1-64.7 52.3-117.1 116.9-117.2h440.3c64.5 0.1 116.8 52.5 116.9 117.2v500.1zM579.5 500.1h98.6c51.5 0 93.5-42 93.5-93.8v-73.8c-0.1-51.8-41.9-93.7-93.5-93.7h-98.6c-51.6 0.1-93.3 42-93.4 93.7v73.8c0 51.8 41.8 93.7 93.4 93.8z m-46.7-167.6c0-25.8 20.9-46.8 46.7-46.9h98.6c25.8 0 46.8 21 46.8 46.9v73.8c0 25.9-20.9 46.9-46.8 46.9h-98.6c-25.7 0-46.7-21.1-46.7-46.9v-73.8zM279 285.7h90.2c8.5 0.2 16.4-4.2 20.8-11.5 4.3-7.3 4.3-16.5 0-23.8-4.3-7.3-12.3-11.8-20.8-11.5H279c-8.6-0.5-16.8 3.9-21.3 11.3s-4.5 16.7 0 24.2c4.4 7.4 12.6 11.7 21.3 11.3z m90.2 121.1H279c-8.6-0.3-16.6 4.1-21 11.5-4.4 7.4-4.4 16.6 0 24 4.4 7.4 12.4 11.8 21 11.5h90.2c8.5 0.2 16.4-4.2 20.8-11.5 4.3-7.3 4.3-16.5 0-23.8-4.3-7.5-12.3-11.9-20.8-11.7z m210.3 336H279c-8.6-0.5-16.8 3.9-21.3 11.3s-4.5 16.7 0 24.2c4.5 7.4 12.7 11.8 21.3 11.3h300.5c8.6 0.4 16.7-4 21.2-11.4 4.4-7.4 4.4-16.7 0-24.1-4.5-7.3-12.6-11.7-21.2-11.3z m168.7-168H278.9c-12.9 0-23.4 10.5-23.4 23.5s10.5 23.5 23.4 23.4h469.2c8.4 0 16.1-4.5 20.3-11.7 4.2-7.3 4.2-16.2 0-23.5-4.1-7.3-11.8-11.7-20.2-11.7z" p-id="11671" fill="#ffffff"></path></svg>