<?xml version="1.0" standalone="no"?><!DOCTYPE svg PUBLIC "-//W3C//DTD SVG 1.1//EN" "http://www.w3.org/Graphics/SVG/1.1/DTD/svg11.dtd"><svg t="1631609460701" class="icon" viewBox="0 0 1024 1024" version="1.1" xmlns="http://www.w3.org/2000/svg" p-id="6498" xmlns:xlink="http://www.w3.org/1999/xlink" width="16" height="16"><defs><style type="text/css"></style></defs><path d="M507.31 775.67c-186.77 0-338.71-151.95-338.71-338.73 0-186.77 151.95-338.71 338.71-338.71s338.71 151.95 338.71 338.71c0.01 186.78-151.94 338.73-338.71 338.73z m0-617.52c-153.73 0-278.79 125.06-278.79 278.79s125.06 278.8 278.79 278.8S786.1 590.67 786.1 436.94 661.04 158.15 507.31 158.15z" p-id="6499" fill="#ffffff"></path><path d="M507.31 614.64c-97.98 0-177.7-79.72-177.7-177.7s79.72-177.69 177.7-177.69 177.7 79.71 177.7 177.69-79.72 177.7-177.7 177.7z m0-295.46c-64.94 0-117.77 52.82-117.77 117.76s52.83 117.77 117.77 117.77 117.77-52.83 117.77-117.77-52.83-117.76-117.77-117.76zM280.062 884.43l90.532-172.983 53.09 27.785-90.533 172.983zM603.35 740.505l51.657-30.367 94.285 160.385-51.657 30.367z" p-id="6500" fill="#ffffff"></path><path d="M864.26 928.29H159.74c-16.55 0-29.96-13.42-29.96-29.96 0-16.55 13.42-29.96 29.96-29.96h704.53c16.55 0 29.96 13.42 29.96 29.96 0 16.55-13.42 29.96-29.97 29.96z" p-id="6501" fill="#ffffff"></path></svg>