<?xml version="1.0" standalone="no"?><!DOCTYPE svg PUBLIC "-//W3C//DTD SVG 1.1//EN" "http://www.w3.org/Graphics/SVG/1.1/DTD/svg11.dtd"><svg t="1631609315620" class="icon" viewBox="0 0 1024 1024" version="1.1" xmlns="http://www.w3.org/2000/svg" p-id="5931" xmlns:xlink="http://www.w3.org/1999/xlink" width="16" height="16"><defs><style type="text/css"></style></defs><path d="M739.31 849.91H287.24c-15.87 0-31.44 14.76-31.44 29.82s15.57 29.82 31.44 29.82h452.18c15.87 0 31.44-14.76 31.44-29.82s-15.63-29.82-31.55-29.82zM898.05 145.83c-19.91-19.95-46.74-31.38-73.64-31.38H202.14c-55.43 0-104.04 47.71-104.04 102.1v181.93c0 15.3 15.3 23.31 30.43 23.31 15.36 0 30.44-14.76 30.44-29.82V216.66c0-24.15 18.61-42.36 43.27-42.36h622.28c24.68 0 43.28 18.21 43.28 42.36v485.98c0 24.15-18.61 42.36-43.28 42.36H202.14c-24.68 0-43.28-18.21-43.28-42.36V380.75c0-18.67-11.37-29.82-30.43-29.82-15.36 0-30.43 14.76-30.43 29.82v321.78c0 54.39 48.61 102.1 104.03 102.1h622.28c55.42 0 104.03-47.71 104.03-102.1V216.56c0.07-25.6-10.98-51.38-30.29-70.73z" p-id="5932" fill="#ffffff"></path><path d="M285.61 458.24c-35.78 0-64.9 29.12-64.9 64.9s29.12 64.9 64.9 64.9 64.89-29.12 64.89-64.9c0-6.98-1.24-14.05-3.69-21.05l21.95-33.91c6.99 2.45 14.06 3.69 21.04 3.69 4.7 0 9.57-0.64 15.18-2.01l64.8 70.74c-3.11 7.76-4.68 15.84-4.68 24.07 0 35.78 29.11 64.9 64.89 64.9s64.9-29.12 64.9-64.9c0-5.05-0.72-10.17-2.28-15.96l123.82-150.97c7.39 2.78 15.07 4.18 22.89 4.18 35.78 0 64.89-29.12 64.89-64.9s-29.11-64.9-64.89-64.9-64.9 29.12-64.9 64.9c0 5.1 0.75 10.41 2.28 16.17L552.98 503.96a65.005 65.005 0 0 0-22.99-4.18c-4.7 0-9.5 0.64-14.97 2.01l-64.9-70.82c3.04-7.56 4.57-15.58 4.57-23.88 0-35.78-29.12-64.9-64.9-64.9s-64.9 29.12-64.9 64.9c0 6.62 1.15 13.41 3.42 20.21l-22.49 34.45c-6.77-2.36-13.41-3.51-20.21-3.51z m431.06-121.41c0-12.48 10.16-22.64 22.64-22.64s22.64 10.16 22.64 22.64-10.16 22.64-22.64 22.64-22.64-10.16-22.64-22.64zM507.35 564.57c0-12.48 10.16-22.64 22.64-22.64s22.64 10.16 22.64 22.64-10.16 22.64-22.64 22.64-22.64-10.16-22.64-22.64zM367.26 406.86c-0.05-5.98 2.27-11.63 6.51-15.91 4.3-4.32 10.03-6.71 16.13-6.71 12.48 0 22.64 10.16 22.64 22.64s-10.16 22.64-22.64 22.64c-12.49 0-22.64-10.15-22.64-22.66z m-81.65 93.74c12.48 0 22.64 10.16 22.64 22.64s-10.16 22.64-22.64 22.64-22.64-10.16-22.64-22.64 10.16-22.64 22.64-22.64z" p-id="5933" fill="#ffffff"></path></svg>