<?xml version="1.0" encoding="utf-8"?>
<!-- Generator: Adobe Illustrator 23.0.3, SVG Export Plug-In . SVG Version: 6.00 Build 0)  -->
<svg version="1.1" id="图层_1" xmlns="http://www.w3.org/2000/svg" xmlns:xlink="http://www.w3.org/1999/xlink" x="0px" y="0px"
	 viewBox="0 0 1024 1024" style="enable-background:new 0 0 1024 1024;" xml:space="preserve">
<style type="text/css">
	.st0{fill-rule:evenodd;clip-rule:evenodd;fill:#F5A623;}
	.st1{fill-rule:evenodd;clip-rule:evenodd;fill:#FFFFFF;}
	.st2{fill-rule:evenodd;clip-rule:evenodd;fill:#23C6F5;}
	.st3{fill-rule:evenodd;clip-rule:evenodd;fill:#95F523;}
	.st4{fill-rule:evenodd;clip-rule:evenodd;fill:#B723F5;}
	.st5{fill-rule:evenodd;clip-rule:evenodd;fill:#2381F5;}
	.st6{fill-rule:evenodd;clip-rule:evenodd;fill:#F57C23;}
</style>
<g>
	<circle class="st4" cx="512.96" cy="513.59" r="446.63"/>
	<g>
		<g>
			<path class="st1" d="M694.06,396.28c-10.69,0-20.58,3.72-29.67,10.36c-0.27,0-0.54,0-0.8,0.27L487.7,470.15
				c-11.23,3.98-23.26,6.11-35.55,6.11h-12.3c0-1.33,0-2.66-0.27-3.99c5.88-1.33,11.23-2.92,15.24-4.52h1.6v-0.53
				c6.68-2.92,10.43-6.11,10.43-9.3c0-3.19-3.74-6.64-10.43-9.3V317.11c0-27.1-22.19-49.16-49.45-49.16H304.86
				c-27.26-0.27-49.46,21.79-49.46,49.16v131.26c-6.68,2.93-10.42,6.11-10.42,9.3c0,3.19,3.74,6.64,10.42,9.3v0.53h1.61
				c4.54,1.86,9.89,3.45,16.57,4.78v206.99c0,30.29,24.86,55,55.33,55h56.14c30.47,0,55.34-24.71,55.34-55h12.3
				c12.3,0,24.06,2.12,35.55,6.11l175.89,63.24c0.27,0,0.53,0,0.53,0.27c9.35,6.64,19.25,10.36,29.94,10.36
				c49.19,0,86.34-78.12,86.34-181.74C780.14,474.4,743.25,396.28,694.06,396.28z M294.5,429.85v-66.42
				c0-5.54,4.52-10.03,10.08-10.03s10.09,4.49,10.09,10.03v66.42c0,5.54-4.52,10.03-10.09,10.03S294.5,435.39,294.5,429.85z
				 M407.5,679.79c0,12.49-10.16,22.85-22.99,22.85h-57.2c-12.56-0.27-22.72-10.36-22.72-23.12V483.7H407.5V679.79z M694.06,728.68
				c-5.61,0-11.49-3.45-17.64-9.83c-20.85-29.23-33.95-83.43-33.95-141.09c0-57.66,13.1-111.6,33.95-140.83
				c6.15-6.37,12.3-9.83,17.64-9.83c22.99,0,55.06,57.39,55.06,150.92S717.05,728.68,694.06,728.68z"/>
		</g>
	</g>
</g>
</svg>
