<?xml version="1.0" standalone="no"?><!DOCTYPE svg PUBLIC "-//W3C//DTD SVG 1.1//EN" "http://www.w3.org/Graphics/SVG/1.1/DTD/svg11.dtd"><svg t="1585287471974" class="icon" viewBox="0 0 1024 1024" version="1.1" xmlns="http://www.w3.org/2000/svg" p-id="3260" xmlns:xlink="http://www.w3.org/1999/xlink" width="128" height="128"><defs><style type="text/css"></style></defs><path d="M511.5 64.3c247.2 0 447.7 200.4 447.7 447.7S758.7 959.7 511.5 959.7 63.8 759.2 63.8 512 264.3 64.3 511.5 64.3z" fill="#2381F5" p-id="3261"></path><path d="M738 293.8l41.2 34.8 0.9-115.2-119.7 10.3 39.8 33.8-107.4 91.8-175.4-40.6-174.5 163.2 176.6-115.7L599.3 405 738 293.8z m0 0" fill="#FFFFFF" p-id="3262"></path><path d="M469.8 677c-9.7-22.3-14.7-46.1-14.7-70.4 0-24.3 5-48.1 14.7-70.4 9.4-21.5 22.8-40.9 39.9-57.5 8.6-8.4 17.9-15.8 28-22.3L438 430.6v320h90.7c-6.7-4.9-13.1-10.3-19-16.2-17.1-16.5-30.6-35.8-39.9-57.4z m0 0M260.6 750.6h147.8V435.9l-147.8 97.6v217.1z m0 0M763.2 469.7V351.3l-95.8 76.2c16 2.2 31.7 6.3 46.6 12.5 18.1 7.3 34.5 17.3 49.2 29.7z m0 0M739.2 745.5L679.9 688c-2.9-2.9-2.9-7.5 0-10.3l26.7-25.9c2.9-2.9 7.7-2.9 10.7 0l59.3 57.5c2.9 2.9 2.9 7.5 0 10.3l-26.7 25.9c-3 2.8-7.8 2.8-10.7 0z" fill="#FFFFFF" p-id="3263"></path><path d="M641.5 488.4c-67.3 0-121.8 52.9-121.8 118.1 0 65.3 54.5 118.1 121.8 118.1s121.8-52.9 121.8-118.1c-0.1-65.2-54.6-118.1-121.8-118.1z m0 193.2c-42.7 0-77.3-33.6-77.3-75 0-41.5 34.6-75 77.3-75s77.3 33.6 77.3 75-34.6 75-77.3 75z" fill="#FFFFFF" p-id="3264"></path></svg>