<?xml version="1.0" standalone="no"?><!DOCTYPE svg PUBLIC "-//W3C//DTD SVG 1.1//EN" "http://www.w3.org/Graphics/SVG/1.1/DTD/svg11.dtd"><svg t="1585287319514" class="icon" viewBox="0 0 1024 1024" version="1.1" xmlns="http://www.w3.org/2000/svg" p-id="2977" xmlns:xlink="http://www.w3.org/1999/xlink" width="128" height="128"><defs><style type="text/css"></style></defs><path d="M513 64.7c247.2 0 447.7 200.4 447.7 447.7S760.2 960 513 960 65.3 759.6 65.3 512.3 265.8 64.7 513 64.7z" fill="#23C6F5" p-id="2978"></path><path d="M771.7 448l-29.8 8.9c-7.4 3-17.9-1.5-20.9-8.9s1.5-17.8 9-20.8l29.8-8.9c7.4-3 17.9 1.5 20.9 8.9 2.9 10.4-1.5 19.3-9 20.8M296 424.2c7.4 3 11.9 10.4 8.9 20.8-3 5.9-10.4 10.4-20.9 8.9l-29.8-8.9c-7.4-3-11.9-10.4-9-20.8 3-7.4 10.4-11.9 20.9-8.9l29.9 8.9m360.9-135.3c4.5-5.9 13.4-7.4 22.3-3 6 4.5 7.5 14.9 3 22.3l-19.4 25.3c-4.5 5.9-13.4 7.4-22.4 3-6-4.5-7.4-16.4-1.5-22.3l18-25.3M364.6 332l-17.9-26.8c-4.5-5.9-3-16.3 3-22.3 7.4-4.5 17.9-3 22.4 4.4l19.4 25.3c3 5.9 1.5 17.8-4.5 22.3-7.4 4.6-17.9 3.1-22.4-2.9m134.2-53.5v-31.2c0-8.9 6-16.4 14.9-16.4 9 0 14.9 6 14.9 16.4v31.2c0 8.9-6 16.4-14.9 16.4-7.4-1.5-14.9-7.5-14.9-16.4m173 215.8V652H358.7V494.3c0-86.2 70.1-157.6 156.6-157.6 86.4 0 156.5 69.9 156.5 157.6z m-155.2 83.6c5.6 0.1 10.7-2.9 13.4-7.8l29.9-56.5c2.3-4.3 2.1-9.6-0.6-13.7-2.8-4.2-7.6-6.7-12.7-6.7H511l19-36c1.8-3.4 2-7.3 0.8-10.9-1.3-3.6-4-6.5-7.4-8-7.3-3.5-16.1-0.7-20 6.3l-29.9 56.5c-2.3 4.4-2.1 9.6 0.7 13.7 2.7 4.1 7.5 6.7 12.7 6.7h35.6l-19 36c-1.8 3.4-2 7.3-0.8 10.9 1.3 3.6 4 6.5 7.4 8 2 1 4.3 1.5 6.5 1.5zM327.4 714.4v-31.2h374.3v31.2c0 17.8-13.4 31.2-31.3 31.2H358.7c-16.5 0.1-31.3-14.8-31.3-31.2" fill="#FFFFFF" p-id="2979"></path><path d="M366.1 733.8h-1.4c-7-1.2-13.1-5.6-16.4-11.9-6-8.9-3-17.8-3-19.3s4.5-4.5 7.4-3c3 1.5 6 4.5 4.5 7.4 0 3-1.5 11.9 10.4 14.9 3 1.5 6 4.5 4.5 7.4 0 3-3 4.5-6 4.5z m0 0" fill="#FFFFFF" p-id="2980"></path></svg>