<?xml version="1.0" standalone="no"?><!DOCTYPE svg PUBLIC "-//W3C//DTD SVG 1.1//EN" "http://www.w3.org/Graphics/SVG/1.1/DTD/svg11.dtd"><svg t="1585287454052" class="icon" viewBox="0 0 1024 1024" version="1.1" xmlns="http://www.w3.org/2000/svg" p-id="3120" xmlns:xlink="http://www.w3.org/1999/xlink" width="128" height="128"><defs><style type="text/css"></style></defs><path d="M511.3 63.9C758.6 63.9 959 264.4 959 511.6S758.6 959.3 511.3 959.3c-247.2 0-447.7-200.4-447.7-447.7S264.1 63.9 511.3 63.9z" fill="#B723F5" p-id="3121"></path><path d="M692.9 394c-10.7 0-20.6 3.7-29.7 10.4-0.3 0-0.5 0-0.8 0.3L486 468.1c-11.3 4-23.3 6.1-35.6 6.1h-12.3c0-1.3 0-2.7-0.3-4 5.9-1.3 11.3-2.9 15.3-4.5h1.6v-0.5c6.7-2.9 10.5-6.1 10.5-9.3 0-3.2-3.8-6.7-10.5-9.3v-132c0-27.2-22.2-49.3-49.6-49.3H302.7c-27.3-0.3-49.6 21.8-49.6 49.3v131.6c-6.7 2.9-10.4 6.1-10.4 9.3 0 3.2 3.8 6.7 10.4 9.3v0.5h1.6c4.6 1.9 9.9 3.5 16.6 4.8v207.5c0 30.4 24.9 55.1 55.5 55.1h56.3c30.5 0 55.5-24.8 55.5-55.1h12.3c12.3 0 24.1 2.1 35.6 6.1l176.3 63.4c0.3 0 0.5 0 0.5 0.3 9.4 6.7 19.3 10.4 30 10.4 49.3 0 86.5-78.3 86.5-182.2-0.7-103.3-37.6-181.6-86.9-181.6z m-400.5 33.7v-66.6c0-5.5 4.5-10.1 10.1-10.1s10.1 4.5 10.1 10.1v66.6c0 5.6-4.5 10.1-10.1 10.1-5.6-0.1-10.1-4.6-10.1-10.1z m113.2 250.5c0 12.5-10.2 22.9-23 22.9h-57.3c-12.6-0.3-22.8-10.4-22.8-23.2V481.6h103.2v196.6z m287.3 49c-5.6 0-11.5-3.5-17.7-9.9-20.9-29.3-34-83.6-34-141.4 0-57.8 13.1-111.9 34-141.2 6.2-6.4 12.3-9.9 17.7-9.9 23 0 55.2 57.5 55.2 151.3s-32.2 151.1-55.2 151.1z" fill="#FFFFFF" p-id="3122"></path></svg>