<?xml version="1.0" standalone="no"?><!DOCTYPE svg PUBLIC "-//W3C//DTD SVG 1.1//EN" "http://www.w3.org/Graphics/SVG/1.1/DTD/svg11.dtd"><svg t="1585287487787" class="icon" viewBox="0 0 1024 1024" version="1.1" xmlns="http://www.w3.org/2000/svg" p-id="3402" xmlns:xlink="http://www.w3.org/1999/xlink" width="128" height="128"><defs><style type="text/css"></style></defs><path d="M513 64.6c247.2 0 447.7 200.4 447.7 447.7S760.2 960 513 960 65.3 759.6 65.3 512.3 265.8 64.6 513 64.6z" fill="#95F558" p-id="3403"></path><path d="M289.2 537.3c0 19.9 14.2 37 33.9 41 34.3 6.9 83.8 17 95.3 19.9 17.6 4.6 33.4-7.9 45.5-19.8 3.1 8.9 6.8 18.6 10.2 27.8-8.7 2.1-17.9 4.9-25.7 7.6-34 11.6-42.1 20.2-44.2 29.6-1.9 8.2-20.7 85.5-30.6 126.1-1.9 4.6-5.6 17.1 0.6 29.9 5.3 11.6 16.4 19.5 32.5 23.8 5.9 1.5 11.4 2.4 16.7 2.4 9 0 16.7-2.4 23.2-7 11.8-8.5 14.5-21.4 15.5-26.6 7.7-29 19.8-73.3 24.1-87.9 8.7-3.1 27.8-6.7 36.8-7 2.8 4.9 7.1 14.4 10.5 21.7 16.4 35.1 28.4 58.6 47.3 63.2 31.2 7.6 98-29.6 120.6-43 17.9-5.5 41.1-24.1 34.3-55.6-3.4-15.9-12.4-24.4-19.5-28.4-16.7-10.1-36.5-5.5-38.6-4.9l-1.9 0.6-1.5 0.9c-17.6 9.5-39 20.1-50.4 24.4-1.2-3.1-2.5-6.7-3.7-10.1-2.5-7-5.6-15.6-9.3-24.4-1.2-6.1-4.9-20.1-17.9-56.5 6.8 10.4 13.9 20.5 21.3 30.5 5.6 9.2 14.5 15.9 25 18.6 10.8 3.1 22.3 1.5 32.2-4 20.1-11.3 27.2-36.6 15.8-56.8-1.2-2.4-2.8-4.9-4.6-7.9-24.7-43-53.2-90.1-79.5-102.9l-0.6-0.3c-38.3-16.5-80.1-20.5-121.2-11.9-35.6 8.2-61.2 38.8-74.8 55-1.2 1.5-2.8 3.4-4 4.9-8.3-0.6-29.1-5.5-47.9-11.6-0.4-0.2-7.3-1.4-16.5-2.8-25.8-3.7-48.9 15.9-48.9 41.5z m399.4 173.6M438.9 364.1c-4.3 15.7-2 32.8 6.4 47 8.4 14.3 22.2 24.5 38.1 28.8 5.2 1.4 10.7 2 15.9 2 27.7 0 53.1-18.2 60.3-45.9 8.7-32.8-11-66.7-44.2-75.5-33.5-8.8-67.6 10.9-76.5 43.6z m92.7 24.6" fill="#FFFFFF" p-id="3404"></path><path d="M316.7 561.4c15.3 0 27.6-12.3 27.5-27.3l-0.9-165.5L486 303.8c8.8-4 14.1-13 13.1-22.5-0.9-9.5-7.9-17.4-17.3-19.7l-147.2-35.3v-4.4c0-12.6-10.4-23.2-23.2-22.9-12.3 0.3-22.2 10.2-22.2 22.4v312.9c0 15 12.3 27.1 27.5 27.1z" fill="#FFFFFF" p-id="3405"></path></svg>