<?xml version="1.0" standalone="no"?><!DOCTYPE svg PUBLIC "-//W3C//DTD SVG 1.1//EN" "http://www.w3.org/Graphics/SVG/1.1/DTD/svg11.dtd"><svg t="1585287502136" class="icon" viewBox="0 0 1024 1024" version="1.1" xmlns="http://www.w3.org/2000/svg" p-id="3545" xmlns:xlink="http://www.w3.org/1999/xlink" width="128" height="128"><defs><style type="text/css"></style></defs><path d="M512.2 64.2c247.2 0 447.7 200.4 447.7 447.7S759.4 959.6 512.2 959.6 64.5 759.1 64.5 511.9 265 64.2 512.2 64.2z" fill="#F5A623" p-id="3546"></path><path d="M780.8 515.8c-2.5 0-85.3 234.3-268.6 242.2-87.9 2.6-153.1-63.2-198.3-126.4-30.1-44.8-67.8-113.2-70.3-115.8 0 0 7.5-15.8 7.5-21.1 25.1-60.6 113-229.1 258.6-229.1 148.1 0 233.5 168.5 258.6 229.1l12.5 21.1zM512.2 363.1c-80.3 0-145.6 65.8-145.6 147.4 0 81.6 65.3 147.4 145.6 147.4s145.6-65.8 145.6-147.4c0-81.6-65.3-147.4-145.6-147.4z m0 244.9c-52.7 0-97.9-44.8-97.9-97.4h97.9v-97.4c52.7 0 97.9 44.8 97.9 97.4 0 55.2-45.2 97.4-97.9 97.4z m0 0" fill="#FFFFFF" p-id="3547"></path></svg>