<?xml version="1.0" standalone="no"?><!DOCTYPE svg PUBLIC "-//W3C//DTD SVG 1.1//EN" "http://www.w3.org/Graphics/SVG/1.1/DTD/svg11.dtd"><svg t="1632981137408" class="icon" viewBox="0 0 1024 1024" version="1.1" xmlns="http://www.w3.org/2000/svg" p-id="10681" xmlns:xlink="http://www.w3.org/1999/xlink" width="200" height="200"><defs><style type="text/css"></style></defs><path d="M439.03 160.44V98.23H252.4v62.21H134.39v62.21H252.4v62.21h186.63v-62.21h451.58v-62.21H439.03z m-62.21 62.21h-62.21v-62.21h62.21v62.21z m62.21 518.84H252.4v62.21H134.39v62.21H252.4v62.31h186.63v-62.21h451.58V803.8H439.03v-62.31z m-62.21 124.42h-62.21V803.7h62.21v62.21zM772.7 422.19H585.97v62.21H134.39v62.21h451.58v62.31H772.6v-62.21h118.02V484.5H772.6v-62.31h0.1z m-62.21 124.52h-62.21V484.5h62.21v62.21z" p-id="10682" fill="#ffffff"></path></svg>