<?xml version="1.0" standalone="no"?><!DOCTYPE svg PUBLIC "-//W3C//DTD SVG 1.1//EN" "http://www.w3.org/Graphics/SVG/1.1/DTD/svg11.dtd"><svg t="1632981098093" class="icon" viewBox="0 0 1024 1024" version="1.1" xmlns="http://www.w3.org/2000/svg" p-id="10516" data-spm-anchor-id="a313x.7781069.0.i15" xmlns:xlink="http://www.w3.org/1999/xlink" width="200" height="200"><defs><style type="text/css"></style></defs><path d="M722.45 98.79c111.51 0 201.9 90.39 201.9 201.9v262.47c0 111.51-90.39 201.89-201.9 201.89H300.22c-111.51 0-201.9-90.39-201.9-201.89V300.69c0-111.51 90.39-201.9 201.9-201.9h422.23z m0 60.57H300.22c-37.49 0-73.43 14.89-99.93 41.39a141.287 141.287 0 0 0-41.39 99.93v262.47c0 37.48 14.89 73.43 41.39 99.93 26.5 26.51 62.45 41.4 99.93 41.4h422.23c37.48 0 73.43-14.89 99.93-41.4a141.34 141.34 0 0 0 41.4-99.93V300.69c0-37.49-14.89-73.43-41.4-99.93a141.297 141.297 0 0 0-99.93-41.4z m0 0" p-id="10517" fill="#ffffff"></path><path d="M470.95 270.03c17.88 0 35.44 4.75 50.88 13.75l121.75 71.03a100.936 100.936 0 0 1 50.09 87.2c0 35.91-19.07 69.11-50.09 87.2l-121.75 71.03c-31.22 18.22-69.81 18.35-101.16 0.34-31.35-18.01-50.67-51.41-50.66-87.56V370.99c0-55.76 45.19-100.96 100.94-100.96z m0 60.58c-22.3 0-40.38 18.08-40.38 40.38v142.06c0 14.45 7.74 27.81 20.27 35.01a40.4 40.4 0 0 0 40.46-0.14l121.75-71.01a40.397 40.397 0 0 0 20.05-34.89c0-14.37-7.63-27.65-20.05-34.89L491.3 336.12a40.282 40.282 0 0 0-20.35-5.51zM280.03 896.28h442.42c16.73 0 30.29-13.56 30.29-30.28 0-16.73-13.56-30.29-30.29-30.29H280.03c-16.73 0-30.29 13.56-30.29 30.29 0 16.72 13.56 30.28 30.29 30.28z m0 0" p-id="10518" fill="#ffffff"></path></svg>