<?xml version="1.0" standalone="no"?><!DOCTYPE svg PUBLIC "-//W3C//DTD SVG 1.1//EN" "http://www.w3.org/Graphics/SVG/1.1/DTD/svg11.dtd"><svg t="1564630013879" class="icon" viewBox="0 0 1024 1024" version="1.1" xmlns="http://www.w3.org/2000/svg" p-id="5614" xmlns:xlink="http://www.w3.org/1999/xlink" width="128" height="128"><defs><style type="text/css"></style></defs><path d="M692.9 460.4c-128.3 0-232.2 103.9-232.2 232.2 0 128.3 103.9 232.2 232.2 232.2 128.3 0 232.2-103.9 232.2-232.2 0-128.3-104-232.2-232.2-232.2z m0 412.8c-99.6 0-180.6-81-180.6-180.6S593.3 512 692.9 512s180.6 81 180.6 180.6-81 180.6-180.6 180.6z m128.9-185.7L615.3 811.4V563.5l206.5 124zM530.3 924.8H99.5v-51.5h374.7c16.2 19.6 35.1 36.7 56.1 51.5z m-89.9-103.1H202.6V532.6c0-153.6 125-278.6 278.5-278.6 112.5 0 210.1 64.8 257.7 158.8-15-2.5-30.4-4.1-46.1-4.1-5.3 0-10.3 0.5-15.5 0.8-42.8-62.6-114.7-103.8-196.2-103.8-125.1 0-226.9 101.8-226.9 227v237.5h103.3V512H409v258h10.9c5.3 17.9 12.1 35.2 20.5 51.7z m71.9-619.3h-51.6V99.2h51.6v103.2z m-234.4 60.5l-73-73 36.5-36.5 73 73-36.5 36.5z m376.4 0l-36.5-36.5 73-73 36.5 36.5-73 73z m0 0" p-id="5615" fill="#ffffff"></path></svg>