<?xml version="1.0" standalone="no"?><!DOCTYPE svg PUBLIC "-//W3C//DTD SVG 1.1//EN" "http://www.w3.org/Graphics/SVG/1.1/DTD/svg11.dtd"><svg t="1632986430802" class="icon" viewBox="0 0 1024 1024" version="1.1" xmlns="http://www.w3.org/2000/svg" p-id="3330" xmlns:xlink="http://www.w3.org/1999/xlink" width="200" height="200"><defs><style type="text/css"></style></defs><path d="M895.05 656h-59.78V521.84c0-31.09-25.29-56.38-56.38-56.38H537.75V364.9h77.86c18.17 0 32.95-14.78 32.95-32.95V162.81c0-18.17-14.78-32.95-32.95-32.95H410.29c-18.17 0-32.95 14.78-32.95 32.95v169.14c0 18.17 14.78 32.95 32.95 32.95h77.86v100.56H248.03c-31.09 0-56.38 25.29-56.38 56.38V656h-59.78c-18.17 0-32.95 14.78-32.95 32.95v169.14c0 18.17 14.78 32.95 32.95 32.95h169.14c18.17 0 32.95-14.78 32.95-32.95V688.94c0-18.17-14.78-32.95-32.95-32.95h-59.78V543.24c0-15.54 12.65-28.19 28.19-28.19h218.73V656h-59.27c-18.17 0-32.95 14.78-32.95 32.95v169.14c0 18.17 14.78 32.95 32.95 32.95h169.14c18.17 0 32.95-14.78 32.95-32.95V688.94c0-18.17-14.78-32.95-32.95-32.95h-60.29V515.05h219.75c15.54 0 28.19 12.65 28.19 28.19V656h-59.78c-18.17 0-32.95 14.78-32.95 32.95v169.14c0 18.17 14.78 32.95 32.95 32.95h169.14c18.17 0 32.95-14.78 32.95-32.95V688.94C928 670.78 913.22 656 895.05 656z m-16.64 49.59v135.86H742.55V705.59h135.86zM598.96 179.45v135.86H426.94V179.45h172.02zM445.53 841.44V705.59h135.86v135.86H445.53z m-297.01 0V705.59h135.86v135.86H148.52z" p-id="3331" fill="#ffffff"></path></svg>