<?xml version="1.0" standalone="no"?><!DOCTYPE svg PUBLIC "-//W3C//DTD SVG 1.1//EN" "http://www.w3.org/Graphics/SVG/1.1/DTD/svg11.dtd"><svg t="1632986460076" class="icon" viewBox="0 0 1024 1024" version="1.1" xmlns="http://www.w3.org/2000/svg" p-id="3979" xmlns:xlink="http://www.w3.org/1999/xlink" width="200" height="200"><defs><style type="text/css"></style></defs><path d="M818.19 698.41l-6.7-3.48 5.81-4.81c32.01-26.5 50.36-65.51 50.36-107.02 0-76.57-62.29-138.86-138.86-138.86S589.93 506.53 589.93 583.1c-0.04 41.56 18.31 80.55 50.36 106.99l5.83 4.81-6.71 3.49c-64.65 33.57-104.81 99.65-104.81 172.44 0 15.55 12.65 28.2 28.2 28.2h332c15.55 0 28.2-12.65 28.2-28.2 0-72.79-40.16-138.86-104.81-172.42zM728.8 500.64c45.47 0 82.46 36.99 82.46 82.46 0 45.48-36.99 82.47-82.46 82.47-45.47 0-82.47-36.99-82.47-82.47 0-45.47 37-82.46 82.47-82.46z m-135.13 342l2.39-8.93c16.56-59.29 71.14-100.67 132.74-100.67l3.43 0.03c30.05 0.75 58.33 10.96 81.85 29.52 22.81 18 39.66 43.24 47.44 71.07l2.38 8.98H593.67z" p-id="3980" fill="#ffffff"></path><path d="M834.46 195.78v177.07c0.02 15.37-12 27.76-27.37 28.21-15.34 0.47-28.05-11.18-28.97-26.49l-0.06-1.8V195.78c0-8.15-6.1-15.01-14.18-15.96l-1.74-0.11H175.47c-8.15 0-15.01 6.1-15.95 14.19l-0.12 1.73v630.94c0 8.14 6.1 15 14.19 15.95l1.72 0.12h276.87c15.35 0 27.72 12.01 28.17 27.37 0.45 15.34-11.18 28.05-26.49 28.97l-1.8 0.05H175.47c-39.26 0-71.08-30.74-72.42-69.89l-0.05-2.57V195.78c0-39.27 30.74-71.08 69.89-72.43l2.58-0.04H762c39.26 0 71.08 30.74 72.42 69.89l0.04 2.58z" p-id="3981" fill="#ffffff"></path><path d="M524.62 621.01c-0.45-15.35-12.83-27.37-28.19-27.37H275.14l-1.8 0.05c-15.31 0.92-26.94 13.63-26.49 28.97 0.45 15.36 12.83 27.38 28.19 27.38H496.33l1.8-0.05c15.31-0.93 26.94-13.64 26.49-28.98z m110.67-249c-0.46-15.35-12.83-27.37-28.19-27.37H275.14l-1.8 0.05c-15.31 0.93-26.94 13.64-26.49 28.98 0.45 15.35 12.82 27.37 28.18 27.37H607l1.8-0.05c15.31-0.92 26.94-13.64 26.49-28.98z" p-id="3982" fill="#ffffff"></path></svg>