<?xml version="1.0" standalone="no"?><!DOCTYPE svg PUBLIC "-//W3C//DTD SVG 1.1//EN" "http://www.w3.org/Graphics/SVG/1.1/DTD/svg11.dtd"><svg t="1632987045998" class="icon" viewBox="0 0 1024 1024" version="1.1" xmlns="http://www.w3.org/2000/svg" p-id="10466" xmlns:xlink="http://www.w3.org/1999/xlink" width="200" height="200"><defs><style type="text/css"></style></defs><path d="M832 0a64 64 0 0 1 63.701333 57.856l0.298667 6.144v405.333333a42.666667 42.666667 0 0 1-85.034667 4.992L810.666667 469.333333v-384h-682.666667v853.333334h256a42.666667 42.666667 0 0 1 42.368 37.674666L426.666667 981.333333a42.666667 42.666667 0 0 1-37.674667 42.368L384 1024h-277.333333a64 64 0 0 1-63.701334-57.856L42.666667 960v-896a64 64 0 0 1 57.856-63.701333l6.144-0.298667h725.333333z" p-id="10467" fill="#ffffff"></path><path d="M746.666667 810.666667m-64 0a64 64 0 1 0 128 0 64 64 0 1 0-128 0Z" p-id="10468" fill="#ffffff"></path><path d="M867.626667 597.333333h-241.92L505.728 810.666667l119.978667 213.333333h241.92l119.978666-213.333333-119.978666-213.333334z m-49.92 85.333334l71.978666 128-72.021333 128H675.626667L603.605333 810.666667l71.978667-128h142.122667z" p-id="10469" fill="#ffffff"></path><path d="M256 341.333333m42.666667 0l341.333333 0q42.666667 0 42.666667 42.666667l0 0q0 42.666667-42.666667 42.666667l-341.333333 0q-42.666667 0-42.666667-42.666667l0 0q0-42.666667 42.666667-42.666667Z" p-id="10470" fill="#ffffff"></path><path d="M256 512m42.666667 0l170.666666 0q42.666667 0 42.666667 42.666667l0 0q0 42.666667-42.666667 42.666666l-170.666666 0q-42.666667 0-42.666667-42.666666l0 0q0-42.666667 42.666667-42.666667Z" p-id="10471" fill="#ffffff"></path><path d="M256 682.666667m42.666667 0l85.333333 0q42.666667 0 42.666667 42.666666l0 0q0 42.666667-42.666667 42.666667l-85.333333 0q-42.666667 0-42.666667-42.666667l0 0q0-42.666667 42.666667-42.666666Z" p-id="10472" fill="#ffffff"></path></svg>