<?xml version="1.0" standalone="no"?><!DOCTYPE svg PUBLIC "-//W3C//DTD SVG 1.1//EN" "http://www.w3.org/Graphics/SVG/1.1/DTD/svg11.dtd"><svg t="1631609505981" class="icon" viewBox="0 0 1024 1024" version="1.1" xmlns="http://www.w3.org/2000/svg" p-id="6876" xmlns:xlink="http://www.w3.org/1999/xlink" width="16" height="16"><defs><style type="text/css"></style></defs><path d="M293.97 726.45H117.23c-10.62 0-19.22-8.61-19.22-19.22V117.45c0-10.62 8.61-19.22 19.22-19.22h735.45c10.62 0 19.22 8.61 19.22 19.22v199.01c0 16.62-13.48 30.1-30.1 30.1s-30.1-13.48-30.1-30.1V168.05c0-5.32-4.31-9.63-9.63-9.63H167.83c-5.32 0-9.63 4.31-9.63 9.63v488.58c0 5.32 4.31 9.63 9.63 9.63h126.14c16.62 0 30.1 13.48 30.1 30.1-0.01 16.62-13.48 30.09-30.1 30.09zM394.48 927.93H263.07c-16.62 0-30.1-13.48-30.1-30.1s13.48-30.1 30.1-30.1h131.41c16.62 0 30.1 13.48 30.1 30.1-0.01 16.62-13.48 30.1-30.1 30.1zM649.92 743.57c-54.87 0-99.5-44.63-99.5-99.5s44.63-99.51 99.5-99.51 99.51 44.64 99.51 99.51c0 54.87-44.64 99.5-99.51 99.5z m0-138.81c-21.67 0-39.3 17.64-39.3 39.31s17.64 39.3 39.3 39.3c21.68 0 39.31-17.64 39.31-39.3 0.01-21.68-17.63-39.31-39.31-39.31z" p-id="6877" fill="#ffffff"></path><path d="M722.05 927.93c-19.26 0-37.69-8.42-50.7-23.13l-1.07-1.28c-5.87-7.42-13.39-13.11-21.67-16.45-8.15 3.26-15.45 8.69-21.4 15.97-13.6 15.5-31.97 23.98-51.07 24.09l-1.79 0.01-1.78-0.2c-6.94-0.79-13.84-2.28-20.5-4.42l-3.33-1.07-65.46-39.57c-25.75-18.58-35.49-52.69-23.69-82.97 1.59-4.08 2.53-8.39 2.81-12.83-0.47-15.78-11.62-28.5-25.12-28.5h-0.01c-31.72-0.6-56.99-24.97-60.03-57a381.202 381.202 0 0 1-5.36-55.39l-0.02-0.71 0.02-0.71c0.43-19.05 2.29-38.22 5.51-56.99 5.88-33.44 28.97-55.82 57.49-55.82h2.47c6.29 0 12.32-2.77 16.99-7.82 5.03-5.43 7.98-13.03 8.16-20.94-0.31-4.35-1.26-8.55-2.83-12.51-11.66-29.26-2.74-62.84 21.71-81.64l2.89-1.96 65.94-39.28c26.78-12.9 58.49-6.61 78.86 15.64l2.46 2.69 1.75 3.2c3.2 5.83 8.3 10.08 14 11.63 4.28 1.11 9.21 0.21 13.44-2.63 2.94-1.93 5.28-4.43 7.04-7.43l2.93-4.15c19.53-23.21 51.05-30.87 78.42-19.16l3.62 1.85 63.69 38.33c25.58 18.53 35.38 52.55 23.82 82.76-1.7 4.28-2.65 8.51-2.9 12.86 0.51 15.8 11.7 28.58 25.25 28.63 31.48 0.67 56.82 25.01 60.04 56.88 3.1 18.33 4.89 36.98 5.33 55.46l0.02 0.66-0.02 0.67c-0.39 19.14-2.26 38.37-5.54 57.17-5.84 33.33-28.9 55.72-57.37 55.72h-2.57c-13.47 0.08-24.7 12.98-25.14 28.9a39.68 39.68 0 0 0 2.81 12.34c11.56 29.47 2.54 62.93-21.82 81.62l-2.82 1.92-64.35 38.54c-8.96 4.54-18.95 6.96-28.9 7.03-0.06-0.01-0.14-0.01-0.21-0.01z m-5.25-62.63c1.54 1.58 3.35 2.43 5.16 2.43 0.26 0.15 0.94-0.09 1.47-0.29l59.03-35.45c2.42-2.54 3.22-7.18 1.76-10.92-4.1-10.17-6.5-21.21-7.04-32.54l-0.04-1.59c0.26-48.77 37.95-88.73 84.23-89.54 0.59-1.23 1.29-3.17 1.76-5.91 2.73-15.55 4.29-31.5 4.64-47.37-0.4-15.73-1.96-31.6-4.66-47.19l-0.34-2.79c-0.15-1.96-1.12-2.89-1.34-3.01-45.57-0.08-83.8-40-84.3-88.88l-0.01-0.78 0.04-0.78c0.47-11.42 2.83-22.54 7.01-33.05 1.48-3.86 0.43-8.99-2.42-11.6l-57.53-34.49c-2.2-0.47-4.48 0.16-6.42 1.9-6.23 9.64-14.41 17.92-23.83 24.09-18.13 12.16-40.85 16.11-62.09 10.63-20.15-5.49-37.55-18.6-48.76-36.43-1.45-1-3.6-1.85-6.02-0.99l-59.82 35.75c-2.41 2.55-3.19 7.21-1.69 10.95 4.11 10.33 6.49 21.24 7.08 32.44l0.04 1.58c0 23.53-8.59 45.76-24.21 62.62-15.7 16.94-37.52 26.77-60.02 27.09-0.59 1.23-1.29 3.17-1.79 5.93a331.402 331.402 0 0 0-4.62 47.4c0.4 15.73 1.99 31.57 4.7 47.06l0.38 3.13c0.13 1.83 0.98 2.7 1.2 2.83h0.25c45.46 0 83.63 39.86 84.01 88.86l-0.02 1.56c-0.51 11.3-2.82 22.34-6.9 32.81-1.62 4.16-0.6 9.28 2.23 11.84l55.52 33.46c1.19 0.29 2.39 0.54 3.6 0.75 1.54-0.34 3.02-1.26 4.28-2.69 15.34-18.78 36.45-32.14 60.35-37.82l6.94-1.65 6.94 1.63c23.75 5.61 45.47 19.45 61.25 39.02zM444.07 323.14H233.05c-16.62 0-30.1-13.48-30.1-30.1s13.48-30.1 30.1-30.1h211.01c16.62 0 30.1 13.48 30.1 30.1s-13.47 30.1-30.09 30.1zM317.65 510.46h-84.59c-16.62 0-30.1-13.48-30.1-30.1s13.48-30.1 30.1-30.1h84.59c16.62 0 30.1 13.48 30.1 30.1-0.01 16.62-13.48 30.1-30.1 30.1z" p-id="6878" fill="#ffffff"></path></svg>