<?xml version="1.0" standalone="no"?><!DOCTYPE svg PUBLIC "-//W3C//DTD SVG 1.1//EN" "http://www.w3.org/Graphics/SVG/1.1/DTD/svg11.dtd"><svg t="1632986446911" class="icon" viewBox="0 0 1024 1024" version="1.1" xmlns="http://www.w3.org/2000/svg" p-id="3654" xmlns:xlink="http://www.w3.org/1999/xlink" width="200" height="200"><defs><style type="text/css"></style></defs><path d="M533.89 551.51l-8.66-3.29 7.45-5.52c48.61-35.96 77.63-93.46 77.63-153.82 0-105.3-85.67-190.98-190.98-190.98-105.3 0-190.97 85.68-190.97 190.98 0 60.36 29.02 117.87 77.62 153.82l7.44 5.51-8.64 3.3C182.64 598.14 100.09 716.41 98 846.88h55.06c1.28-69.29 28.83-134.2 77.91-183.27 50.27-50.27 117.16-77.96 188.34-77.96s138.07 27.69 188.35 77.96c49.08 49.08 76.63 113.99 77.91 183.27h55.07c-1.62-130.48-84.18-248.75-206.75-295.37z m-103.05-20.93l-0.2 0.02-22.84-0.02c-35.51-2.92-68.45-18.95-92.75-45.12-24.46-26.34-37.93-60.65-37.93-96.58 0-38.02 14.78-73.74 41.63-100.58 26.84-26.84 62.56-41.62 100.57-41.62 38.02 0 73.75 14.78 100.58 41.62 26.84 26.85 41.62 62.57 41.62 100.58 0 35.94-13.46 70.24-37.93 96.58-24.31 26.17-57.24 42.2-92.75 45.12z" p-id="3655" fill="#ffffff"></path><path d="M928 822.27h-55.55c-1.28-69.29-28.83-134.21-77.91-183.28-49.09-49.08-114-76.63-183.27-77.91v-55.1h6.04l0.37-0.02c35.47-2.67 68.43-18.63 92.79-44.94 24.46-26.41 37.92-60.78 37.92-96.76 0-38.01-14.78-73.74-41.62-100.57-25.64-25.64-59.4-40.28-95.51-41.54v-48.8c102.96 2.71 185.91 87.3 185.91 190.91 0 60.35-29.02 117.87-77.63 153.83l-7.45 5.51 8.66 3.3C843.16 573.44 925.9 691.71 928 822.27z" p-id="3656" fill="#ffffff"></path></svg>