<?xml version="1.0" standalone="no"?><!DOCTYPE svg PUBLIC "-//W3C//DTD SVG 1.1//EN" "http://www.w3.org/Graphics/SVG/1.1/DTD/svg11.dtd"><svg t="1632987036582" class="icon" viewBox="0 0 1024 1024" version="1.1" xmlns="http://www.w3.org/2000/svg" p-id="10300" xmlns:xlink="http://www.w3.org/1999/xlink" width="200" height="200"><defs><style type="text/css"></style></defs><path d="M1006.533779 731.594916H595.130078a16.906845 16.906845 0 0 1-17.043835-16.769855v-39.521605a16.906845 16.906845 0 0 1 17.043835-16.769855H1006.533779a16.906845 16.906845 0 0 1 17.043835 16.769855v39.510189a16.906845 16.906845 0 0 1-17.043835 16.781271z m0 146.122631H595.130078a16.906845 16.906845 0 0 1-17.043835-16.769855v-39.521605a16.906845 16.906845 0 0 1 17.043835-16.769855H1006.533779a16.906845 16.906845 0 0 1 17.043835 16.769855v39.510189a16.906845 16.906845 0 0 1-17.043835 16.781271z m0 146.122631H595.130078a16.906845 16.906845 0 0 1-17.043835-16.769855v-39.521605a16.906845 16.906845 0 0 1 17.043835-16.769855H1006.533779a16.906845 16.906845 0 0 1 17.043835 16.769855v39.510189a16.906845 16.906845 0 0 1-17.043835 16.781271z" fill="#ffffff" p-id="10301"></path><path d="M503.837681 652.152152c-78.312598 0-141.955853-62.684326-141.955853-139.741182s63.677503-139.695518 141.967269-139.695518 142.012932 62.661494 142.012932 139.695518a137.069877 137.069877 0 0 1-21.187782 73.061315h83.56388a209.937124 209.937124 0 0 0 13.071126-73.061315c0-117.959777-97.559688-213.921249-217.460156-213.921249-119.900468 0-217.44874 95.961472-217.44874 213.921249 0 117.959777 97.536856 213.978328 217.403077 213.978328l0.034247-74.237146z" fill="#ffffff" p-id="10302"></path><path d="M485.88058 949.603032h-60.378328l-15.822341-114.283879-21.461762-7.648607a340.60272 340.60272 0 0 1-104.12379-58.939933l-17.546132-14.600847-107.308807 45.298015L79.910814 664.264348 172.538863 593.623188l-3.995541-22.112463a329.517949 329.517949 0 0 1-5.63942-59.099755 326.138863 326.138863 0 0 1 5.707915-59.099755l4.029788-22.123879L79.910814 360.569008l78.346845-133.565218 108.359063 43.574226 17.454805-14.520937a341.253423 341.253423 0 0 1 104.123791-58.997012l21.450345-7.648607 15.845173-114.238216H582.207358l15.845173 114.375206 21.507424 7.625775a338.936009 338.936009 0 0 1 104.078127 58.951349l17.546132 14.635095 107.308807-45.366511 79.317191 135.231929-92.650881 70.58408 4.029788 22.135296a312.679599 312.679599 0 0 1 0 118.176677l-2.54573 13.950145h110.99612l-30.674336-23.368205a376.516923 376.516923 0 0 0 0-99.317725l60.789297-46.302609c28.480214-17.831527 37.590047-55.095081 20.548495-84.05476l-88.701003-151.351082A63.129543 63.129543 0 0 0 871.027871 151.830546a64.488027 64.488027 0 0 0-45.720402 4.817481l-71.029297 28.539576A414.314738 414.314738 0 0 0 666.684504 135.699978l-10.388406-75.024839C654.709298 27.169677 626.843255 0.981761 592.709922 0.981761H415.02252c-34.133333 0-61.999376 26.176499-63.643256 59.670547l-10.388406 74.967759a417.271438 417.271438 0 0 0-87.445262 49.521873l-71.097792-28.539577c-30.331862-15.262965-67.273489-4.566332-84.283077 24.464125L9.269654 332.531728c-16.918261 28.977944-7.722809 66.157021 20.75398 83.906354l60.743635 46.314025a374.781717 374.781717 0 0 0 0 99.317726l-60.766466 46.336856c-28.653735 18.265329-37.740736 55.058551-20.662654 84.05476L98.176143 843.846778a63.198038 63.198038 0 0 0 38.745329 29.247358 64.248294 64.248294 0 0 0 45.663322-4.87456l71.006466-28.539576a417.191527 417.191527 0 0 0 87.445262 49.487625l10.399821 75.04767c1.64388 33.482631 29.498506 59.636299 63.643256 59.636299h70.846644c9.837021 0.076486 17.874907-7.834685 17.957101-17.671705v-38.905151a17.820111 17.820111 0 0 0-18.002764-17.671706z" fill="#ffffff" p-id="10303"></path></svg>