<?xml version="1.0" encoding="utf-8"?>
<!-- Generator: Adobe Illustrator 23.0.3, SVG Export Plug-In . SVG Version: 6.00 Build 0)  -->
<svg version="1.1" id="图层_1" xmlns="http://www.w3.org/2000/svg" xmlns:xlink="http://www.w3.org/1999/xlink" x="0px" y="0px"
	 viewBox="0 0 1024 1024" style="enable-background:new 0 0 1024 1024;" xml:space="preserve">
<style type="text/css">
	.st0{fill-rule:evenodd;clip-rule:evenodd;fill:#F5A623;}
	.st1{fill-rule:evenodd;clip-rule:evenodd;fill:#FFFFFF;}
	.st2{fill-rule:evenodd;clip-rule:evenodd;fill:#23C6F5;}
	.st3{fill-rule:evenodd;clip-rule:evenodd;fill:#95F523;}
	.st4{fill-rule:evenodd;clip-rule:evenodd;fill:#B723F5;}
	.st5{fill-rule:evenodd;clip-rule:evenodd;fill:#2381F5;}
	.st6{fill-rule:evenodd;clip-rule:evenodd;fill:#F57C23;}
</style>
<g>
	<circle class="st6" cx="511.18" cy="512.71" r="446.85"/>
	<g>
		<g>
			<path class="st1" d="M763.52,457.97l-41.91-9.58c-4.19-13.79-9.59-26.85-16.01-39.01l22.78-36.37
				c4.79-7.67,3.59-18.22-2.82-24.63l-50-50.03c-6.42-6.41-16.79-7.61-24.64-2.82l-36.39,22.77c-12.23-6.47-25.3-11.86-39.09-16.06
				l-9.59-41.83c-1.74-7.73-8.93-15.58-19.36-15.58h-70.81c-9.05,0-17.38,6.71-19.36,15.58l-9.59,41.88
				c-13.79,4.2-26.86,9.59-39.03,16l-36.45-22.77c-7.67-4.79-18.23-3.6-24.64,2.82l-50,49.97c-6.42,6.41-7.61,16.96-2.82,24.63
				l22.84,36.37c-6.48,12.16-11.87,25.28-16.01,39.07l-41.91,9.58c-7.97,1.8-14.33,8.75-15.35,17.02l-0.06,0.48v74.54l0.06,0.48
				c1.02,8.27,7.38,15.22,15.29,17.02l41.9,9.59c4.2,13.78,9.59,26.85,16.01,39.01l-22.78,36.37c-4.8,7.67-3.6,18.22,2.82,24.63
				l50,49.97c6.41,6.41,16.97,7.61,24.64,2.82l36.39-22.77c12.23,6.47,25.3,11.86,39.09,16.06l9.59,41.82
				c1.92,8.75,10.19,15.46,19.25,15.58h70.99c9.11,0,17.38-6.71,19.36-15.58l9.59-41.82c10.31-3.12,20.32-7.01,29.92-11.57
				l39.45,39.43c9.77,9.76,20.98,11.8,28.66,11.8c11.27,0,20.99-3.95,28.84-11.8l47.25-47.22l0.54-0.6
				c7.67-8.27,11.27-18.46,11.15-31.16c0-6.29-1.19-21.93-12.17-32.24l-37.77-35.65c4.02-8.75,7.43-17.86,10.25-27.09l41.85-9.59
				c8.76-1.92,15.41-10.19,15.59-19.23v-70.95C779.05,468.28,772.45,459.95,763.52,457.97z M739.3,532.21l-37.47,8.75
				c-7.25,1.68-13.13,7.37-14.93,14.62c-1.68,6.83-3.72,13.42-6.06,19.72l-29.56-27.98c2.64-11.62,3.9-23.31,3.78-34.87
				c-0.48-39.31-15.53-76.64-41.31-102.46c-13.43-13.42-28.72-23.79-45.45-30.8c-16.31-6.83-33.57-10.3-51.32-10.3
				c-13.37,0-33.46,0.66-53.06,6.65c-6.35,1.92-11.33,7.49-13.07,14.5c-1.74,7.07,0.12,14.08,4.91,18.75l69.31,69.27l-7.43,41.17
				l-41.01,7.49l-69.61-69.57c-4.68-4.68-11.57-6.47-18.52-4.8c-6.96,1.62-12.35,6.35-14.45,12.58c-4.62,13.84-6.9,29.42-6.9,47.76
				c0,39.54,14.69,75.98,41.31,102.58c13.55,13.54,29.8,24.03,48.14,31.16c17.27,6.71,35.61,10.07,54.5,10.07
				c11.27,0,23.02-1.38,34.96-4.14l29.32,29.12c-7.25,2.88-14.27,5.09-21.29,6.77h-0.06c-7.08,1.8-12.95,7.73-14.57,14.86
				l-8.69,37.45h-39.27l-8.69-37.39c-1.62-7.25-7.38-13.13-14.63-14.92c-18.89-4.61-36.51-13.36-51.26-21.39
				c-4.98-2.7-11.81-5.09-20.69,0.42l-32.74,20.37l-27.64-27.62l20.38-32.71c4.38-6.95,4.44-13.84,0.3-20.97
				c-10.01-17.08-17.15-34.28-21.29-50.99c-1.74-7.07-7.73-12.94-14.87-14.56l-37.47-8.69v-39.13l37.41-8.69
				c7.25-1.62,13.13-7.37,14.93-14.62c3.9-16.12,10.79-32.54,20.93-50.33l0.06-0.06c1.56-2.81,6.36-11.38,0.06-21.39l-20.38-32.72
				l27.64-27.62l32.74,20.37c6.96,4.37,13.85,4.43,20.98,0.3c17.09-10.01,34.23-17.14,51.02-21.27c7.08-1.8,12.95-7.73,14.57-14.86
				l8.7-37.45h39.15l8.7,37.39c1.62,7.25,7.37,13.06,14.63,14.92c18.88,4.61,36.51,13.42,51.26,21.39
				c4.98,2.7,11.81,5.09,20.74-0.42l32.74-20.37l27.64,27.62l-20.45,32.72c-4.25,6.71-4.38,13.9-0.36,20.91l0.06,0.06
				c10.01,17.08,17.15,34.27,21.28,50.99c1.8,7.07,7.73,12.94,14.87,14.56l37.47,8.69V532.21z"/>
		</g>
	</g>
</g>
</svg>
