<?xml version="1.0" encoding="utf-8"?>
<!-- Generator: Adobe Illustrator 23.0.3, SVG Export Plug-In . SVG Version: 6.00 Build 0)  -->
<svg version="1.1" id="图层_1" xmlns="http://www.w3.org/2000/svg" xmlns:xlink="http://www.w3.org/1999/xlink" x="0px" y="0px"
	 viewBox="0 0 1024 1024" style="enable-background:new 0 0 1024 1024;" xml:space="preserve">
<style type="text/css">
	.st0{fill-rule:evenodd;clip-rule:evenodd;fill:#F5A623;}
	.st1{fill-rule:evenodd;clip-rule:evenodd;fill:#FFFFFF;}
	.st2{fill-rule:evenodd;clip-rule:evenodd;fill:#23C6F5;}
	.st3{fill-rule:evenodd;clip-rule:evenodd;fill:#95F523;}
	.st4{fill-rule:evenodd;clip-rule:evenodd;fill:#B723F5;}
	.st5{fill-rule:evenodd;clip-rule:evenodd;fill:#2381F5;}
	.st6{fill-rule:evenodd;clip-rule:evenodd;fill:#F57C23;}
</style>
<g>
	<circle class="st2" cx="510.78" cy="512.16" r="446.57"/>
	<g>
		<g>
			<path class="st1" d="M356.95,628.68h312.11V471.56c0-87.47-69.86-157.12-156.04-157.12c-86.21,0-156.07,71.16-156.07,157.12
				V628.68z M471.3,478.16l29.78-56.27c3.93-7.04,12.69-9.79,19.96-6.29c3.47,1.53,6.15,4.43,7.41,8c1.26,3.57,0.98,7.5-0.77,10.86
				l-18.97,35.93h35.44c5.08-0.04,9.84,2.47,12.66,6.68c2.71,4.1,2.96,9.35,0.64,13.68l-29.75,56.27
				c-2.65,4.85-7.78,7.85-13.32,7.79c-2.23,0-4.5-0.47-6.64-1.5c-3.47-1.53-6.15-4.42-7.41-8c-1.26-3.57-0.98-7.5,0.77-10.86
				l18.97-35.93h-35.45c-5.17,0-9.98-2.55-12.66-6.68C469.24,487.74,468.99,482.5,471.3,478.16z M637.86,314.21
				c8.91,4.44,17.84,2.96,22.29-2.96l19.32-25.19c4.45-7.42,2.99-17.79-2.99-22.25c-8.9-4.44-17.81-2.96-22.27,2.96v0.02
				l-17.84,25.19C630.44,297.9,631.91,309.77,637.86,314.21z M511.53,272.73c8.91,0,14.87-7.42,14.87-16.31v-31.14
				c0-10.36-5.96-16.31-14.89-16.31c-8.91,0-14.84,7.42-14.84,16.31v31.14C496.66,265.32,504.11,271.25,511.53,272.73z
				 M362.91,309.79c4.45,5.92,14.87,7.4,22.29,2.96c5.94-4.44,7.42-16.31,4.46-22.23l-19.32-25.21c-4.46-7.4-14.87-8.88-22.29-4.42
				c-5.96,5.93-7.44,16.29-2.97,22.21L362.91,309.79z M777.58,404.66c-2.99-7.4-13.4-11.87-20.83-8.89l-29.71,8.89
				c-7.44,2.96-11.9,13.35-8.93,20.75c2.97,7.42,13.38,11.87,20.81,8.9l29.73-8.88C776.08,423.93,780.53,415.04,777.58,404.66z
				 M325.75,690.96c0,16.31,14.85,31.14,31.2,31.14h310.63c17.84,0,31.22-13.35,31.22-31.14v-31.14H325.75V690.96z M294.53,401.67
				h-0.02l-29.69-8.9c-10.41-2.96-17.86,1.48-20.83,8.89c-2.97,10.39,1.51,17.81,8.93,20.77l29.71,8.91
				c10.41,1.48,17.84-2.98,20.8-8.88C306.43,412.04,301.96,404.64,294.53,401.67z"/>
		</g>
	</g>
</g>
</svg>
