<?xml version="1.0" standalone="no"?><!DOCTYPE svg PUBLIC "-//W3C//DTD SVG 1.1//EN" "http://www.w3.org/Graphics/SVG/1.1/DTD/svg11.dtd"><svg t="1631609483556" class="icon" viewBox="0 0 1024 1024" version="1.1" xmlns="http://www.w3.org/2000/svg" p-id="6688" xmlns:xlink="http://www.w3.org/1999/xlink" width="16" height="16"><defs><style type="text/css"></style></defs><path d="M795.82 802.3h-562.8c-11.06 0-20.02-8.96-20.02-20.02V584.54c0-47.45 11.89-94.75 34.37-136.78 52.74-98.6 152.1-157.69 265.81-158.06h1.08c113.29 0 212.59 58.39 265.82 156.38 23.57 43.36 35.77 91.24 35.77 139.37v196.82c-0.01 11.06-8.97 20.03-20.03 20.03z m-500.1-62.7h437.4c11.06 0 20.02-8.96 20.02-20.02V585.45c0-37.69-9.56-75.23-27.66-108.53C682.9 398.57 604.16 352.4 514.24 352.4h-0.86c-90.26 0.29-169.04 47-210.74 124.93-17.63 32.98-26.95 70.05-26.95 107.21v135.03c0.01 11.07 8.97 20.03 20.03 20.03zM896.66 928.29H129.34c-17.31 0-31.33-14.03-31.33-31.33v-0.03c0-17.3 14.03-31.33 31.33-31.33h767.32c17.3 0 31.33 14.03 31.33 31.33v0.03c0.01 17.31-14.02 31.33-31.33 31.33zM150.17 390.73l-26.41-15.47c-14.89-8.72-19.92-27.84-11.26-42.76l0.01-0.02c8.71-15.01 27.96-20.08 42.94-11.31l26.41 15.47c14.89 8.72 19.92 27.84 11.26 42.76l-0.01 0.02c-8.71 15.01-27.97 20.08-42.94 11.31zM285.83 237.78l-15.98-27.5c-8.66-14.9-3.66-33.99 11.18-42.74l0.04-0.02c14.97-8.82 34.26-3.78 43 11.25l15.98 27.5c8.66 14.9 3.66 33.99-11.18 42.74l-0.04 0.02c-14.98 8.82-34.27 3.77-43-11.25zM482.83 163.8v-34.23c0-17.31 14.03-31.34 31.33-31.34h0.03c17.3 0 31.33 14.03 31.33 31.33v34.23c0 17.31-14.03 31.34-31.33 31.34h-0.03c-17.3 0-31.33-14.03-31.33-31.33zM697.38 244.37l-0.03-0.02c-14.77-9.19-19.23-28.65-9.94-43.35l14.4-22.77c9.2-14.55 28.41-18.95 43.03-9.86l0.03 0.02c14.77 9.19 19.23 28.65 9.94 43.35l-14.4 22.77c-9.2 14.55-28.41 18.95-43.03 9.86zM832.09 380.16c-8.9-15.21-3.52-34.77 11.92-43.27l28.1-15.48c14.88-8.2 33.58-3.05 42.16 11.61 8.9 15.21 3.52 34.77-11.92 43.27l-28.1 15.48c-14.88 8.2-33.58 3.05-42.16-11.61z" p-id="6689" fill="#ffffff"></path></svg>