<?xml version="1.0" standalone="no"?><!DOCTYPE svg PUBLIC "-//W3C//DTD SVG 1.1//EN" "http://www.w3.org/Graphics/SVG/1.1/DTD/svg11.dtd"><svg t="1632986560743" class="icon" viewBox="0 0 1024 1024" version="1.1" xmlns="http://www.w3.org/2000/svg" p-id="7645" xmlns:xlink="http://www.w3.org/1999/xlink" width="200" height="200"><defs><style type="text/css"></style></defs><path d="M477.35 241.98c-149 0.35-269.69 121.05-270.05 270.04v350.71h-78.74a31.98 31.98 0 1 0 0 63.96h359.8c17.66 0 31.98-14.32 31.98-31.98s-14.32-31.98-31.98-31.98h-217.1V512.38c0-73.76 39.34-141.91 103.22-178.79 63.87-36.88 142.57-36.88 206.45 0 63.87 36.88 103.22 105.04 103.22 178.79v64.53c0 17.66 14.32 31.98 31.98 31.98s31.98-14.32 31.98-31.98v-64.53c-0.16-149.41-121.35-270.44-270.76-270.4z m310.41-5.76c-12.49-12.47-32.71-12.47-45.2 0l-38.45 38.45a31.976 31.976 0 0 0-9.18 31.31A31.965 31.965 0 0 0 718 329.05a31.98 31.98 0 0 0 31.31-9.19l38.45-38.45c12.47-12.47 12.47-32.7 0-45.19z m-581.88 83.65c12.6 11.74 32.23 11.4 44.41-0.78s12.52-31.81 0.78-44.41l-38.87-38.87c-12.6-11.74-32.24-11.39-44.41 0.79-12.18 12.18-12.53 31.81-0.78 44.41l38.87 38.86z m271.47-100.91c17.66 0 31.98-14.32 31.98-31.98v-56.85c0-17.66-14.32-31.98-31.98-31.98s-31.98 14.32-31.98 31.98v56.85c0 17.66 14.32 31.98 31.98 31.98z m0 0" p-id="7646" fill="#ffffff"></path><path d="M568.74 583.59l-72.06-0.36c-3.58-0.02-6.98-1.6-9.29-4.33-2.31-2.73-3.3-6.35-2.72-9.88l12.86-91.46c0.79-5.78-2.61-11.31-8.12-13.22-5.52-1.9-11.61 0.36-14.55 5.4L376.08 640.3a12.253 12.253 0 0 0 0 12.23c2.19 3.78 6.22 6.11 10.59 6.11h78.17c3.59-0.01 7.01 1.57 9.33 4.3 2.33 2.74 3.33 6.36 2.75 9.91l-13.15 79.66a12.223 12.223 0 0 0 7.9 13.47c5.53 2 11.71-0.23 14.69-5.3l92.81-158.76c2.17-3.76 2.19-8.39 0.04-12.17a12.213 12.213 0 0 0-10.47-6.16zM721.03 716.12h170.55c17.66 0 31.97-14.32 31.97-31.98s-14.31-31.98-31.97-31.98H721.03c-17.66 0-31.98 14.32-31.98 31.98s14.32 31.98 31.98 31.98z m170.55 40.37H721.03c-17.66 0-31.98 14.32-31.98 31.98s14.32 31.98 31.98 31.98h170.55c17.66 0 31.97-14.32 31.97-31.98 0.01-17.66-14.31-31.98-31.97-31.98z m0 106.6H721.03c-17.66 0-31.98 14.32-31.98 31.98s14.32 31.98 31.98 31.98h170.55c17.66 0 31.98-14.32 31.98-31.98s-14.32-31.98-31.98-31.98zM635.11 652.16h-18.26a32 32 0 0 0-27.7 15.99 31.993 31.993 0 0 0 0 31.98 31.967 31.967 0 0 0 27.7 15.99h18.26c17.66 0 31.98-14.32 31.98-31.98 0-17.65-14.32-31.97-31.98-31.98z m0 104.33h-18.26a31.98 31.98 0 0 0-27.7 47.97 31.967 31.967 0 0 0 27.7 15.99h18.26c11.43 0 21.99-6.09 27.7-15.99a31.993 31.993 0 0 0 0-31.98 31.967 31.967 0 0 0-27.7-15.99z m0 106.6h-18.26c-11.42 0-21.98 6.1-27.7 15.99a31.993 31.993 0 0 0 0 31.98 31.967 31.967 0 0 0 27.7 15.99h18.26a31.98 31.98 0 1 0 0-63.96z m0 0" p-id="7647" fill="#ffffff"></path></svg>