<?xml version="1.0" standalone="no"?><!DOCTYPE svg PUBLIC "-//W3C//DTD SVG 1.1//EN" "http://www.w3.org/Graphics/SVG/1.1/DTD/svg11.dtd"><svg t="1632986550186" class="icon" viewBox="0 0 1024 1024" version="1.1" xmlns="http://www.w3.org/2000/svg" p-id="7481" xmlns:xlink="http://www.w3.org/1999/xlink" width="200" height="200"><defs><style type="text/css"></style></defs><path d="M906.15 129.56h-786.3c-5.79 0-11.35 2.3-15.44 6.4-4.1 4.1-6.4 9.65-6.4 15.44v720.78c0 5.79 2.3 11.35 6.4 15.45 4.09 4.1 9.65 6.39 15.44 6.39h786.31c5.79 0 11.35-2.3 15.45-6.39 4.09-4.1 6.39-9.65 6.39-15.45V151.41c0-5.79-2.3-11.35-6.39-15.44a21.843 21.843 0 0 0-15.46-6.41z m-43.68 65.53v265.82h-61.81c-23.38-0.04-44.19 14.79-51.77 36.91l-21.84 65.53-39.31-110.75c-7.26-21.18-26.77-35.74-49.15-36.69-22.41-1.31-43.26 11.52-52.2 32.11L497.27 644.6l-79.28-290.72c-5.66-22-24.35-38.2-46.93-40.68-22.58-2.48-44.34 9.29-54.63 29.54l-79.51 149.18h-73.39V195.09h698.94zM163.53 828.51V557.23h80.6a54.611 54.611 0 0 0 48.27-28.83l69.67-131.05 80.6 293.77c5.77 22.51 25.31 38.78 48.49 40.41h4.59c21.44 0.09 40.9-12.51 49.58-32.11l90.21-198.54 39.75 114.45c7.45 22.08 28.25 36.88 51.55 36.69 23.37 0.15 44.17-14.74 51.55-36.91l30.15-87.37h53.95V828.5H163.53z" p-id="7482" fill="#ffffff"></path></svg>