<?xml version="1.0" standalone="no"?><!DOCTYPE svg PUBLIC "-//W3C//DTD SVG 1.1//EN" "http://www.w3.org/Graphics/SVG/1.1/DTD/svg11.dtd"><svg t="1569226735086" class="icon" viewBox="0 0 1024 1024" version="1.1" xmlns="http://www.w3.org/2000/svg" p-id="10846" width="128" height="128" xmlns:xlink="http://www.w3.org/1999/xlink"><defs><style type="text/css"></style></defs><path d="M841.1 434.9H605.3c-20.9 0-38-17-38-38V136.2c0-15.8 9.5-29.7 24.3-35.4 14.8-5.7 31.2-1.8 41.8 10l235.8 260.7c10.1 11.1 12.6 27.2 6.5 40.9-6 13.6-19.6 22.5-34.6 22.5z m-201.7-72.2h124.7L639.4 224.9v137.8z" fill="#ffffff" p-id="10847"></path><path d="M816.2 927.8H144.9V98.3h462.9v72.1H217.1v685.2h599.1z" fill="#ffffff" p-id="10848"></path><path d="M303.1 330.4h134.4v72.1H303.1zM303.1 513.6h268.7v72.1H303.1zM303.1 696.8h195.5v72.1H303.1zM637.8 741.4l-72.1 18.1 17.3-64.3L821.2 457l45-4.1 6 6 6 6-6 43.1z" fill="#ffffff" p-id="10849"></path></svg>