<?xml version="1.0" standalone="no"?><!DOCTYPE svg PUBLIC "-//W3C//DTD SVG 1.1//EN" "http://www.w3.org/Graphics/SVG/1.1/DTD/svg11.dtd"><svg t="1573537022295" class="icon" viewBox="0 0 1024 1024" version="1.1" xmlns="http://www.w3.org/2000/svg" p-id="2873" xmlns:xlink="http://www.w3.org/1999/xlink" width="128" height="128"><defs><style type="text/css"></style></defs><path d="M458 110H142c-17.7 0-32 14.3-32 32v316c0 17.7 14.3 32 32 32h316c17.7 0 32-14.3 32-32V142c0-17.7-14.3-32-32-32z m-40 308H182V182h236v236zM458 532H142c-17.7 0-32 14.3-32 32v316c0 17.7 14.3 32 32 32h316c17.7 0 32-14.3 32-32V564c0-17.7-14.3-32-32-32z m-40 308H182V604h236v236zM880 110H564c-17.7 0-32 14.3-32 32v316c0 17.7 14.3 32 32 32h316c17.7 0 32-14.3 32-32V142c0-17.7-14.3-32-32-32zM880 532H564c-17.7 0-32 14.3-32 32v316c0 17.7 14.3 32 32 32h316c17.7 0 32-14.3 32-32V564c0-17.7-14.3-32-32-32z m-40 308H604V604h236v236z" p-id="2874" fill="#ffffff"></path></svg>