<?xml version="1.0" standalone="no"?><!DOCTYPE svg PUBLIC "-//W3C//DTD SVG 1.1//EN" "http://www.w3.org/Graphics/SVG/1.1/DTD/svg11.dtd"><svg t="1569226692509" class="icon" viewBox="0 0 1024 1024" version="1.1" xmlns="http://www.w3.org/2000/svg" p-id="10094" width="128" height="128" xmlns:xlink="http://www.w3.org/1999/xlink"><defs><style type="text/css"></style></defs><path d="M899.2 927.3H123.3V412.2c0-23.3 8.9-45.2 25.2-61.9l47.5-48.7 50.4 49.1-47.5 48.7c-3.3 3.4-5.2 8-5.2 12.7v444.7h635.1V409.7c0-4.2-1.5-8.4-4.2-11.6l-41-49.4 54.2-44.9 41 49.4c13.2 15.9 20.4 36 20.4 56.6v517.5z" fill="#ffffff" p-id="10095"></path><path d="M509.3 579.2L270.2 340.1 512.1 98.2 752.4 336 509.3 579.2zM369.7 340.1l139.5 139.5 143.4-143.4-140.3-138.7-142.6 142.6zM284.3 606.5h453.8v70.4H284.3z" fill="#ffffff" p-id="10096"></path></svg>