<?xml version="1.0" standalone="no"?><!DOCTYPE svg PUBLIC "-//W3C//DTD SVG 1.1//EN" "http://www.w3.org/Graphics/SVG/1.1/DTD/svg11.dtd"><svg t="1569226677167" class="icon" viewBox="0 0 1024 1024" version="1.1" xmlns="http://www.w3.org/2000/svg" p-id="9827" width="128" height="128" xmlns:xlink="http://www.w3.org/1999/xlink"><defs><style type="text/css"></style></defs><path d="M685.2 928.3H234c-64.6 0-117.1-52.5-117.1-117.1V215.3c0-64.6 52.5-117.1 117.1-117.1h451.3c64.6 0 117.1 52.5 117.1 117.1v182.2h-72.2V215.3c0-24.8-20.1-44.9-44.9-44.9H234c-24.8 0-44.9 20.1-44.9 44.9v595.9c0 24.8 20.1 44.9 44.9 44.9h451.3c24.8 0 44.9-20.1 44.9-44.9h72.2c-0.1 64.6-52.6 117.1-117.2 117.1z" fill="#ffffff" p-id="9828"></path><path d="M271.6 263.1h381.8v72.2H271.6zM271.6 384.6h266.1v72.2H271.6zM271.6 529.2h144.6v72.2H271.6z" fill="#ffffff" p-id="9829"></path><path d="M636.1 792.3c-99.7 0-180.7-81.1-180.7-180.7 0-99.7 81.1-180.7 180.7-180.7S816.8 512 816.8 611.6c0 99.7-81.1 180.7-180.7 180.7z m0-289.2c-59.9 0-108.5 48.7-108.5 108.5s48.7 108.5 108.5 108.5 108.5-48.7 108.5-108.5-48.7-108.5-108.5-108.5z" fill="#ffffff" p-id="9830"></path><path d="M743.893 703.16l44.577-56.793 118.619 93.104-44.576 56.792z" fill="#ffffff" p-id="9831"></path></svg>