<?xml version="1.0" standalone="no"?><!DOCTYPE svg PUBLIC "-//W3C//DTD SVG 1.1//EN" "http://www.w3.org/Graphics/SVG/1.1/DTD/svg11.dtd"><svg t="1569226704592" class="icon" viewBox="0 0 1024 1024" version="1.1" xmlns="http://www.w3.org/2000/svg" p-id="10359" width="128" height="128" xmlns:xlink="http://www.w3.org/1999/xlink"><defs><style type="text/css"></style></defs><path d="M512 928.3L148.1 735a41.5 41.5 0 0 1-22.1-36.7V139.7c0-13.8 6.8-26.7 18.2-34.4 11.4-7.7 25.9-9.3 38.7-4.2l329.4 131.3 329.1-131.3c12.8-5.1 27.3-3.6 38.7 4.2 11.4 7.7 18.3 20.6 18.3 34.4v570.1c0 15.9-8.8 30.1-23 37.2L512 928.3zM197.9 680.1L513 847.5l313.7-156.4V184.4L512.5 309.7 197.9 184.4v495.7z m-41.4-512.2z m711.8 0c-0.1 0-0.1 0 0 0z" fill="#ffffff" p-id="10360"></path><path d="M296.2 503.8a70.8 111.6 0 1 0 141.6 0 70.8 111.6 0 1 0-141.6 0Z" fill="#ffffff" p-id="10361"></path><path d="M560.813 395.777l168.93-81.818 31.341 64.71-168.93 81.818zM560.84 535.47l168.93-81.818 31.34 64.71-168.93 81.818zM560.835 663.47l168.93-81.819 31.341 64.71-168.93 81.819z" fill="#ffffff" p-id="10362"></path></svg>