<?xml version="1.0" standalone="no"?><!DOCTYPE svg PUBLIC "-//W3C//DTD SVG 1.1//EN" "http://www.w3.org/Graphics/SVG/1.1/DTD/svg11.dtd"><svg t="1570506974272" class="icon" viewBox="0 0 1024 1024" version="1.1" xmlns="http://www.w3.org/2000/svg" p-id="8854" xmlns:xlink="http://www.w3.org/1999/xlink" width="128" height="128"><defs><style type="text/css"></style></defs><path d="M771.3 96H256.7C170.2 96 100 166.4 100 252.8v514.6c0 86.4 70.4 156.7 156.7 156.7h213c16 0 30.2-14.1 30.2-30.2 0-16-14.1-30.2-30.2-30.2h-213c-54.2 0-96.5-44.3-96.5-96.5V252.8c0-52.3 44.3-96.4 96.5-96.4h514.6c54.2 0 96.5 44.3 96.5 96.4v375.8c-10.1-4-18.1-6.1-28.1-6.1h-66.4c-76.4 0-138.7 62.4-138.7 138.7v86.5c0 42.2 34.2 76.4 76.4 76.4h60.3c86.4 0 156.7-70.4 156.7-156.7V252.8C928 166.3 857.7 96 771.3 96z m96.4 671.4c0 54.2-44.3 96.5-96.5 96.5h-60.3c-8 0-16.1-6.1-16.1-16.1v-86.5c0-42.2 34.2-78.4 78.4-78.4h66.4c16.1 0 28.1 12 28.1 28.1v56.4zM270.8 526.2h184.9c16 0 30.2-14.1 30.2-30.2s-14.1-30.2-30.2-30.2H270.8c-16.1 0-30.2 14.1-30.2 30.2s14 30.2 30.2 30.2z m301.4 132.7H270.8c-16.1 0-30.2 14.1-30.2 30.2s14.1 30.2 30.2 30.2h301.6c16.1 0 30.2-14.1 30.2-30.2-0.2-16.2-14.2-30.2-30.4-30.2z m-60.3-424.1c-4 0-10.1 2.1-12 6.1-28.1 36.2-30.2 84.4-6.1 122.6 22.1 34.2 60.3 52.3 100.6 48.3L703 590.7c4 8 12 14.1 22.1 16.1h8c6.1 0 12-1.9 18.1-6.1l28.1-18.1c8-4 14.1-12 16-22.1 1.9-8 0-18.1-4-26.1L676.8 359.3c20.1-34.2 20.1-78.4 0-112.6-24.1-36.2-66.4-56.3-108.6-48.3-4 0-10.1 4-10.1 8-1.9 4-1.9 10.1 2.1 14.1l34.2 54.4-34.2 22.1-36.2-54.2c-2-4-6-6.1-12.1-8z m32.2 88.4c4 8 14.1 10.1 20.1 4l54.2-30.2c4-2.1 6.1-6.1 6.1-10.1s0-8-2.1-12l-28.1-44.3c22.1 2.1 42.2 16.1 54.2 34.2 16 26.1 16 60.3-4 86.5-4 6.1-4 12 0 18.1l120.6 182.9v2.1s0 2.1-2.1 2.1l-28 18h-2s-2.1 0-2.1-2.1L616.3 385.6c-2.1-4-8-8-12-8h-4c-30.2 6.1-62.3-6.1-80.4-34.2-12-20.1-16.1-44.3-6.1-66.4l30.3 46.2z m-273.3 12h88.4c16.1 0 30.2-14.1 30.2-30.2 0-16-14.1-30.2-30.2-30.2h-88.4c-16.1-2.1-30.2 12-30.2 28.1 0 16.3 14 32.3 30.2 32.3z m0 0" p-id="8855" fill="#ffffff"></path></svg>