<?xml version="1.0" standalone="no"?><!DOCTYPE svg PUBLIC "-//W3C//DTD SVG 1.1//EN" "http://www.w3.org/Graphics/SVG/1.1/DTD/svg11.dtd"><svg t="1573801340308" class="icon" viewBox="0 0 1024 1024" version="1.1" xmlns="http://www.w3.org/2000/svg" p-id="4612" xmlns:xlink="http://www.w3.org/1999/xlink" width="128" height="128"><defs><style type="text/css"></style></defs><path d="M750.029 239.316H102.441c-37.61 0-68.165 30.524-68.165 68.166v408.967c0 37.681 30.557 68.166 68.165 68.166h68.169v170.483l170.419-170.483h409.003c37.676 0 68.165-30.486 68.165-68.166V307.482c-0.001-37.644-30.491-68.166-68.166-68.166z m0 477.134H312.801l-74.026 74.026V716.45H102.439V307.483h647.588V716.45z m-494.21-153.31c28.291 0 51.123-22.963 51.123-51.189 0-28.192-22.831-51.091-51.123-51.091-28.292 0-51.127 22.899-51.127 51.091 0 28.226 22.835 51.189 51.127 51.189z m170.417 0c28.29 0 51.123-22.963 51.123-51.189 0-28.192-22.831-51.091-51.123-51.091-28.293 0-51.126 22.899-51.126 51.091-0.001 28.226 22.831 51.189 51.126 51.189z m170.414 0c28.226 0 51.127-22.963 51.127-51.189 0-28.192-22.9-51.091-51.127-51.091-28.223 0-51.122 22.899-51.122 51.091 0 28.226 22.898 51.189 51.122 51.189zM920.446 68.898H272.859c-37.613 0-68.169 30.523-68.169 68.165v68.169h68.169v-68.169h647.587v408.971h-68.169v68.165h68.169c37.677 0 68.165-30.49 68.165-68.165V137.063c0-37.644-30.489-68.165-68.165-68.165z m0 0z" p-id="4613" fill="#ffffff"></path></svg>