<?xml version="1.0" standalone="no"?><!DOCTYPE svg PUBLIC "-//W3C//DTD SVG 1.1//EN" "http://www.w3.org/Graphics/SVG/1.1/DTD/svg11.dtd"><svg t="1572854055044" class="icon" viewBox="0 0 1024 1024" version="1.1" xmlns="http://www.w3.org/2000/svg" p-id="4897" xmlns:xlink="http://www.w3.org/1999/xlink" width="128" height="128"><defs><style type="text/css"></style></defs><path d="M587.4 598.3c7.4 1 14.9-1.3 20.7-6.2 12-9.4 14.5-27.3 5.5-39.9-25.7-35.4-59.9-62.9-99.3-79.7 41.7-39.5 55.9-101.8 35.6-156.7-20.3-54.9-70.8-91.1-127.2-91.1-56.4 0-106.9 36.2-127.2 91.1-20.3 54.9-6.2 117.2 35.6 156.7-88.1 38.5-145.8 128-146.7 227.7 0 15.7 12.2 28.5 27.3 28.5 15.1 0 27.3-12.7 27.3-28.5 1.9-81.4 52.6-152.7 126.7-178.2 74.1-25.4 155.5 0.5 203.3 64.9 4.3 6.4 11 10.5 18.4 11.4zM422.7 453.2c-45.2 0-81.8-38.2-81.8-85.4s36.6-85.4 81.8-85.4c45.2 0 81.8 38.2 81.8 85.4 0 47.1-36.6 85.4-81.8 85.4z m348.5 203.2c-28.9-11.3-61.5-3.3-82.6 20.2-21.1 23.6-26.5 58.1-13.7 87.4 12.8 29.3 41.3 47.8 72.2 46.6 30.9-1.1 58.1-21.6 68.9-51.8 14.7-41.1-5.4-86.9-44.8-102.4zM775 743c-5.8 16.2-22.3 25.3-38.4 21.2-16.1-4.1-26.7-20.1-24.7-37.3 2-17.2 16-30.1 32.6-30 10.7 0 20.7 5.5 26.8 14.7 6.1 9.2 7.5 20.9 3.7 31.4z m66.6-425.4c0-15.7-12.2-28.5-27.3-28.5H650.7c-15.1 0-27.3 12.7-27.3 28.5 0 15.7 12.2 28.5 27.3 28.5h163.6c15.1 0 27.3-12.7 27.3-28.5z m78 406c-15.8-4.6-28-17.7-32-34.2-4-16.6 0.7-34.1 12.4-46.1l8.2-8-66.6-68.3-6.5-5.7-7.1 5.7c-11.7 11.9-28.6 16.4-44.3 11.9-15.7-4.6-28-17.6-32.1-34.1V534l-90 25.6-12 7.4v10.2c3.7 16-0.9 32.8-12 44.4-11.1 11.6-27.2 16.4-42.5 12.6h-10.4l-24 90V735l8.2 2.8c16 4.5 28.4 17.7 32.5 34.4 4.1 16.8-0.8 34.5-12.8 46.4l-7.6 8 64.4 67.2 8.2 6.8 7.6-8c18.1-17.8 46.3-17.8 64.4 0 5.8 6 9.9 13.4 12 21.6l3.3 10.8 88.4-25.1 12.5-4v-10.8c-4-14.4-1.2-29.9 7.5-41.8 8.7-11.9 22.3-18.8 36.7-18.6 4.3-0.6 8.7-0.6 13.1 0h9.8l19.6-87.1V727l-8.9-3.4zM865 793.1c-17.4-3-35 2.9-47.5 15.9-12.4 13-18.1 31.4-15.2 49.6l-50.7 14.2c-6.9-16.1-20.6-28-37-32.1-16.4-4.1-33.8 0-47 11L631 813.6c11.2-14.2 15.1-33.1 10.5-50.8-4.5-17.7-17-32.1-33.4-38.6l15.3-55.2c17.3 2 34.5-4.3 46.9-17.1 12.5-12.7 18.4-30.9 15.8-49l51.3-14.2c2.8 6.8 6.9 13 12 18.2 19.5 21.4 51.5 23.6 73.6 5.1l36.5 38.1c-10.5 13.9-14.3 32.1-10.1 49.3 4.2 17.2 15.8 31.4 31.4 38.4L865 793.1zM649.6 390c-15.1 0-27.3 12.7-27.3 28.5 0 15.7 12.2 28.5 27.3 28.5h109.1c15.1 0 27.3-12.7 27.3-28.5 0-15.7-12.2-28.5-27.3-28.5H649.6zM494.1 778.3h-294c-25.9 0-46.9-21.9-46.9-49v-529c0-27 21-49 46.9-49h615.8c25.9 0 46.9 21.9 46.9 49v294.4c0 15.7 12.2 28.5 27.3 28.5 15.1 0 27.3-12.7 27.3-28.5V153.1c0-31.4-24.4-56.9-54.5-56.9h-709c-30.1 0-54.5 25.5-54.5 56.9v626.3c0 31.4 24.4 56.9 54.5 56.9h340.3c15.4 0 27.8-13 27.8-29s-12.5-29-27.9-29z" p-id="4898" fill="#ffffff"></path></svg>