<?xml version="1.0" standalone="no"?><!DOCTYPE svg PUBLIC "-//W3C//DTD SVG 1.1//EN" "http://www.w3.org/Graphics/SVG/1.1/DTD/svg11.dtd"><svg t="1569226656826" class="icon" viewBox="0 0 1024 1024" version="1.1" xmlns="http://www.w3.org/2000/svg" p-id="9422" width="128" height="128" xmlns:xlink="http://www.w3.org/1999/xlink"><defs><style type="text/css"></style></defs><path d="M508.4 919.1c79.7 2.2 158.6-16.9 228.5-55.4 93.4-56.4 147.3-160.3 139.7-269.2-4.1-78.5-38.3-152.3-95.5-206.2-18.4-18.1-37.9-35-58.4-50.8L712 329l11.7-6.1c32.1-14.2 53.1-45.7 53.8-80.7-1.3-27.7-13.8-53.7-34.7-71.9-20.9-18.2-48.4-27.1-76-24.6-13 0-25.9 2.4-38.1 7.1l-10.2 4.6-5.1 3-5.6-6.1c-5.7-7.5-12.2-14.5-19.3-20.8-38.7-34.9-97.4-34.9-136.1 0-7.2 6-13.5 13-18.8 20.8l-4.1 6.6-7.1-3.6-9.6-4.6c-12.2-4.7-25.1-7.1-38.1-7.1-27.4-2.7-54.7 5.9-75.6 23.7-21 17.8-33.8 43.3-35.6 70.8 0.6 29.3 15.6 56.5 40.1 72.6l9.6 7.1-9.6 7.1c-21.9 16.6-42.4 35-61.4 54.8-58.3 55.8-92.4 132.2-95 212.8 0.1 197.1 141.8 324.6 361.2 324.6zM279.9 417.4c17.5-18.5 36.5-35.5 56.9-50.8l18.8-12.7 6.6-4.6c12.6-7.1 20.2-20.6 19.8-35-0.9-11.6-7.3-22-17.3-27.9l-13.2-7.1c-19.4-3.5-34.1-19.5-36.1-39.1 0-20.3 22.3-42.7 59.4-42.7 6.7 0.2 13.4 1.4 19.8 3.6h9.1c22.5 11.4 49.9 6.9 67.5-11.2v-3c4.4-5.4 9.5-10.2 15.2-14.2 8.9-9.3 21.2-14.5 34-14.5s25.1 5.2 34 14.5c5.2 4.5 9.8 9.6 13.7 15.2 17 19.6 44.8 25.8 68.6 15.2h8.6c6.4-2.2 13.1-3.4 19.8-3.6 36.6 0 58.9 22.3 58.9 42.7 0 20.3-14.7 33-38.1 40.1h-3.6c-4.1 1.9-8.3 3.4-12.7 4.6-15.2 3.6-26.8 15.7-30 31-1.5 14.7 5.6 29 18.3 36.6l7.1 5.1 19.3 13.7c20.5 15.3 39.7 32.3 57.4 50.8 48.2 44 77.3 105 81.3 170.1 0 225.5-172.2 272.7-316.4 272.7s-307.7-71.1-307.7-272.2c3.1-67.4 32-131 81-177.3z m0 0" fill="#ffffff" p-id="9423"></path><path d="M520.7 928.2c-4.1 0-8.2-0.1-12.4-0.2-224.7 0-369.9-130.9-369.9-333.5 2.7-83.8 37.4-161.5 97.7-219.2 19-19.9 40-38.6 62.2-55.5-26.6-17.5-43-47.3-43.6-79.6v-0.8c1.9-29.7 16.1-57.8 38.7-77 22.6-19.2 52.4-28.6 81.9-25.8 14 0.1 27.7 2.7 40.8 7.7l0.6 0.3 9.6 4.6c5.9-8.6 12.7-16.1 20.4-22.6 42-37.9 105.6-37.9 147.9 0.2 7.3 6.5 14.1 13.8 20.2 21.7l0.4 0.5 9.8-4.4c13.5-5.3 27.3-7.8 41.4-7.9 29.8-2.6 59.7 7.1 82.3 26.8 22.6 19.7 36.4 48.2 37.8 78.3v0.6c-0.8 38-23.6 72.6-58.2 88.3 20.5 15.8 40.4 33.1 59 51.3 59.1 55.6 94 130.9 98.2 212.1 7.9 112.6-47.2 218.9-144 277.3-67.8 37.3-143.8 56.8-220.8 56.8zM272.6 240.3c0.6 26.3 14.1 50.5 36.1 64.9l19.8 14.6-19.4 14.3c-21.3 16.2-41.6 34.4-60.3 53.8-57.2 54.8-89.9 128.1-92.5 206.9 0 191.4 138.2 315.3 352.1 315.3h0.2c78.1 2.2 155.5-16.6 224-54.2 90.7-54.7 142.5-154.7 135-260.7-4-76.7-36.9-147.8-92.7-200.3-18.3-17.9-37.6-34.7-57.7-50.2l-21.4-17.4 23.8-12.4c29.2-12.9 48.2-41.4 49-72.7-1.2-25-12.8-48.8-31.7-65.3-19-16.5-44.2-24.7-69.3-22.4h-0.8c-12 0-23.7 2.2-34.9 6.5l-9.2 4.2-10.9 6.5-11-12.1c-5.4-7.1-11.5-13.7-18.1-19.6-35.4-32-88.8-32-124.2 0-6.8 5.7-12.6 12.1-17.4 19.2l-8.1 13.2-23.6-11.4c-11.1-4.2-22.7-6.4-34.6-6.4h-0.8c-24.8-2.4-49.9 5.4-68.9 21.6-19 16-30.8 39.4-32.5 64.1z m234.3 635.4c-146.1 0-316.7-73.6-316.7-281.2 2.9-70.3 32.5-135.4 83.4-183.6 17.7-18.8 37.2-36.1 57.8-51.6l26.3-17.9c9.7-5.5 15.6-15.9 15.3-27-0.6-8.2-5.4-16-12.9-20.5l-11.7-6.3c-22.5-4.7-39.6-23.8-41.9-46.7v-0.9c0-24.8 26.1-51.6 68.4-51.6 7.4 0.2 14.4 1.4 21.2 3.6h9.9l1.9 1c18.1 9.2 39.6 6.3 54.5-7v-2.4l2-2.5c4.7-5.9 10.2-11.1 16.4-15.4 10.5-10.6 25-16.6 39.9-16.6 15.1 0 29.7 6.2 40.2 16.9 5.5 4.8 10.4 10.3 14.6 16.2 14.5 16.5 37.7 21.6 57.8 12.6l1.7-0.8h9.1c6.8-2.2 13.9-3.4 21.1-3.6 42.1 0 68 26.8 68 51.6 0 16-7.7 37.5-44.4 48.7l-1.3 0.4h-3c-4 1.7-8.1 3.1-12.3 4.3-11.8 2.8-20.9 12.1-23.4 23.7-1 11 4.5 21.8 14 27.5l0.6 0.4 26.4 18.8c20.9 15.6 40.5 33 58.5 51.7 50 45.8 79.8 108.3 83.9 176 0 233.4-176.9 282.2-325.3 282.2z m-140-518.8L341.8 374c-19.5 14.7-38.3 31.4-55.4 49.5l-0.4 0.4c-47.5 45-75.2 105.7-78 171.1 0 193.7 154.4 262.9 298.8 262.9 140.2 0 307.4-45.8 307.4-263.8-3.8-62.6-31.6-120.9-78.3-163.5l-0.4-0.4c-17.3-18.1-36.3-34.8-56.3-49.8l-26-18.5c-15.4-9.4-24.1-27-22.3-45l0.1-0.9c3.8-18.6 18.2-33.5 36.6-37.9 3.6-1 7.4-2.3 11.1-4l1.8-0.8h4.1c30.5-9.7 30.5-25.8 30.5-31.2 0-14.1-17.4-33.7-50-33.7-5.6 0.1-11.4 1.1-16.8 3l-1.4 0.5h-8.3c-27.1 11.2-57.9 4-77.2-18.3l-0.6-0.8c-3.5-5-7.6-9.6-12.2-13.6l-0.6-0.6c-7.2-7.5-17.2-11.7-27.6-11.7s-20.4 4.3-27.6 11.7l-1.3 1.1c-4.2 2.9-8 6.3-11.4 10.2v3.4l-2.6 2.6c-20 20.4-50.3 25.9-76 13.9h-8.6l-1.4-0.5c-5.6-1.9-11.3-2.9-17.2-3.1-30.6 0-49.9 17.2-50.2 33.3 1.7 15.3 13.5 27.9 28.7 30.7l1.4 0.3 14.5 7.8c12.8 7.6 20.9 20.7 22 35.2 0.7 18.2-8.5 34.6-23.8 43.4z" fill="#ffffff" p-id="9424"></path><path d="M508.4 749.5c10.8 1.2 20.5-6.5 21.8-17.3v-70.1H610c12.1 0 21.8-9.8 21.8-21.8 0-12.1-9.7-22.1-21.8-22.3h-79.7v-35.5H610c10.9-1.7 19-11 19-22.1 0-11-8.1-20.4-19-22.1h-79.2l74.1-76.2c8.6-8.7 8.6-22.8 0-31.5-8.6-8-21.9-8-30.5 0l-66 67-65.5-67c-8.9-7.6-22.1-7.6-31 0-9.1 8.3-9.8 22.4-1.5 31.5l76.2 76.2h-79.7c-10.9 1.7-19 11-19 22.1 0 11 8.1 20.4 19 22.1h79.7V618h-79.7c-5.8 0.1-11.3 2.6-15.3 6.8-4 4.2-6.2 9.8-6 15.6-0.1 5.7 2.1 11.3 6.1 15.4 4 4.1 9.5 6.4 15.3 6.4h79.7v70.1c1.2 10.7 10.9 18.4 21.7 17.2z m0 0" fill="#ffffff" p-id="9425"></path><path d="M510.6 758.6c-0.7 0-1.4 0-2.2-0.1-15.2 1.1-28.9-10-30.7-25.2l-0.1-1.1v-61.1h-70.8c-8.1 0-16-3.3-21.6-9.1-5.7-5.8-8.8-13.8-8.6-21.9-0.2-7.8 2.8-15.6 8.5-21.6 5.7-6 13.3-9.3 21.6-9.5h71v-17.6l-72.1-0.1c-15.4-2.3-26.6-15.4-26.6-30.9 0-15.6 11.2-28.6 26.6-30.9l1.4-0.1h58.1l-60.9-60.9c-11.8-13.1-10.9-32.9 1.8-44.4 12.6-10.7 30.5-10.7 42.8-0.2l0.6 0.6 59.1 60.5 59.6-60.5c12.2-11.4 31-11.4 43-0.3 12.3 12.4 12.3 32.2 0.3 44.3L552 529.3l59.4 0.1c15.4 2.4 26.6 15.4 26.6 30.9 0 15.6-11.2 28.6-26.6 30.9l-1.3 0.1h-70.8V609H610c17.1 0.4 30.8 14.4 30.8 31.3 0 17-13.8 30.8-30.8 30.8h-70.8l-0.1 62.2c-1.8 14.5-14.2 25.3-28.5 25.3z m-2.2-18.1l1 0.1c5.7 0.7 11-3.4 11.9-9v-78.4H610c7.1 0 12.9-5.8 12.9-12.9 0-7.3-5.7-13.2-13.1-13.4h-88.5v-53.5h87.9c6.3-1.2 10.8-6.7 10.8-13.1s-4.5-11.9-10.8-13.1h-99.7l88.9-91.4c5.2-5.3 5.2-13.7 0.1-18.9-4.9-4.5-12.9-4.5-18 0.2l-72.2 73.3-71.6-73.2c-5.6-4.6-13.6-4.5-19.1 0.2-5.2 4.8-5.6 13.2-0.7 18.7l91.2 91.1H407.6c-6.3 1.2-10.8 6.7-10.8 13.1s4.5 11.9 10.8 13.1h87.9v53.5h-88.7c-3.2 0.1-6.4 1.5-8.8 4-2.4 2.5-3.6 5.8-3.6 9.2-0.1 3.7 1.2 7 3.5 9.4 2.3 2.4 5.5 3.7 8.8 3.7h88.7v78.4c0.9 5.6 6.2 9.6 11.9 9l1.1-0.1z" fill="#ffffff" p-id="9426"></path></svg>