<?xml version="1.0" standalone="no"?><!DOCTYPE svg PUBLIC "-//W3C//DTD SVG 1.1//EN" "http://www.w3.org/Graphics/SVG/1.1/DTD/svg11.dtd"><svg t="1573537000001" class="icon" viewBox="0 0 1024 1024" version="1.1" xmlns="http://www.w3.org/2000/svg" p-id="2693" xmlns:xlink="http://www.w3.org/1999/xlink" width="128" height="128"><defs><style type="text/css"></style></defs><path d="M700.3 330.6H598.8c-18 0-32.6 14.6-32.6 32.6s14.6 32.6 32.6 32.6h28l-54.4 54.5-95.5-95.5c-12.7-12.7-33.4-12.7-46.1 0l-120.9 121c-12.7 12.7-12.7 33.4 0 46.1 6.1 6.1 14.5 9.6 23.1 9.6 8.7 0 16.9-3.4 23.1-9.6l97.7-97.8 95.5 95.4c6.2 6.2 14.4 9.6 23.1 9.6 8.7 0 16.9-3.4 23.1-9.6l75.4-75.6v25.6c0 8.7 3.4 16.9 9.6 23.1 6.1 6.2 14.3 9.5 23 9.6h0.2c8.5 0 16.9-3.4 23-9.5 6.1-6.1 9.6-14.5 9.6-23.1V366.5c-0.2-19.7-16.2-35.8-36-35.9zM345.3 562.6c-18 0-32.6 14.6-32.6 32.6v116.9c0 8.7 3.4 16.9 9.6 23.1 6.2 6.2 14.4 9.6 23.1 9.6 8.7 0 16.9-3.4 23.1-9.6 6.2-6.2 9.6-14.4 9.6-23.1V595.3c-0.2-18-14.8-32.7-32.8-32.7z" p-id="2694" fill="#ffffff"></path><path d="M472.9 485.9c-10.1-5.8-22.6-5.8-32.6 0-10.1 5.8-16.3 16.6-16.3 28.2v198c0 8.7 3.4 16.9 9.6 23.1 6.2 6.2 14.4 9.6 23.1 9.6 8.7 0 16.9-3.4 23.1-9.6 6.2-6.2 9.5-14.4 9.5-23.1v-198c-0.1-11.5-6.3-22.4-16.4-28.2zM568 610.1c-18 0-32.6 14.6-32.6 32.6v69.5c0 8.7 3.4 16.9 9.6 23.1 6.2 6.2 14.4 9.6 23.1 9.6 8.7 0 16.9-3.4 23.1-9.6 6.2-6.2 9.6-14.4 9.6-23.1v-69.5c-0.2-18-14.8-32.6-32.8-32.6zM679.4 531.6c-18 0-32.6 14.6-32.6 32.6v148c0 8.7 3.4 16.9 9.6 23.1 6.2 6.2 14.3 9.6 23.1 9.6 8.6 0 17-3.5 23.1-9.6 6.2-6.2 9.6-14.4 9.6-23.1v-148c-0.2-18-14.9-32.6-32.8-32.6z" p-id="2695" fill="#ffffff"></path><path d="M845.6 156.7h-189v-25.8c0-18-14.6-32.6-32.6-32.6s-32.6 14.6-32.6 32.6v25.8h-46.5v-25.8c0-18-14.6-32.6-32.6-32.6s-32.6 14.6-32.6 32.6v25.8h-46.4v-25.8c0-18-14.6-32.6-32.6-32.6s-32.6 14.6-32.6 32.6v25.8H179c-29.7 0-53.9 24.2-54 53.9v663.3c-0.1 14.3 5.7 28.3 15.7 38.4 10.1 10.1 24 15.9 38.3 15.9h663.1c0.6 0 1.2 0.1 1.8 0.1 0.6 0 1.3 0 1.9-0.1h2.5c0.4 0 0.8-0.1 1.2-0.1 0.5 0 1-0.1 1.4-0.1 0.4 0 0.8-0.1 1.2-0.2 0.5-0.1 0.9-0.1 1.4-0.2 0.4-0.1 0.8-0.1 1.2-0.2 0.5-0.1 0.9-0.2 1.4-0.3l1.2-0.3c0.5-0.1 0.9-0.2 1.4-0.3l1.2-0.3c0.5-0.1 0.9-0.2 1.4-0.4 0.4-0.1 0.8-0.3 1.2-0.4 0.4-0.1 0.9-0.3 1.3-0.4 0.4-0.1 0.8-0.3 1.2-0.5 0.4-0.2 0.9-0.3 1.3-0.5s0.8-0.3 1.2-0.5c0.4-0.2 0.8-0.4 1.3-0.6 0.4-0.2 0.8-0.4 1.1-0.6l1.2-0.6c0.4-0.2 0.8-0.4 1.1-0.6 0.4-0.2 0.8-0.4 1.2-0.7 0.4-0.2 0.8-0.5 1.1-0.7 0.4-0.2 0.7-0.5 1.1-0.7 0.4-0.3 0.8-0.5 1.1-0.8 0.3-0.2 0.7-0.5 1-0.7l1.2-0.9c0.3-0.2 0.6-0.5 0.9-0.7 0.4-0.3 0.8-0.7 1.2-1.1 0.3-0.2 0.5-0.4 0.8-0.7 0.7-0.6 1.3-1.2 1.9-1.8 2.5-2.5 4.8-5.3 6.7-8.3 5.9-8.9 9.1-19.4 9-30.1V210.6c0.2-29.7-24.1-53.9-53.8-53.9zM190.3 862.9V222.2H368v25.5c0 8.6 3.5 17 9.6 23.1 6.2 6.2 14.4 9.6 23.1 9.6 8.7 0 16.9-3.4 23.1-9.6 6.1-6.1 9.6-14.5 9.6-23.1v-25.5h46.4v25.5c0 8.6 3.5 17 9.6 23.1 6.2 6.2 14.4 9.6 23.1 9.6 8.7 0 16.9-3.4 23.1-9.6 6.1-6.1 9.6-14.5 9.6-23.1v-25.5h46.5v25.5c0 8.6 3.5 17 9.6 23.1 6.2 6.2 14.4 9.6 23.1 9.6 8.7 0 16.9-3.4 23.1-9.6 6.1-6.1 9.6-14.5 9.6-23.1v-25.5h177.7v640.7H190.3z" p-id="2696" fill="#ffffff"></path></svg>