<?xml version="1.0" standalone="no"?><!DOCTYPE svg PUBLIC "-//W3C//DTD SVG 1.1//EN" "http://www.w3.org/Graphics/SVG/1.1/DTD/svg11.dtd"><svg t="1632981252664" class="icon" viewBox="0 0 1024 1024" version="1.1" xmlns="http://www.w3.org/2000/svg" p-id="11506" xmlns:xlink="http://www.w3.org/1999/xlink" width="200" height="200"><defs><style type="text/css"></style></defs><path d="M740.12 98.15H283.88c-67.82 0-123.68 56.5-123.68 125.1v579.87c0 68.61 55.86 125.1 123.68 125.1h456.25c67.83 0 123.68-56.49 123.68-125.1V223.25c0-68.6-51.87-125.1-123.69-125.1z m63.84 709.01c0 36.31-27.92 64.56-63.84 64.56H283.88c-35.91 0-63.84-28.24-63.84-64.56V223.25c0-36.31 27.93-64.56 63.84-64.56h456.25c35.92 0 63.84 28.25 63.84 64.56v583.91zM464.03 325.63l-87.77 88.78-44.5-44.94c-11.97-12.11-26.43-11.83-39.9 0-12.79 11.24-11.98 32.28 0 40.35l63.84 64.57c3.99 4.03 11.97 8.07 23.94 8.07 11.98 0 19.06-4.32 23.94-8.07L511.3 365.43c11.97-12.11 10.21-30.15 0-40.36-18.85-18.85-36.74-9.97-47.27 0.56z m255.35 43.84H570.82c-19.94 0-27.93 12.1-27.93 28.25 0 20.17 11.98 28.25 27.93 28.25h148.57c19.94 0 27.92-12.11 27.92-28.25 0-16.15-11.98-28.25-27.93-28.25zM387.61 551.05c-51.87 0-91.76 40.35-91.76 92.82 0 52.46 39.9 92.81 91.76 92.81 51.88 0 91.77-40.36 91.77-92.81 0-56.5-43.89-92.82-91.77-92.82z m0 129.7c-25.28 0-40.45-15.34-40.45-40.91 0-25.58 15.17-40.93 40.45-40.93 25.3 0 40.46 15.35 40.46 40.93 0 25.57-20.23 40.91-40.46 40.91z m331.77-69.17H570.82c-19.94 0-27.93 12.11-27.93 28.26 0 16.13 11.98 28.24 27.93 28.24h148.57c19.94 0 27.92-12.1 27.92-28.24 0-16.15-11.98-28.25-27.93-28.26z" p-id="11507" fill="#ffffff"></path></svg>