<?xml version="1.0" standalone="no"?><!DOCTYPE svg PUBLIC "-//W3C//DTD SVG 1.1//EN" "http://www.w3.org/Graphics/SVG/1.1/DTD/svg11.dtd"><svg t="1632980871707" class="icon" viewBox="0 0 1024 1024" version="1.1" xmlns="http://www.w3.org/2000/svg" p-id="9991" xmlns:xlink="http://www.w3.org/1999/xlink" width="200" height="200"><defs><style type="text/css"></style></defs><path d="M739.35 191.94c-13.1-5.43-28.05-2.45-38.07 7.58-10.02 10.03-13 24.97-7.57 38.07 5.43 13.1 18.1 21.56 32.28 21.56 9.33 0 18.1-3.63 24.7-10.23 6.6-6.6 10.23-15.37 10.23-24.7 0-14.19-8.47-26.85-21.57-32.28zM619.66 189.28c-19.26 0-34.93 15.67-34.93 34.93 0 19.26 15.67 34.93 34.93 34.93 9.33 0 18.11-3.63 24.7-10.23 6.6-6.6 10.23-15.37 10.23-24.71 0-19.25-15.67-34.92-34.93-34.92zM526.7 191.94c-13.1-5.43-28.05-2.45-38.07 7.58-10.02 10.03-12.99 24.97-7.57 38.07 5.43 13.1 18.1 21.56 32.28 21.56 9.33 0 18.1-3.63 24.7-10.23 6.6-6.6 10.23-15.37 10.23-24.7 0-14.19-8.47-26.85-21.57-32.28zM467.26 412.91l-0.37-0.52c-9.33-11.15-25.71-13.63-37.9-5.96h-1.75l-118.91 102.2-38.65-33.43c-5.62-4.88-13.11-7.32-20.52-6.66-7.41 0.65-14.35 4.34-19.04 10.12l-1.02 1.25v1.5c-9 12.31-7.19 29.38 4.45 39.55l53.03 46c6.11 5.87 13.92 8.81 21.74 8.8 7.82 0 15.63-2.94 21.74-8.81l130.33-113.44c12.65-8.2 15.75-26.33 6.87-40.6z" p-id="9992" fill="#ffffff"></path><path d="M528.56 874.45l-1.37-1.65h-340.8c-18.07 0-32.86-14.6-33.04-32.66V350.29h674.4v147.08l2.48 1.27a247.062 247.062 0 0 1 44.74 29.39l7.45 6.15v-349.5c-0.44-47.88-39.54-86.53-87.28-86.53H186c-47.78 0-86.88 38.65-87.32 86.57v656.21c0.44 47.88 39.54 86.53 87.28 86.53h402.68l-11.75-8.28a246.91 246.91 0 0 1-48.33-44.73zM153.35 295.61V185.52c0.19-18.1 14.97-32.69 33.08-32.69H794.73c18.05 0 32.84 14.59 33.02 32.64v110.14h-674.4z" p-id="9993" fill="#ffffff"></path><path d="M718.39 508.26c-115.58 0-209.6 94.03-209.6 209.61 0 115.57 94.03 209.6 209.6 209.6S928 833.44 928 717.87c0-115.58-94.03-209.61-209.61-209.61z m154.93 209.61c0 85.43-69.5 154.93-154.93 154.93-41.39 0-80.29-16.12-109.55-45.38-29.26-29.26-45.38-68.16-45.38-109.55 0-85.43 69.5-154.94 154.93-154.94s154.93 69.5 154.93 154.94z" p-id="9994" fill="#ffffff"></path><path d="M794.2 720.15l-78.99 1.1v-79.41c0-9.71-5.22-18.76-13.63-23.61-8.41-4.85-18.85-4.85-27.26 0s-13.63 13.9-13.63 23.61v104.81c0.14 15.31 12.23 28.04 27.51 28.99l0.17 0.01 106.7-1.48c9.71-0.06 18.68-5.36 23.42-13.83 4.73-8.47 4.55-18.89-0.48-27.19-5.03-8.29-14.19-13.25-23.81-13zM463.64 612.27c-9.33-11.17-25.71-13.65-37.91-5.96h-1.75l-118.9 102.22-38.66-33.45c-5.62-4.88-13.09-7.31-20.51-6.65-7.41 0.65-14.35 4.34-19.04 10.11l-1.02 1.25v1.5c-8.99 12.31-7.19 29.38 4.46 39.55l53.04 45.99c6.11 5.86 13.92 8.8 21.73 8.8 7.81 0 15.63-2.93 21.73-8.8l130.27-113.41c12.71-8.2 15.84-26.36 6.94-40.65l-0.38-0.5z" p-id="9995" fill="#ffffff"></path></svg>