<?xml version="1.0" standalone="no"?><!DOCTYPE svg PUBLIC "-//W3C//DTD SVG 1.1//EN" "http://www.w3.org/Graphics/SVG/1.1/DTD/svg11.dtd"><svg t="1632981226520" class="icon" viewBox="0 0 1024 1024" version="1.1" xmlns="http://www.w3.org/2000/svg" p-id="11340" xmlns:xlink="http://www.w3.org/1999/xlink" width="200" height="200"><defs><style type="text/css"></style></defs><path d="M658.41 915.48a29.2 29.2 0 0 0 20.7 8.58c7.49 0 14.98-2.86 20.7-8.58l143.1-143.1c5.49-5.49 8.58-12.94 8.58-20.7s-3.08-15.22-8.58-20.7l-143.1-143.1c-11.44-11.44-29.97-11.44-41.41 0-11.44 11.44-11.44 29.97 0 41.41l93.1 93.1H520.13c-16.18 0-29.28 13.11-29.28 29.28 0 16.18 13.11 29.28 29.28 29.28H751.5l-93.1 93.1c-11.43 11.45-11.43 30 0.01 41.43z m0 0" p-id="11341" fill="#ffffff"></path><path d="M203.79 927.13h305.67c16.18 0 29.28-13.11 29.28-29.28s-13.11-29.28-29.28-29.28H233.07V156.79H792.8v400.12c0 16.17 13.11 29.28 29.28 29.28 16.18 0 29.28-13.11 29.28-29.28v-429.4c0-16.18-13.11-29.28-29.28-29.28h-618.3c-16.18 0-29.28 13.11-29.28 29.28v770.33c0.01 16.18 13.11 29.29 29.29 29.29z m0 0" p-id="11342" fill="#ffffff"></path><path d="M359.34 376.16h300.23c16.18 0 29.28-13.11 29.28-29.28 0-16.18-13.11-29.28-29.28-29.28H359.34c-16.18 0-29.28 13.11-29.28 29.28s13.11 29.28 29.28 29.28z m0 151.62h195.55c16.17 0 29.28-13.11 29.28-29.28s-13.11-29.28-29.28-29.28H359.34c-16.18 0-29.28 13.11-29.28 29.28s13.11 29.28 29.28 29.28z m0 0" p-id="11343" fill="#ffffff"></path></svg>