<?xml version="1.0" standalone="no"?><!DOCTYPE svg PUBLIC "-//W3C//DTD SVG 1.1//EN" "http://www.w3.org/Graphics/SVG/1.1/DTD/svg11.dtd"><svg t="1632981206947" class="icon" viewBox="0 0 1024 1024" version="1.1" xmlns="http://www.w3.org/2000/svg" p-id="11176" xmlns:xlink="http://www.w3.org/1999/xlink" width="200" height="200"><defs><style type="text/css"></style></defs><path d="M338.4 362.33h345.86c15.08 0 27.32 12.66 27.32 28.36 0 15.56-12.24 28.22-27.32 28.22H338.4c-7.38-0.13-14.4-3.18-19.52-8.49s-7.93-12.43-7.8-19.81c0-15.62 12.24-28.28 27.32-28.28z m0 169.81h345.86c15.08 0 27.32 12.66 27.32 28.29 0 15.64-12.24 28.29-27.32 28.29H338.4a27.832 27.832 0 0 1-19.55-8.51 27.846 27.846 0 0 1-7.77-19.85c0-15.56 12.24-28.22 27.32-28.22z m0 150.94h236.64c15.08 0 27.32 12.66 27.32 28.29s-12.24 28.29-27.32 28.29H338.4a27.832 27.832 0 0 1-19.55-8.51 27.813 27.813 0 0 1-7.77-19.85c0-15.56 12.24-28.22 27.32-28.22zM238.31 98.23h70.35c12.73 0 24.63 6.92 31.13 18.33l38.74 66.82c3.18 5.65 9.15 9.16 15.63 9.2h234.22c6.43 0 12.31-3.46 15.64-9.2l38.74-66.82a36.17 36.17 0 0 1 31.13-18.33h70.42c40.4 0 72.91 33.75 72.91 75.4V852.9c0 41.64-32.58 75.39-72.84 75.39H227.09c-40.33 0-61.62-33.75-61.62-75.39V173.63c0-41.58 32.58-75.4 72.84-75.4z m60.04 56.58h-60.04c-4.93 0.07-9.63 2.1-13.05 5.65-3.43 3.55-5.3 8.31-5.21 13.24v679.13c0 10.38 8.16 18.89 18.26 18.89h546.05a18.54 18.54 0 0 0 18.26-18.89V173.69c0.09-4.93-1.78-9.69-5.21-13.24a18.522 18.522 0 0 0-13.05-5.65h-60.04l-33.42 57.7c-13.14 22.76-36.87 36.66-62.46 36.66H394.23c-25.6 0-49.32-13.91-62.46-36.66l-33.42-57.69z m131.08-56.58h163.8c15.08 0 27.32 12.66 27.32 28.36 0 15.56-12.24 28.22-27.32 28.22h-163.8c-7.37-0.13-14.4-3.18-19.52-8.49a27.832 27.832 0 0 1-7.8-19.81c0-15.62 12.25-28.28 27.32-28.28z m0 0" p-id="11177" fill="#ffffff"></path></svg>