<?xml version="1.0" standalone="no"?><!DOCTYPE svg PUBLIC "-//W3C//DTD SVG 1.1//EN" "http://www.w3.org/Graphics/SVG/1.1/DTD/svg11.dtd"><svg t="1632981182043" class="icon" viewBox="0 0 1024 1024" version="1.1" xmlns="http://www.w3.org/2000/svg" p-id="11010" xmlns:xlink="http://www.w3.org/1999/xlink" width="200" height="200"><defs><style type="text/css"></style></defs><path d="M888.84 877.78c-8.36 14.3-26.47 19.67-41.27 12.25l-3.31-1.95-101.73-67.83-1.94 1.56c-22.68 18.23-49.99 29.24-79 31.8-39.04 3.46-77.15-8.55-107.28-33.83-30.59-25.67-49.33-61.82-52.8-101.81-1.49-17.3 11.37-32.59 28.67-34.09 17.31-1.48 32.59 11.37 34.09 28.67 2 23.2 12.82 44.13 30.45 58.93 17.25 14.48 39.02 21.37 61.29 19.41 46.59-4.12 81.16-46.03 77.08-93.43-2.01-23.19-12.82-44.12-30.47-58.93-17.24-14.48-39.02-21.37-61.34-19.4-11.27 1.13-22.33-3.89-28.86-13.12-6.54-9.24-7.62-21.34-2.81-31.58 4.82-10.26 14.82-17.15 26.14-18.02 39.05-3.45 77.15 8.55 107.28 33.84 30.59 25.66 49.34 61.81 52.8 101.8 2.26 26.05-2.3 52.29-13.19 75.87l-1.21 2.63 97.77 65.18c13.79 9.25 18.02 27.72 9.64 42.05z" p-id="11011" fill="#ffffff"></path><path d="M823.28 212.04c-2.47-25.17-23.38-44.14-48.69-44.15h-90.56v-20.82c0-26.97-21.95-48.91-48.91-48.91H321.26c-26.97 0-48.91 21.95-48.91 48.91v20.82h-90.48l-4.86 0.24c-25.17 2.48-44.14 23.39-44.14 48.69V879.3l0.24 4.85c2.46 25.17 23.38 44.15 48.68 44.15H478.1l3.88-0.24c15.77-1.91 27.66-15.28 27.71-31.15l-0.24-3.88c-1.91-15.8-15.32-27.7-31.26-27.7H195.84V230.87h76.51v20.82c0 26.97 21.95 48.91 48.91 48.91h313.85c26.97 0 48.91-21.95 48.91-48.91v-20.82h76.51v212.5l0.24 3.88c2.01 16.46 16.51 28.63 33.09 27.61 16.61-0.97 29.63-14.76 29.64-31.39V216.89l-0.22-4.85z m-202.22 25.6H335.32v-76.53h285.73v76.53z" p-id="11012" fill="#ffffff"></path><path d="M405.06 687.57c0 21.48-10 31.49-31.48 31.49h-34.87c-21.48 0-31.49-10.01-31.49-31.49 0-21.47 10.01-31.48 31.49-31.48h34.87c21.48 0 31.48 10.01 31.48 31.48zM649.16 478.35c0 21.47-10.01 31.48-31.49 31.48H338.71c-21.48 0-31.49-10.01-31.49-31.48 0-21.48 10.01-31.49 31.49-31.49h278.96c21.49 0 31.49 10.01 31.49 31.49z" p-id="11013" fill="#ffffff"></path></svg>