<?xml version="1.0" standalone="no"?><!DOCTYPE svg PUBLIC "-//W3C//DTD SVG 1.1//EN" "http://www.w3.org/Graphics/SVG/1.1/DTD/svg11.dtd"><svg t="1631609527894" class="icon" viewBox="0 0 1024 1024" version="1.1" xmlns="http://www.w3.org/2000/svg" p-id="7065" xmlns:xlink="http://www.w3.org/1999/xlink" width="16" height="16"><defs><style type="text/css"></style></defs><path d="M475.87 495.28h-358.6c-10.64 0-19.27-8.63-19.27-19.27v-358.6c0-10.64 8.63-19.27 19.27-19.27h358.6c10.64 0 19.27 8.63 19.27 19.27v358.6c-0.01 10.64-8.63 19.27-19.27 19.27zM177.6 434.95h237.94c10.64 0 19.27-8.63 19.27-19.27V177.75c0-10.64-8.63-19.27-19.27-19.27H177.6c-10.64 0-19.27 8.63-19.27 19.27v237.94c0 10.64 8.63 19.26 19.27 19.26zM444.14 863.55H280.28c-16.66 0-30.16-13.51-30.16-30.16 0-16.66 13.51-30.16 30.16-30.16h103.53c16.66 0 30.16-13.51 30.16-30.16V672.84c0-16.66 13.51-30.16 30.16-30.16 16.66 0 30.16 13.51 30.16 30.16v160.55c0.01 16.66-13.49 30.16-30.15 30.16z" p-id="7066" fill="#ffffff"></path><path d="M419.56 849.53c-9.25-2.97-226.72-76.21-233.41-383.75l60.31-1.32C252.23 729.48 436.13 791.49 438 792.08l-18.44 57.45zM905.94 928.22h-358.6c-10.64 0-19.27-8.63-19.27-19.27v-358.6c0-10.64 8.63-19.27 19.27-19.27h358.6c10.64 0 19.27 8.63 19.27 19.27v358.6c0 10.64-8.63 19.27-19.27 19.27z m-298.26-60.33h237.94c10.64 0 19.27-8.63 19.27-19.27V610.69c0-10.64-8.63-19.27-19.27-19.27H607.68c-10.64 0-19.27 8.63-19.27 19.27v237.94c0 10.63 8.62 19.26 19.27 19.26zM579.07 383.69c-16.66 0-30.16-13.51-30.16-30.16V192.98c0-16.66 13.51-30.16 30.16-30.16h163.87c16.66 0 30.16 13.51 30.16 30.16 0 16.66-13.51 30.16-30.16 30.16H639.39c-16.66 0-30.16 13.51-30.16 30.16v100.22c0 16.67-13.51 30.17-30.16 30.17z" p-id="7067" fill="#ffffff"></path><path d="M776.75 561.91c-5.76-265.02-189.66-327.03-191.52-327.62l18.43-57.45c9.25 2.97 226.72 76.21 233.4 383.75l-60.31 1.32z" p-id="7068" fill="#ffffff"></path></svg>