<?xml version="1.0" standalone="no"?><!DOCTYPE svg PUBLIC "-//W3C//DTD SVG 1.1//EN" "http://www.w3.org/Graphics/SVG/1.1/DTD/svg11.dtd"><svg t="1632985343074" class="icon" viewBox="0 0 1024 1024" version="1.1" xmlns="http://www.w3.org/2000/svg" p-id="2872" xmlns:xlink="http://www.w3.org/1999/xlink" width="200" height="200"><defs><style type="text/css"></style></defs><path d="M406.43 316.68a47.667 47.667 0 0 0 23.92 6.41c16.54 0 32.68-8.51 41.6-23.73 8.71-14.85 8.79-33.34 0.22-48.26-8.55-14.9-24.53-24.14-41.71-24.14h-0.09c-17.21 0.04-33.19 9.36-41.69 24.32-13.02 22.89-5.05 52.23 17.75 65.4zM911.45 887.66L801 644.12H654.33c-16.74 0-30.35 13.62-30.35 30.35 0 8.11 3.16 15.73 8.89 21.47 5.73 5.73 13.35 8.88 21.46 8.88h0.01l107.46-0.05 73.07 161.02c0.22 0.48 0.08 0.87-0.08 1.12-0.16 0.24-0.46 0.54-0.98 0.54H194.19c-0.53 0-0.82-0.29-0.98-0.54-0.16-0.24-0.3-0.64-0.08-1.12l73.07-161.02 107.51 0.05h0.01c8.1 0 15.72-3.15 21.46-8.88s8.89-13.36 8.89-21.47c0-16.74-13.62-30.35-30.35-30.35H227.01L116.55 887.66c-4.05 8.92-3.29 19.17 2.01 27.41 5.31 8.24 14.33 13.15 24.13 13.15h742.62c9.8 0 18.82-4.92 24.13-13.15 5.31-8.24 6.06-18.49 2.01-27.41z" p-id="2873" fill="#ffffff"></path><path d="M480.13 617.53v156.19c0 18.69 15.21 33.9 33.9 33.9 18.69 0 33.9-15.21 33.9-33.9V617.53c134.92-17.69 234.03-136.68 226.43-273.09-7.7-138.07-122.04-246.25-260.33-246.29-138.28 0.04-252.63 108.22-260.32 246.29-7.61 136.41 91.5 255.4 226.42 273.09z m33.9-458.66c110.33 0 200.08 89.76 200.08 200.08 0 110.33-89.76 200.09-200.08 200.09-110.33 0-200.09-89.76-200.09-200.09 0.01-110.33 89.77-200.08 200.09-200.08z" p-id="2874" fill="#ffffff"></path></svg>