<?xml version="1.0" encoding="utf-8"?>
<!-- Generator: Adobe Illustrator 23.0.3, SVG Export Plug-In . SVG Version: 6.00 Build 0)  -->
<svg version="1.1" id="图层_1" xmlns="http://www.w3.org/2000/svg" xmlns:xlink="http://www.w3.org/1999/xlink" x="0px" y="0px"
	 viewBox="0 0 1024 1024" style="enable-background:new 0 0 1024 1024;" xml:space="preserve">
<style type="text/css">
	.st0{fill-rule:evenodd;clip-rule:evenodd;fill:#F5A623;}
	.st1{fill-rule:evenodd;clip-rule:evenodd;fill:#FFFFFF;}
	.st2{fill-rule:evenodd;clip-rule:evenodd;fill:#23C6F5;}
	.st3{fill-rule:evenodd;clip-rule:evenodd;fill:#95F523;}
	.st4{fill-rule:evenodd;clip-rule:evenodd;fill:#B723F5;}
	.st5{fill-rule:evenodd;clip-rule:evenodd;fill:#2381F5;}
	.st6{fill-rule:evenodd;clip-rule:evenodd;fill:#F57C23;}
</style>
<g>
	<circle class="st3" cx="511.8" cy="511.17" r="448.39"/>
	<g>
		<g>
			<path class="st1" d="M748.17,681.4c-3.4-15.87-12.36-24.41-19.48-28.38c-16.69-10.07-36.48-5.49-38.64-4.88l-1.85,0.61
				l-1.55,0.92c-17.62,9.46-38.95,20.14-50.39,24.42c-1.24-3.05-2.47-6.72-3.71-10.07c-2.47-7.02-5.56-15.57-9.27-24.42
				c-1.24-6.1-4.95-20.14-17.93-56.46c6.8,10.38,13.91,20.45,21.33,30.52c5.56,9.16,14.53,15.87,25.04,18.62
				c10.82,3.05,22.26,1.53,32.15-3.97c20.09-11.29,27.2-36.63,15.77-56.77c-1.24-2.44-2.78-4.88-4.64-7.93
				c-24.73-43.04-53.17-90.04-79.44-102.86l-0.62-0.3c-38.33-16.48-80.06-20.45-121.17-11.9c-35.55,8.24-61.21,38.76-74.81,54.94
				c-1.24,1.52-2.78,3.35-4.02,4.88c-8.34-0.61-29.06-5.49-47.92-11.59c-0.34-0.17-4.41-0.89-10.41-1.83l-0.73-128.28l142.72-64.77
				c8.79-3.95,14.06-13,13.09-22.49c-0.93-9.51-7.85-17.39-17.25-19.65l-147.18-35.34v-4.43c0-12.6-10.44-23.18-23.2-22.91
				c-12.33,0.26-22.2,10.17-22.2,22.41V532.3c0,0.5,0.02,1.01,0.04,1.5c-0.02,0.52-0.04,1.04-0.04,1.56
				c0,19.89,14.18,37.03,33.92,41c34.28,6.89,83.79,16.96,95.24,19.88c17.62,4.58,33.39-7.93,45.44-19.84
				c3.09,8.85,6.8,18.62,10.2,27.77c-8.66,2.14-17.93,4.88-25.66,7.63c-34.01,11.6-42.04,20.15-44.21,29.61
				c-1.86,8.24-20.71,85.46-30.6,126.05c-1.85,4.58-5.56,17.09,0.62,29.91c5.25,11.6,16.39,19.54,32.46,23.81
				c5.88,1.53,11.44,2.44,16.69,2.44c8.96,0,16.69-2.44,23.18-7.02c11.75-8.55,14.53-21.37,15.46-26.55
				c7.73-29,19.78-73.25,24.11-87.9c8.66-3.05,27.82-6.72,36.79-7.02c2.78,4.89,7.11,14.35,10.51,21.67
				c16.38,35.1,28.44,58.6,47.3,63.18c31.22,7.63,98-29.61,120.56-43.04C731.79,731.46,754.98,712.84,748.17,681.4z M451.51,362.21
				c-4.33,15.67-2.02,32.77,6.35,47.02c8.37,14.25,22.22,24.51,38.1,28.78c5.2,1.42,10.68,1.99,15.88,1.99
				c27.71,0,53.11-18.24,60.33-45.88c8.66-32.77-10.97-66.69-44.16-75.52C494.52,309.77,460.46,329.43,451.51,362.21z"/>
		</g>
	</g>
</g>
</svg>
