<?xml version="1.0" standalone="no"?><!DOCTYPE svg PUBLIC "-//W3C//DTD SVG 1.1//EN" "http://www.w3.org/Graphics/SVG/1.1/DTD/svg11.dtd"><svg t="1631609433676" class="icon" viewBox="0 0 1024 1024" version="1.1" xmlns="http://www.w3.org/2000/svg" p-id="6308" xmlns:xlink="http://www.w3.org/1999/xlink" width="16" height="16"><defs><style type="text/css"></style></defs><path d="M890.01 254H140.06c-17.68 0-32.01-14.33-32.01-32.01s14.33-32.01 32.01-32.01h749.95c17.68 0 32.01 14.33 32.01 32.01S907.69 254 890.01 254z" p-id="6309" fill="#ffffff"></path><path d="M547.04 221.99h-64.01v-91.83c0-17.68 14.33-32.01 32.01-32.01s32.01 14.33 32.01 32.01v91.83zM863.98 783.29H168.27v-561.3h64.01v497.28h567.69V221.99h64.01z" p-id="6310" fill="#ffffff"></path><path d="M282.63 919.11l-0.01-0.01c-13.04-11.93-13.94-32.18-2.01-45.22l110.37-120.61c11.93-13.04 32.17-13.94 45.21-2.01l23.63 21.61-131.98 144.24c-11.93 13.03-32.17 13.93-45.21 2zM711.58 918.24L579.73 781.25l46.11-44.39 131.86 137c12.26 12.73 11.87 32.99-0.86 45.25-12.74 12.25-33 11.86-45.26-0.87zM291.73 606.8c-12.16-12.83-11.62-33.08 1.21-45.24l122.15-115.8 133.31 88.01 135.69-137.01c12.44-12.56 32.7-12.66 45.26-0.22 12.56 12.44 12.66 32.7 0.22 45.26L556.95 616.11l-134.71-88.93-85.26 80.84c-12.83 12.16-33.09 11.62-45.25-1.22z" p-id="6311" fill="#ffffff"></path></svg>