<?xml version="1.0" encoding="utf-8"?>
<!-- Generator: Adobe Illustrator 23.0.3, SVG Export Plug-In . SVG Version: 6.00 Build 0)  -->
<svg version="1.1" id="图层_1" xmlns="http://www.w3.org/2000/svg" xmlns:xlink="http://www.w3.org/1999/xlink" x="0px" y="0px"
	 viewBox="0 0 1024 1024" style="enable-background:new 0 0 1024 1024;" xml:space="preserve">
<style type="text/css">
	.st0{fill-rule:evenodd;clip-rule:evenodd;fill:#F5A623;}
	.st1{fill-rule:evenodd;clip-rule:evenodd;fill:#FFFFFF;}
	.st2{fill-rule:evenodd;clip-rule:evenodd;fill:#23C6F5;}
	.st3{fill-rule:evenodd;clip-rule:evenodd;fill:#95F523;}
	.st4{fill-rule:evenodd;clip-rule:evenodd;fill:#B723F5;}
	.st5{fill-rule:evenodd;clip-rule:evenodd;fill:#2381F5;}
	.st6{fill-rule:evenodd;clip-rule:evenodd;fill:#F57C23;}
</style>
<g>
	<circle class="st0" cx="512.73" cy="511.56" r="447.45"/>
	<g>
		<g>
			<path class="st1" d="M512.74,413.89v96.33h-96.81c0,52.07,44.68,96.33,96.81,96.33c52.13,0,96.81-41.66,96.81-96.33
				C609.54,458.15,564.86,413.89,512.74,413.89z M765.93,494.6c-24.82-59.88-109.22-226.5-255.68-226.5
				c-143.97,0-230.85,166.62-255.67,226.5c0,5.21-7.45,20.83-7.45,20.83c2.48,2.61,39.72,70.29,69.5,114.55
				c44.68,62.49,109.22,127.57,196.1,124.97c181.21-7.81,263.12-239.52,265.6-239.52C778.34,515.43,778.34,515.43,765.93,494.6z
				 M512.74,656.02c-79.43,0-143.97-65.09-143.97-145.8c0-80.71,64.54-145.8,143.97-145.8c79.43,0,143.97,65.09,143.97,145.8
				C656.7,590.93,592.17,656.02,512.74,656.02z"/>
		</g>
	</g>
</g>
</svg>
