<?xml version="1.0" encoding="utf-8"?>
<!-- Generator: Adobe Illustrator 23.0.0, SVG Export Plug-In . SVG Version: 6.00 Build 0)  -->
<svg version="1.1" id="图层_1" xmlns="http://www.w3.org/2000/svg" xmlns:xlink="http://www.w3.org/1999/xlink" x="0px" y="0px"
	 viewBox="0 0 1024 1024" style="enable-background:new 0 0 1024 1024;" xml:space="preserve">
<style type="text/css">
	.st0{fill:#FFFFFF;}
	.st1{fill:#95B3DD;}
	.st2{fill:#C3A365;}
	.st3{fill:#67675C;}
	.st4{fill:#808080;}
	.st5{fill:#888675;}
	.st6{fill:#CBA573;stroke:#7D613A;stroke-miterlimit:10;}
	.st7{fill:#B79F78;}
	.st8{fill:#6A593B;}
</style>
<rect x="64.21" y="283.07" class="st0" width="895.12" height="453.18"/>
<rect x="64.26" y="456.9" class="st1" width="881.53" height="220.78"/>
<polygon class="st2" points="64.26,608.14 959.33,311.39 959.33,739.54 64.26,736.26 "/>
<polygon class="st3" points="633.47,361.59 326.8,411.43 248.05,548.82 579.83,442.02 "/>
<polygon class="st4" points="544.82,450.57 812.15,461.61 639.65,589.5 138.84,585.73 "/>
<polygon class="st5" points="545.42,450.71 552.81,439.49 570.23,436.87 584.52,409.19 598.04,408.34 632.94,361.93 687.68,360.71 
	729.57,408.29 750.11,409.62 775.6,448.31 795.27,449.81 812.15,461.61 "/>
<polygon class="st6" points="326.63,411.16 635.15,360.71 687.68,360.71 429.17,411.78 "/>
<g>
	<polygon class="st7" points="135.51,585.28 158.43,563.03 194.13,562.5 235.65,501.69 263.44,499.59 326.8,411.43 429.17,411.78 
		502.95,494.73 536.98,495.37 576.72,563.99 608.97,564.84 638.9,589.09 	"/>
	<path class="st8" d="M135.42,585.32l22.8-22.5l0.08-0.08l0.12,0l35.7-0.73l-0.41,0.22l41.31-60.96l0.2-0.3l0.37-0.03l27.78-2.14
		l-0.59,0.33L294.4,455l31.71-44.06l0.26-0.36l0.44,0l51.18,0.31l51.18,0.37l0.23,0l0.15,0.17l36.77,41.58l18.41,20.77l18.46,20.72
		l-0.25-0.11l34.03,0.57l0.23,0l0.12,0.2l39.9,68.53l-0.5-0.29l32.25,0.76l0.23,0.01l0.18,0.15l30,24.15l1.79,1.44l-2.3-0.01
		l-126.12-0.76l-126.13-1.11L135.42,585.32z M135.61,585.24l252.17,1.11l125.56,0.79l125.57,1.14l-0.51,1.43l-29.86-24.33l0.41,0.15
		l-32.24-0.95l-0.33-0.01l-0.16-0.29l-39.59-68.71l0.35,0.21l-34.03-0.71l-0.15,0l-0.1-0.11l-18.42-20.76l-18.48-20.71l-37.01-41.37
		l0.38,0.17l-51.18,0.03l-51.18-0.03l0.69-0.35l-31.65,44.1l-31.75,44.03l-0.22,0.3l-0.37,0.03l-27.79,2.05l0.57-0.33l-41.73,60.67
		L194.4,563l-0.26,0l-35.7,0.33l0.2-0.08L135.61,585.24z"/>
</g>
</svg>
